<svg xmlns="http://www.w3.org/2000/svg" width="977" height="230" viewBox="0 0 977 230">
  <g id="그룹_402" data-name="그룹 402" transform="translate(-211 -1525)">
    <rect id="사각형_146" data-name="사각형 146" width="238" height="229.667" transform="translate(457.337 1525)" fill="#f8f8f8"/>
    <rect id="사각형_147" data-name="사각형 147" width="238" height="229.667" transform="translate(703.671 1525)" fill="#f8f8f8"/>
    <rect id="사각형_235" data-name="사각형 235" width="238" height="230" transform="translate(950 1525)" fill="#f8f8f8"/>
    <rect id="사각형_140" data-name="사각형 140" width="238" height="230" transform="translate(211 1525)" fill="#f8f8f8"/>
    <g id="운3" transform="translate(627.03 1320.552)">
      <path id="패스_992" data-name="패스 992" d="M165.99,302.872v10.834a4.979,4.979,0,0,0,4.972,4.972h3.463V297.9h-3.463A4.978,4.978,0,0,0,165.99,302.872Z" transform="translate(-0.818 -11.215)" fill="none"/>
      <path id="패스_993" data-name="패스 993" d="M212.9,352.985c0-.015.007-.029.007-.044a2.628,2.628,0,1,0,0,.095C212.907,353.021,212.9,353.007,212.9,352.985Z" transform="translate(-15.048 -28.418)" fill="none"/>
      <path id="패스_994" data-name="패스 994" d="M248.429,297.9H244.98v20.779h3.449a4.979,4.979,0,0,0,4.972-4.972V302.872A4.978,4.978,0,0,0,248.429,297.9Z" transform="translate(-28.104 -11.215)" fill="none"/>
      <path id="패스_995" data-name="패스 995" d="M220.922,285.511h-3.167a19.152,19.152,0,0,0-19.128-18.9h-6.8a19.156,19.156,0,0,0-19.128,18.9h-3.167a6.568,6.568,0,0,0-6.561,6.561V302a6.568,6.568,0,0,0,6.561,6.561h4.176a1,1,0,0,0,1-1V286.513a1.036,1.036,0,0,0-.087-.408.941.941,0,0,0,.073-.361,17.145,17.145,0,0,1,17.124-17.124h6.8a17.141,17.141,0,0,1,17.124,17.124v.6a1.423,1.423,0,0,0-.02.167v21A17.143,17.143,0,0,1,199.5,323.948a4.408,4.408,0,1,0,.013,2,19.15,19.15,0,0,0,18.153-17.391h3.24A6.568,6.568,0,0,0,227.47,302v-9.928A6.548,6.548,0,0,0,220.922,285.511Zm-48.2,21.046h-3.174A4.562,4.562,0,0,1,164.988,302v-9.928a4.562,4.562,0,0,1,4.557-4.557h3.174Zm22.516,20.825a2.409,2.409,0,1,1,2.405-2.452c0,.013-.007.027-.007.04s.007.027.007.04A2.41,2.41,0,0,1,195.233,327.382ZM225.479,302a4.562,4.562,0,0,1-4.557,4.557h-3.16V287.515h3.16a4.562,4.562,0,0,1,4.557,4.557Z" transform="translate(0)" fill="#646665"/>
      <path id="패스_996" data-name="패스 996" d="M216.013,317.87H200.87a7.571,7.571,0,0,0,15.143,0Z" transform="translate(-13.212 -17.4)" fill="#ea609e"/>
      <path id="패스_997" data-name="패스 997" d="M202.856,308.453a2.953,2.953,0,1,0-2.953,2.953A2.95,2.95,0,0,0,202.856,308.453Z" transform="translate(-11.467 -13.131)" fill="#ea609e"/>
      <path id="패스_998" data-name="패스 998" d="M223.386,308.453a2.953,2.953,0,1,0-2.953,2.953A2.95,2.95,0,0,0,223.386,308.453Z" transform="translate(-18.395 -13.131)" fill="#ea609e"/>
    </g>
    <g id="운4" transform="translate(875.61 1277.26)">
      <path id="패스_999" data-name="패스 999" d="M205.87,394.578a1.948,1.948,0,1,0,1.948-1.948A1.954,1.954,0,0,0,205.87,394.578Z" transform="translate(-14.202 -25.474)" fill="none"/>
      <path id="패스_1000" data-name="패스 1000" d="M167.83,323.82v38.314h56.091V323.82Zm8.413,32.378h-2.06a1.044,1.044,0,0,1,0-2.088h2.06a1.044,1.044,0,0,1,0,2.088Zm0-6.263h-2.06a1.044,1.044,0,0,1,0-2.088h2.06a1.044,1.044,0,0,1,0,2.088Zm0-6.263h-2.06a1.044,1.044,0,0,1,0-2.088h2.06a1.044,1.044,0,0,1,0,2.088Zm0-6.263h-2.06a1.044,1.044,0,0,1,0-2.088h2.06a1.044,1.044,0,0,1,0,2.088Zm0-6.263h-2.06a1.044,1.044,0,0,1,0-2.088h2.06a1.044,1.044,0,0,1,0,2.088Zm39.608,8.176a1.03,1.03,0,1,1-2.06,0v-5.247l-16.36,16.575a1.019,1.019,0,0,1-1.456,0l-4.5-4.558-9.375,9.5a1.019,1.019,0,0,1-1.456,0,1.047,1.047,0,0,1,0-1.475l10.1-10.236a1.019,1.019,0,0,1,1.456,0l4.5,4.558L212.335,332.6h-5.179a1.044,1.044,0,0,1,0-2.088h7.665a.991.991,0,0,1,.378.076c.007,0,.014,0,.014.007a1.059,1.059,0,0,1,.563.571c0,.007,0,.014.007.014a1,1,0,0,1,.076.383v7.759Z" transform="translate(-2.263 -3.856)" fill="none"/>
      <path id="패스_1001" data-name="패스 1001" d="M223.364,314.14H165.687a2.324,2.324,0,0,0,0,4.648h57.677a2.324,2.324,0,0,0,0-4.648Z" transform="translate(-0.912 -0.912)" fill="none"/>
      <path id="패스_1002" data-name="패스 1002" d="M226.836,315.5a4.364,4.364,0,0,0-4.363-4.363H164.753a4.36,4.36,0,0,0-1.308,8.52v39.124a1.031,1.031,0,0,0,1.032,1.032h28.106v5.478a3.992,3.992,0,1,0,2.065,0v-5.478h28.1a1.031,1.031,0,0,0,1.032-1.032V319.66A4.367,4.367,0,0,0,226.836,315.5Zm-31.292,53.645a1.927,1.927,0,1,1-1.927-1.927A1.933,1.933,0,0,1,195.543,369.148Zm-30.033-11.39V319.866h56.205v37.892ZM222.473,317.8H164.753a2.3,2.3,0,0,1,0-4.6h57.719a2.3,2.3,0,0,1,0,4.6Z" transform="translate(0 0)" fill="#646665"/>
      <path id="패스_1003" data-name="패스 1003" d="M221.949,334.084a1.065,1.065,0,0,0-.571-.571c-.007,0-.014,0-.014-.007a.988.988,0,0,0-.383-.077h-7.766a1.044,1.044,0,1,0,0,2.088h5.247l-15.838,15.838-4.558-4.558a1.042,1.042,0,0,0-1.475,0l-10.236,10.236a1.037,1.037,0,0,0,0,1.475,1.042,1.042,0,0,0,1.475,0l9.5-9.5,4.558,4.558a1.042,1.042,0,0,0,1.475,0l16.575-16.575v5.247a1.044,1.044,0,1,0,2.088,0v-7.766a1.015,1.015,0,0,0-.077-.383Z" transform="translate(-8.227 -7.066)" fill="#ea609e"/>
      <path id="패스_1004" data-name="패스 1004" d="M178.711,331.35h-2.088a1.044,1.044,0,1,0,0,2.088h2.088a1.044,1.044,0,1,0,0-2.088Z" transform="translate(-4.744 -6.307)" fill="#ea609e"/>
      <path id="패스_1005" data-name="패스 1005" d="M178.711,340.35h-2.088a1.044,1.044,0,0,0,0,2.088h2.088a1.044,1.044,0,1,0,0-2.088Z" transform="translate(-4.744 -9.115)" fill="#ea609e"/>
      <path id="패스_1006" data-name="패스 1006" d="M178.711,349.35h-2.088a1.044,1.044,0,0,0,0,2.088h2.088a1.044,1.044,0,0,0,0-2.088Z" transform="translate(-4.744 -11.924)" fill="#ea609e"/>
      <path id="패스_1007" data-name="패스 1007" d="M178.711,358.35h-2.088a1.044,1.044,0,0,0,0,2.088h2.088a1.044,1.044,0,1,0,0-2.088Z" transform="translate(-4.744 -14.732)" fill="#ea609e"/>
      <path id="패스_1008" data-name="패스 1008" d="M178.711,367.35h-2.088a1.044,1.044,0,0,0,0,2.088h2.088a1.044,1.044,0,1,0,0-2.088Z" transform="translate(-4.744 -17.541)" fill="#ea609e"/>
    </g>
    <g id="운2" transform="translate(389.838 1255.698)">
      <g id="그룹_399" data-name="그룹 399" transform="translate(146.162 345.331)">
        <path id="패스_1009" data-name="패스 1009" d="M216.818,362.7c-.055-.071-5.473-7.509-17.482-8.637-.032,0-.055-.008-.087-.008L184.9,351.673a5.33,5.33,0,0,0-.816-.063c-1.711,0-2.725.647-3.01,1.932-.325,1.467,4.665,4.094,7.351,5.505a31.549,31.549,0,0,1,5.434,3.273,1.178,1.178,0,0,1-.15,1.893,29.367,29.367,0,0,1-14.591,3.534,36.127,36.127,0,0,1-9.893-1.412c-3.945-1.12-7.042-2.185-9.521-3.037-3.374-1.159-5.608-1.925-7.256-1.925a4.207,4.207,0,0,0-3.184,1.475.19.19,0,0,0-.063.237c.753,3.549,18.535,12.43,27.969,16.09,3.351,1.293,16.222,2.011,36.247,2.011h0c5.45,0,9.941-.055,11.977-.087V363.2H217.8A1.169,1.169,0,0,1,216.818,362.7Z" transform="translate(-146.769 -349.213)" fill="none"/>
        <path id="패스_1010" data-name="패스 1010" d="M225.974,360.225h-8.194c-1.506-1.849-7.386-8.059-18.782-9.142l-14.3-2.378a7.622,7.622,0,0,0-1.228-.095c-2.853,0-4.795,1.383-5.334,3.785-.721,3.232,3.994,5.721,8.559,8.123,1.26.664,2.481,1.312,3.471,1.912a29.309,29.309,0,0,1-11.674,2.339,33.736,33.736,0,0,1-9.241-1.32c-3.891-1.106-6.95-2.157-9.407-3-3.606-1.241-5.983-2.054-8.036-2.054a6.519,6.519,0,0,0-4.866,2.173,2.55,2.55,0,0,0-.713,2.4c1.363,6.471,29.172,17.73,29.449,17.841,4.636,1.794,22.753,2.173,37.129,2.173h0c7.45,0,13.14-.1,13.2-.1a1.185,1.185,0,0,0,1.165-1.185V361.4A1.184,1.184,0,0,0,225.974,360.225Zm-1.189,20.306c-2.037.032-6.53.087-11.983.087h0c-20.042,0-32.921-.719-36.273-2.015-9.439-3.658-27.23-12.555-27.983-16.119a.208.208,0,0,1,.063-.237,4.218,4.218,0,0,1,3.186-1.478c1.656,0,3.883.766,7.259,1.928,2.488.853,5.579,1.912,9.526,3.042a36.016,36.016,0,0,0,9.9,1.414c8.821,0,14.368-3.39,14.6-3.54a1.193,1.193,0,0,0,.555-.909,1.176,1.176,0,0,0-.4-.988,31.55,31.55,0,0,0-5.437-3.279c-2.687-1.414-7.679-4.045-7.354-5.515.285-1.28,1.3-1.936,3.012-1.936a4.354,4.354,0,0,1,.816.063l14.36,2.386a.327.327,0,0,0,.087.008c12.014,1.122,17.435,8.573,17.491,8.652a1.192,1.192,0,0,0,.975.506h7.592v17.928Z" transform="translate(-146.162 -348.61)" fill="#646665"/>
      </g>
      <path id="패스_1011" data-name="패스 1011" d="M171.141,349.3a1.032,1.032,0,0,0,1.454,0l7.07-7.07a5.812,5.812,0,0,0-7.8-8.6,5.812,5.812,0,0,0-7.8,8.6Z" transform="translate(-3.394)" fill="#ea609e"/>
    </g>
    <g id="운1" transform="translate(102.56 1297.373)">
      <g id="그룹_400" data-name="그룹 400" transform="translate(191.44 288.76)">
        <path id="패스_1012" data-name="패스 1012" d="M227.713,291.76c-18.345,0-33.273,11.481-33.273,25.591,0,8.506,5.49,16.439,14.685,21.221a1.089,1.089,0,0,1,.588,1.05l-.713,11.2,9.893-8.366a1.115,1.115,0,0,1,.919-.242,43.141,43.141,0,0,0,7.9.735c18.345,0,33.273-11.481,33.273-25.591S246.058,291.76,227.713,291.76Zm18.83,33.767-6.534-4.3v4.253a2.807,2.807,0,0,1-2.808,2.806H213.16a2.807,2.807,0,0,1-2.808-2.806V309.7a2.807,2.807,0,0,1,2.808-2.806H237.2a2.807,2.807,0,0,1,2.808,2.806v4.253l6.534-4.3Z" transform="translate(-192.192 -289.512)" fill="none"/>
        <path id="패스_1013" data-name="패스 1013" d="M226.961,288.76c-19.589,0-35.521,12.5-35.521,27.846,0,9.162,5.688,17.668,15.255,22.878l-.839,13.1a1.114,1.114,0,0,0,.6,1.06,1.058,1.058,0,0,0,.493.118,1.119,1.119,0,0,0,.714-.258l11.487-9.721a45.4,45.4,0,0,0,7.8.677c19.589,0,35.521-12.5,35.521-27.846S246.542,288.76,226.961,288.76Zm0,53.491a43.174,43.174,0,0,1-7.911-.736,1.129,1.129,0,0,0-.92.243l-9.9,8.382.714-11.222a1.117,1.117,0,0,0-.589-1.052c-9.206-4.791-14.7-12.738-14.7-21.259,0-14.136,14.946-25.638,33.313-25.638s33.313,11.5,33.313,25.638S245.328,342.251,226.961,342.251Z" transform="translate(-191.44 -288.76)" fill="#646665"/>
      </g>
      <path id="패스_1014" data-name="패스 1014" d="M239.172,304.073a.686.686,0,0,0-.847.667v21.793a8.6,8.6,0,0,0-8-2.233c-4.482.892-7.532,4.579-6.8,8.229s4.946,5.9,9.435,5.006,7.532-4.579,6.8-8.229c-.015-.082-.045-.165-.067-.247V305.692c2.383.937,8.911,4.459,7.914,14.666a.685.685,0,1,0,1.364.135C250.294,306.929,239.285,304.1,239.172,304.073Z" transform="translate(-8.684 -4.254)" fill="#ea609e"/>
    </g>
  </g>
</svg>
