<svg xmlns="http://www.w3.org/2000/svg" width="42.4" height="45.979" viewBox="0 0 42.4 45.979">
  <g id="확인" transform="translate(-190.89 -297.498)">
    <g id="그룹_319" data-name="그룹 319" transform="translate(214.642 299.701)">
      <path id="패스_439" data-name="패스 439" d="M224.02,300.57v6.99H231.2Z" transform="translate(-224.02 -300.57)" fill="#fff"/>
    </g>
    <g id="그룹_320" data-name="그룹 320" transform="translate(190.89 297.5)">
      <path id="패스_440" data-name="패스 440" d="M192.29,298.9h22.125l.1,8.9,8.7.072v30.463H192.29Z" transform="translate(-191.286 -297.896)" fill="#fff"/>
      <path id="패스_441" data-name="패스 441" d="M223.819,338.939H190.89V297.5h24.125l.093,8.9,8.7.079v32.456ZM192.9,336.932h28.914V308.469l-8.682-.079-.093-8.883H192.9v37.424Z" transform="translate(-190.89 -297.5)" fill="#767577"/>
    </g>
    <g id="그룹_321" data-name="그룹 321" transform="translate(213.616 297.498)">
      <line id="선_84" data-name="선 84" x2="8.811" y2="8.969" transform="translate(0.703 0.704)" fill="#fff"/>
      <rect id="사각형_174" data-name="사각형 174" width="2.007" height="12.575" transform="matrix(0.714, -0.701, 0.701, 0.714, 0, 1.407)" fill="#767577"/>
    </g>
    <g id="그룹_329" data-name="그룹 329" transform="translate(196.69 305.615)">
      <g id="그룹_322" data-name="그룹 322" transform="translate(0.007)">
        <path id="패스_442" data-name="패스 442" d="M210.49,310.827h-10.5a1,1,0,0,1,0-2.007h10.5a1,1,0,0,1,0,2.007Z" transform="translate(-198.99 -308.82)" fill="#767577"/>
      </g>
      <g id="그룹_323" data-name="그룹 323" transform="translate(0.007 5.054)">
        <path id="패스_443" data-name="패스 443" d="M219.3,317.877H199.994a1,1,0,1,1,0-2.007H219.3a1,1,0,1,1,0,2.007Z" transform="translate(-198.99 -315.87)" fill="#767577"/>
      </g>
      <g id="그룹_324" data-name="그룹 324" transform="translate(0.007 20.555)">
        <path id="패스_444" data-name="패스 444" d="M205.464,339.5h-5.47a1,1,0,0,1,0-2.007h5.47a1,1,0,1,1,0,2.007Z" transform="translate(-198.99 -337.49)" fill="#767577"/>
      </g>
      <g id="그룹_325" data-name="그룹 325" transform="translate(0 10.302)">
        <path id="패스_445" data-name="패스 445" d="M206.658,325.2h-6.675a1,1,0,1,1,0-2.007h6.675a1,1,0,1,1,0,2.007Z" transform="translate(-198.98 -323.19)" fill="#767577"/>
      </g>
      <g id="그룹_326" data-name="그룹 326" transform="translate(10.417 10.302)">
        <path id="패스_446" data-name="패스 446" d="M222.156,325.2h-7.643a1,1,0,1,1,0-2.007h7.643a1,1,0,1,1,0,2.007Z" transform="translate(-213.51 -323.19)" fill="#767577"/>
      </g>
      <g id="그룹_327" data-name="그룹 327" transform="translate(15.178 25.609)">
        <path id="패스_447" data-name="패스 447" d="M225.29,346.547h-4.137a1,1,0,1,1,0-2.007h4.137a1,1,0,1,1,0,2.007Z" transform="translate(-220.15 -344.54)" fill="#767577"/>
      </g>
      <g id="그룹_328" data-name="그룹 328" transform="translate(0.007 15.357)">
        <path id="패스_448" data-name="패스 448" d="M212.354,332.247h-12.36a1,1,0,0,1,0-2.007h12.36a1,1,0,1,1,0,2.007Z" transform="translate(-198.99 -330.24)" fill="#767577"/>
      </g>
    </g>
    <g id="그룹_330" data-name="그룹 330" transform="translate(207.882 318.069)">
      <circle id="타원_39" data-name="타원 39" cx="11.629" cy="11.629" r="11.629" transform="translate(1.075 1.075)" fill="#fff"/>
      <path id="패스_449" data-name="패스 449" d="M227.294,351.6a12.7,12.7,0,1,1,12.7-12.7A12.719,12.719,0,0,1,227.294,351.6Zm0-23.258a10.553,10.553,0,1,0,10.553,10.553A10.562,10.562,0,0,0,227.294,328.341Z" transform="translate(-214.59 -326.19)" fill="#767577"/>
    </g>
    <g id="그룹_331" data-name="그룹 331" transform="translate(217.77 328.681)">
      <path id="패스_450" data-name="패스 450" d="M237.715,347.881a1.062,1.062,0,0,1-.538-.143l-8.252-4.732a1.077,1.077,0,1,1,1.068-1.871l8.252,4.732a1.079,1.079,0,0,1,.4,1.47A1.06,1.06,0,0,1,237.715,347.881Z" transform="translate(-228.383 -340.993)" fill="#ea609e"/>
    </g>
    <g id="그룹_332" data-name="그룹 332" transform="translate(219.137 322.04)">
      <path id="패스_451" data-name="패스 451" d="M231.566,342.671a1.078,1.078,0,0,1-1.075-1.047l-.2-8.79a1.079,1.079,0,0,1,1.047-1.1h.029a1.078,1.078,0,0,1,1.075,1.047l.2,8.79a1.079,1.079,0,0,1-1.047,1.1Z" transform="translate(-230.29 -331.73)" fill="#ea609e"/>
    </g>
  </g>
</svg>
