<svg xmlns="http://www.w3.org/2000/svg" width="44.569" height="44.569" viewBox="0 0 44.569 44.569">
  <g id="사용" transform="translate(-207.22 -299.4)">
    <g id="그룹_285" data-name="그룹 285" transform="translate(216.825 309.552)">
      <g id="그룹_284" data-name="그룹 284" transform="translate(0 0)">
        <ellipse id="타원_38" data-name="타원 38" cx="10.732" cy="10.739" rx="10.732" ry="10.739" transform="translate(0 21.184) rotate(-80.741)" fill="#edecea"/>
      </g>
    </g>
    <g id="그룹_287" data-name="그룹 287" transform="translate(207.22 299.4)">
      <g id="그룹_286" data-name="그룹 286">
        <path id="패스_423" data-name="패스 423" d="M229.5,343.969a22.285,22.285,0,1,1,22.285-22.285A22.308,22.308,0,0,1,229.5,343.969Zm0-42.426a20.141,20.141,0,1,0,20.141,20.141A20.168,20.168,0,0,0,229.5,301.543Z" transform="translate(-207.22 -299.4)" fill="#767577"/>
      </g>
    </g>
    <g id="그룹_289" data-name="그룹 289" transform="translate(226.161 319.305)">
      <g id="그룹_288" data-name="그룹 288" transform="translate(0 0)">
        <path id="패스_424" data-name="패스 424" d="M239.517,330.154a2.894,2.894,0,1,1-2.894-2.894A2.891,2.891,0,0,1,239.517,330.154Z" transform="translate(-233.73 -327.26)" fill="#ea609e"/>
      </g>
    </g>
    <g id="그룹_291" data-name="그룹 291" transform="translate(224.431 319.761)">
      <g id="그룹_290" data-name="그룹 290">
        <path id="패스_425" data-name="패스 425" d="M246.642,336.723a1.174,1.174,0,0,1-.457-.1l-14.261-6.688a1.071,1.071,0,1,1,.915-1.936l14.261,6.688a1.068,1.068,0,0,1,.514,1.422A1.082,1.082,0,0,1,246.642,336.723Z" transform="translate(-231.308 -327.898)" fill="#ea609e"/>
      </g>
    </g>
    <g id="그룹_293" data-name="그룹 293" transform="translate(227.79 307.588)">
      <g id="그룹_292" data-name="그룹 292">
        <path id="패스_426" data-name="패스 426" d="M237.432,327.965a1.075,1.075,0,0,1-1.072-1.05l-.35-14.961a1.065,1.065,0,0,1,1.043-1.093h.029a1.075,1.075,0,0,1,1.072,1.05l.35,14.961a1.065,1.065,0,0,1-1.043,1.093Z" transform="translate(-236.01 -310.86)" fill="#ea609e"/>
      </g>
    </g>
    <g id="그룹_318" data-name="그룹 318" transform="translate(211.163 303.351)">
      <g id="그룹_295" data-name="그룹 295" transform="translate(16.777)">
        <g id="그룹_294" data-name="그룹 294">
          <path id="패스_427" data-name="패스 427" d="M238.356,306.016a1.068,1.068,0,1,1-1.05-1.086A1.064,1.064,0,0,1,238.356,306.016Z" transform="translate(-236.22 -304.93)" fill="#767577"/>
        </g>
      </g>
      <g id="그룹_297" data-name="그룹 297" transform="translate(25.793 2.236)">
        <g id="그룹_296" data-name="그룹 296">
          <path id="패스_428" data-name="패스 428" d="M250.812,309.7a1.067,1.067,0,1,1-.336-1.472A1.066,1.066,0,0,1,250.812,309.7Z" transform="translate(-248.84 -308.06)" fill="#767577"/>
        </g>
      </g>
      <g id="그룹_299" data-name="그룹 299" transform="translate(32.162 8.515)">
        <g id="그룹_298" data-name="그룹 298">
          <path id="패스_429" data-name="패스 429" d="M259.323,318.857a1.068,1.068,0,1,1,.443-1.443A1.063,1.063,0,0,1,259.323,318.857Z" transform="translate(-257.754 -316.848)" fill="#767577"/>
        </g>
      </g>
      <g id="그룹_301" data-name="그룹 301" transform="translate(34.545 17.125)">
        <g id="그룹_300" data-name="그룹 300">
          <path id="패스_430" data-name="패스 430" d="M262.119,331.036a1.069,1.069,0,1,1,1.107-1.029A1.065,1.065,0,0,1,262.119,331.036Z" transform="translate(-261.089 -328.899)" fill="#767577"/>
        </g>
      </g>
      <g id="그룹_303" data-name="그룹 303" transform="translate(32.295 25.786)">
        <g id="그룹_302" data-name="그룹 302">
          <path id="패스_431" data-name="패스 431" d="M258.44,342.992a1.067,1.067,0,1,1,1.472-.336A1.066,1.066,0,0,1,258.44,342.992Z" transform="translate(-257.94 -341.02)" fill="#767577"/>
        </g>
      </g>
      <g id="그룹_305" data-name="그룹 305" transform="translate(26.025 32.155)">
        <g id="그룹_304" data-name="그룹 304">
          <path id="패스_432" data-name="패스 432" d="M249.29,351.5a1.068,1.068,0,1,1,1.443.443A1.063,1.063,0,0,1,249.29,351.5Z" transform="translate(-249.164 -349.934)" fill="#767577"/>
        </g>
      </g>
      <g id="그룹_307" data-name="그룹 307" transform="translate(17.405 34.537)">
        <g id="그룹_306" data-name="그룹 306">
          <path id="패스_433" data-name="패스 433" d="M237.1,354.3a1.069,1.069,0,1,1,1.029,1.107A1.065,1.065,0,0,1,237.1,354.3Z" transform="translate(-237.099 -353.269)" fill="#767577"/>
        </g>
      </g>
      <g id="그룹_309" data-name="그룹 309" transform="translate(8.753 32.287)">
        <g id="그룹_308" data-name="그룹 308">
          <path id="패스_434" data-name="패스 434" d="M225.154,350.62a1.067,1.067,0,1,1,.336,1.472A1.066,1.066,0,0,1,225.154,350.62Z" transform="translate(-224.99 -350.12)" fill="#767577"/>
        </g>
      </g>
      <g id="그룹_311" data-name="그룹 311" transform="translate(2.383 26.017)">
        <g id="그룹_310" data-name="그룹 310">
          <path id="패스_435" data-name="패스 435" d="M216.643,341.47a1.068,1.068,0,1,1-.443,1.443A1.063,1.063,0,0,1,216.643,341.47Z" transform="translate(-216.074 -341.344)" fill="#767577"/>
        </g>
      </g>
      <g id="그룹_313" data-name="그룹 313" transform="translate(0 17.397)">
        <g id="그룹_312" data-name="그룹 312">
          <path id="패스_436" data-name="패스 436" d="M213.847,329.28a1.069,1.069,0,1,1-1.107,1.029A1.065,1.065,0,0,1,213.847,329.28Z" transform="translate(-212.739 -329.279)" fill="#767577"/>
        </g>
      </g>
      <g id="그룹_315" data-name="그룹 315" transform="translate(2.244 8.745)">
        <g id="그룹_314" data-name="그룹 314">
          <path id="패스_437" data-name="패스 437" d="M217.516,317.334a1.067,1.067,0,1,1-1.472.336A1.066,1.066,0,0,1,217.516,317.334Z" transform="translate(-215.88 -317.17)" fill="#767577"/>
        </g>
      </g>
      <g id="그룹_317" data-name="그룹 317" transform="translate(8.52 2.375)">
        <g id="그룹_316" data-name="그룹 316">
          <path id="패스_438" data-name="패스 438" d="M226.676,308.823a1.068,1.068,0,1,1-1.443-.443A1.063,1.063,0,0,1,226.676,308.823Z" transform="translate(-224.664 -308.254)" fill="#767577"/>
        </g>
      </g>
    </g>
  </g>
</svg>
