<svg xmlns="http://www.w3.org/2000/svg" width="45.133" height="48.95" viewBox="0 0 45.133 48.95">
  <g id="심의" transform="translate(-142.028 -274.756)">
    <g id="그룹_237" data-name="그룹 237" transform="translate(144.363 274.801)">
      <g id="그룹_235" data-name="그룹 235" transform="translate(0.982 0.975)">
        <path id="패스_403" data-name="패스 403" d="M146.79,276.22h25.738l.1,8.066,7.871.084v34.849H146.79Z" transform="translate(-146.79 -276.22)" fill="#fff"/>
      </g>
      <g id="그룹_236" data-name="그룹 236" transform="translate(0 0)">
        <path id="패스_404" data-name="패스 404" d="M181.051,319.769H145.38V274.82h27.674l.1,8.08,7.892.084Zm-33.714-1.95h31.77V284.906l-7.864-.084-.1-8.059h-23.8Z" transform="translate(-145.38 -274.82)" fill="#767577"/>
      </g>
    </g>
    <g id="그룹_240" data-name="그룹 240" transform="translate(170.639 274.756)">
      <g id="그룹_238" data-name="그룹 238" transform="translate(0.702 0.679)">
        <line id="선_82" data-name="선 82" x1="7.99" y1="8.15" fill="#fff"/>
      </g>
      <g id="그룹_239" data-name="그룹 239" transform="translate(0 0)">
        <rect id="사각형_172" data-name="사각형 172" width="1.95" height="11.417" transform="matrix(0.714, -0.7, 0.7, 0.714, 0, 1.365)" fill="#767577"/>
      </g>
    </g>
    <g id="그룹_242" data-name="그룹 242" transform="translate(155.048 295.558)">
      <g id="그룹_241" data-name="그룹 241" transform="translate(0 0)">
        <path id="패스_405" data-name="패스 405" d="M168.953,306.71h-7.189a1.045,1.045,0,1,1,0-2.09h7.189a1.045,1.045,0,1,1,0,2.09Z" transform="translate(-160.72 -304.62)" fill="#f2963f"/>
      </g>
    </g>
    <g id="그룹_244" data-name="그룹 244" transform="translate(142.028 276.53)">
      <g id="그룹_243" data-name="그룹 243" transform="translate(0 0)">
        <circle id="타원_34" data-name="타원 34" cx="13.395" cy="13.395" r="13.395" transform="translate(0 18.943) rotate(-45)" fill="#edecea"/>
      </g>
    </g>
    <g id="그룹_247" data-name="그룹 247" transform="translate(148.253 286.625)">
      <g id="그룹_245" data-name="그룹 245" transform="translate(0 0)">
        <circle id="타원_35" data-name="타원 35" cx="12.705" cy="12.705" r="12.705" transform="translate(0 24.88) rotate(-78.264)" fill="#fff"/>
      </g>
      <g id="그룹_246" data-name="그룹 246" transform="translate(1.348 1.348)">
        <path id="패스_406" data-name="패스 406" d="M166.581,321.091a13.681,13.681,0,1,1,13.681-13.681A13.7,13.7,0,0,1,166.581,321.091Zm0-25.4a11.73,11.73,0,1,0,11.73,11.73A11.744,11.744,0,0,0,166.581,295.687Z" transform="translate(-152.9 -293.73)" fill="#767577"/>
      </g>
    </g>
    <g id="그룹_249" data-name="그룹 249" transform="translate(157.472 302.9)">
      <g id="그룹_248" data-name="그룹 248">
        <path id="패스_407" data-name="패스 407" d="M174.579,317.25h-9.334a1.045,1.045,0,1,1,0-2.09h9.334a1.045,1.045,0,1,1,0,2.09Z" transform="translate(-164.2 -315.16)" fill="#ea609e"/>
      </g>
    </g>
    <g id="그룹_251" data-name="그룹 251" transform="translate(157.472 307.469)">
      <g id="그룹_250" data-name="그룹 250">
        <path id="패스_408" data-name="패스 408" d="M174.579,323.81h-9.334a1.045,1.045,0,1,1,0-2.09h9.334a1.045,1.045,0,1,1,0,2.09Z" transform="translate(-164.2 -321.72)" fill="#ea609e"/>
      </g>
    </g>
    <g id="그룹_253" data-name="그룹 253" transform="translate(157.472 293.907)">
      <g id="그룹_252" data-name="그룹 252">
        <path id="패스_409" data-name="패스 409" d="M174.579,304.34h-9.334a1.045,1.045,0,1,1,0-2.09h9.334a1.045,1.045,0,1,1,0,2.09Z" transform="translate(-164.2 -302.25)" fill="#ea609e"/>
      </g>
    </g>
    <g id="그룹_255" data-name="그룹 255" transform="translate(157.716 298.254)">
      <g id="그룹_254" data-name="그룹 254" transform="translate(0 0)">
        <path id="패스_410" data-name="패스 410" d="M169.294,310.58h-3.7a1.045,1.045,0,1,1,0-2.09h3.7a1.045,1.045,0,1,1,0,2.09Z" transform="translate(-164.55 -308.49)" fill="#ea609e"/>
      </g>
    </g>
    <g id="그룹_258" data-name="그룹 258" transform="translate(169.871 306.599)">
      <g id="그룹_256" data-name="그룹 256" transform="translate(1.372 1.379)">
        <path id="패스_411" data-name="패스 411" d="M187.913,322.45l9.822,9.613c1.247,1.226,1.532,2.96.627,3.887l-.669.683c-.906.926-2.647.683-3.9-.543l-9.822-9.613C183.97,326.483,187.724,322.645,187.913,322.45Z" transform="translate(-183.97 -322.45)" fill="#fff"/>
      </g>
      <g id="그룹_257" data-name="그룹 257">
        <path id="패스_412" data-name="패스 412" d="M195.653,337.578a4.589,4.589,0,0,1-3.135-1.386L182,325.9l5.308-5.426,10.525,10.288c1.658,1.623,1.943,3.936.641,5.266l-.669.683A2.965,2.965,0,0,1,195.653,337.578Zm-10.9-11.709,9.125,8.93c.926.9,2.069,1.017,2.522.557l.669-.683c.453-.46.313-1.6-.613-2.508l-9.125-8.93Z" transform="translate(-182 -320.47)" fill="#767577"/>
      </g>
    </g>
  </g>
</svg>
