<svg xmlns="http://www.w3.org/2000/svg" width="42.1" height="49.922" viewBox="0 0 42.1 49.922">
  <g id="승인" transform="translate(-168.349 -313.484)">
    <g id="그룹_261" data-name="그룹 261" transform="translate(180.011 325.078)">
      <g id="그룹_259" data-name="그룹 259" transform="translate(0.9 0.9)">
        <path id="패스_413" data-name="패스 413" d="M216.528,369.44H194.665l-.084-6.853-6.692-.071v-29.6h28.638Z" transform="translate(-187.89 -332.92)" fill="#fff"/>
      </g>
      <g id="그룹_260" data-name="그룹 260" transform="translate(0 0)">
        <path id="패스_414" data-name="패스 414" d="M216.928,369.84h-23.65l-.09-6.859-6.7-.071V331.52h30.438Zm-21.876-1.8h20.069V333.32H188.284v27.809l6.679.071Z" transform="translate(-186.49 -331.52)" fill="#767577"/>
      </g>
    </g>
    <g id="그룹_264" data-name="그룹 264" transform="translate(180.031 355.224)">
      <g id="그룹_262" data-name="그룹 262" transform="translate(0.648 0.64)">
        <line id="선_83" data-name="선 83" x2="6.788" y2="6.917" fill="#fff"/>
      </g>
      <g id="그룹_263" data-name="그룹 263" transform="translate(0 0)">
        <rect id="사각형_173" data-name="사각형 173" width="1.8" height="9.694" transform="matrix(0.714, -0.7, 0.7, 0.714, 0, 1.26)" fill="#767577"/>
      </g>
    </g>
    <g id="그룹_266" data-name="그룹 266" transform="translate(185.867 337.8)">
      <g id="그룹_265" data-name="그룹 265">
        <path id="패스_415" data-name="패스 415" d="M213.362,353.238h-16.8a.964.964,0,0,1,0-1.928h16.8a.964.964,0,1,1,0,1.928Z" transform="translate(-195.6 -351.31)" fill="#ea609e"/>
      </g>
    </g>
    <g id="그룹_268" data-name="그룹 268" transform="translate(185.867 346.742)">
      <g id="그룹_267" data-name="그룹 267">
        <path id="패스_416" data-name="패스 416" d="M213.362,367.149h-16.8a.964.964,0,0,1,0-1.928h16.8a.964.964,0,1,1,0,1.928Z" transform="translate(-195.6 -365.22)" fill="#ea609e"/>
      </g>
    </g>
    <g id="그룹_270" data-name="그룹 270" transform="translate(185.867 342.403)">
      <g id="그룹_269" data-name="그룹 269">
        <path id="패스_417" data-name="패스 417" d="M202.163,360.4h-5.6a.964.964,0,0,1,0-1.929h5.6a.964.964,0,0,1,0,1.929Z" transform="translate(-195.6 -358.47)" fill="#ea609e"/>
      </g>
    </g>
    <g id="그룹_272" data-name="그룹 272" transform="translate(197.29 333.114)">
      <g id="그룹_271" data-name="그룹 271" transform="translate(0)">
        <path id="패스_418" data-name="패스 418" d="M217.381,345.949h-3.047a.964.964,0,1,1,0-1.928h3.047a.964.964,0,1,1,0,1.928Z" transform="translate(-213.37 -344.02)" fill="#ea609e"/>
      </g>
    </g>
    <g id="그룹_274" data-name="그룹 274" transform="translate(195.567 342.416)">
      <g id="그룹_273" data-name="그룹 273">
        <path id="패스_419" data-name="패스 419" d="M218.308,360.418h-6.653a.964.964,0,1,1,0-1.928h6.653a.964.964,0,1,1,0,1.928Z" transform="translate(-210.69 -358.49)" fill="#ea609e"/>
      </g>
    </g>
    <g id="그룹_276" data-name="그룹 276" transform="translate(192.43 351.525)">
      <g id="그룹_275" data-name="그룹 275">
        <path id="패스_420" data-name="패스 420" d="M216.751,374.589h-9.977a.964.964,0,0,1,0-1.929h9.977a.964.964,0,0,1,0,1.929Z" transform="translate(-205.81 -372.66)" fill="#ea609e"/>
      </g>
    </g>
    <g id="그룹_279" data-name="그룹 279" transform="translate(168.349 313.484)">
      <g id="그룹_277" data-name="그룹 277" transform="translate(0 0)">
        <circle id="타원_36" data-name="타원 36" cx="9.34" cy="9.34" r="9.34" transform="translate(0 13.209) rotate(-45)" fill="#fff"/>
      </g>
      <g id="그룹_278" data-name="그룹 278" transform="translate(3.067 3.064)">
        <path id="패스_421" data-name="패스 421" d="M183.264,338.538a10.144,10.144,0,1,1,10.144-10.144A10.156,10.156,0,0,1,183.264,338.538Zm0-18.681a8.537,8.537,0,1,0,8.537,8.537A8.549,8.549,0,0,0,183.264,319.857Z" transform="translate(-173.12 -318.25)" fill="#767577"/>
      </g>
    </g>
    <g id="그룹_281" data-name="그룹 281" transform="translate(172.367 317.503)">
      <g id="그룹_280" data-name="그룹 280" transform="translate(0 0)">
        <circle id="타원_37" data-name="타원 37" cx="6.499" cy="6.499" r="6.499" transform="translate(0 9.191) rotate(-45)" fill="#edecea"/>
      </g>
    </g>
    <g id="그룹_283" data-name="그룹 283" transform="translate(176.745 322.348)">
      <g id="그룹_282" data-name="그룹 282" transform="translate(0)">
        <path id="패스_422" data-name="패스 422" d="M185.119,336.483l-3.529-4.911a.963.963,0,0,1,1.562-1.125l1.954,2.726,3.928-5.5a.963.963,0,1,1,1.569,1.119Z" transform="translate(-181.409 -327.273)" fill="#ea609e"/>
      </g>
    </g>
  </g>
</svg>
