<svg xmlns="http://www.w3.org/2000/svg" width="44.595" height="47.3" viewBox="0 0 44.595 47.3">
  <g id="신청" transform="translate(-200.776 -294.73)">
    <g id="그룹_231" data-name="그룹 231" transform="translate(200.776 302.149)">
      <path id="패스_398" data-name="패스 398" d="M203.7,309.671l3.221-3.221a2.253,2.253,0,0,1,3.182,0l6.69,6.69a1.04,1.04,0,0,1,0,1.467l-3.865,3.865a.639.639,0,0,0-.155.636c.559,1.7,3.43,8.894,13.247,13.728a.627.627,0,0,0,.714-.116l4.338-4.338a1.04,1.04,0,0,1,1.467,0l7.3,7.3a1.04,1.04,0,0,1,0,1.467l-4.78,4.78a4.824,4.824,0,0,1-4.369,1.327c-7.155-1.451-26.618-7.435-28.4-29.792A4.83,4.83,0,0,1,203.7,309.671Z" transform="translate(-201.111 -304.626)" fill="#fff"/>
      <path id="패스_399" data-name="패스 399" d="M231.316,344.171a6.155,6.155,0,0,1-1.187-.116c-6.41-1.3-27.464-7.357-29.335-30.84a5.973,5.973,0,0,1,1.746-4.7l3.221-3.221a3.41,3.41,0,0,1,4.827,0l6.69,6.69a2.183,2.183,0,0,1,.644,1.56,2.215,2.215,0,0,1-.644,1.56l-3.624,3.624c.691,1.878,3.554,8.172,12.2,12.556l4.066-4.059a2.184,2.184,0,0,1,1.552-.644h.008a2.211,2.211,0,0,1,1.552.644l7.3,7.3a2.2,2.2,0,0,1,0,3.112l-4.78,4.78A6.02,6.02,0,0,1,231.316,344.171Zm-27.131-34.014a3.647,3.647,0,0,0-1.071,2.871c.567,7.085,4.377,24.065,27.48,28.745a3.634,3.634,0,0,0,3.314-1.009l4.687-4.687-7.124-7.124-4.245,4.245a1.786,1.786,0,0,1-2.049.341c-10.081-4.959-13.146-12.285-13.837-14.411a1.771,1.771,0,0,1,.435-1.816l3.772-3.779-6.6-6.6a1.111,1.111,0,0,0-1.537,0Z" transform="translate(-200.776 -304.29)" fill="#767575"/>
    </g>
    <g id="그룹_232" data-name="그룹 232" transform="translate(222.656 302.576)">
      <path id="패스_400" data-name="패스 400" d="M242.683,319.709a1.163,1.163,0,0,1-1.164-1.164,11.39,11.39,0,0,0-11.385-11.377,1.164,1.164,0,0,1,0-2.328,13.725,13.725,0,0,1,13.713,13.705A1.163,1.163,0,0,1,242.683,319.709Z" transform="translate(-228.97 -304.84)" fill="#ea609e"/>
    </g>
    <g id="그룹_233" data-name="그룹 233" transform="translate(222.656 310.414)">
      <path id="패스_401" data-name="패스 401" d="M234.837,321.971a1.163,1.163,0,0,1-1.164-1.164,3.542,3.542,0,0,0-3.539-3.539,1.164,1.164,0,0,1,0-2.328A5.872,5.872,0,0,1,236,320.807,1.163,1.163,0,0,1,234.837,321.971Z" transform="translate(-228.97 -314.94)" fill="#ea609e"/>
    </g>
    <g id="그룹_234" data-name="그룹 234" transform="translate(222.656 294.73)">
      <path id="패스_402" data-name="패스 402" d="M250.521,317.445a1.163,1.163,0,0,1-1.164-1.164,19.243,19.243,0,0,0-19.223-19.223,1.164,1.164,0,0,1,0-2.328,21.578,21.578,0,0,1,21.551,21.551A1.162,1.162,0,0,1,250.521,317.445Z" transform="translate(-228.97 -294.73)" fill="#ea609e"/>
    </g>
  </g>
</svg>
