<svg xmlns="http://www.w3.org/2000/svg" xmlns:xlink="http://www.w3.org/1999/xlink" width="160.359" height="132.833" viewBox="0 0 160.359 132.833">
  <defs>
    <clipPath id="clip-path">
      <rect id="사각형_346" data-name="사각형 346" width="5.447" height="5.944"/>
    </clipPath>
  </defs>
  <g id="jeju" transform="translate(-780.202 -548.561)">
    <path id="패스_1045" data-name="패스 1045" d="M1004.56,548.77h-38.9l-12.1,7.33h38.909Z" transform="translate(-89.65)" fill="#e7f2e4"/>
    <path id="패스_1046" data-name="패스 1046" d="M1004.56,548.77h-38.9l-12.1,7.33h38.909Z" transform="translate(-89.65)" fill="none" stroke="#20475d" stroke-linecap="round" stroke-linejoin="round" stroke-miterlimit="10" stroke-width="0.418"/>
    <rect id="사각형_283" data-name="사각형 283" width="38.933" height="83.39" transform="translate(863.915 556.1)" fill="#e7f2e4"/>
    <rect id="사각형_284" data-name="사각형 284" width="38.933" height="83.39" transform="translate(863.915 556.1)" stroke-width="0.418" stroke="#20475d" stroke-linecap="round" stroke-linejoin="round" stroke-miterlimit="10" fill="none"/>
    <path id="패스_1047" data-name="패스 1047" d="M1033.95,639.64l12.183-7.19V549.06l-12.183,7.19Z" transform="translate(-131.223 -0.15)" fill="#e7f2e4"/>
    <path id="패스_1048" data-name="패스 1048" d="M1033.95,639.64l12.183-7.19V549.06l-12.183,7.19Z" transform="translate(-131.223 -0.15)" fill="none" stroke="#20475d" stroke-linecap="round" stroke-linejoin="round" stroke-miterlimit="10" stroke-width="0.418"/>
    <line id="선_122" data-name="선 122" x1="6.152" y2="3.592" transform="translate(902.727 560.605)" fill="none" stroke="#20475d" stroke-linecap="round" stroke-linejoin="round" stroke-miterlimit="10" stroke-width="0.418"/>
    <line id="선_123" data-name="선 123" x1="6.152" y2="3.597" transform="translate(902.727 567.293)" fill="none" stroke="#20475d" stroke-linecap="round" stroke-linejoin="round" stroke-miterlimit="10" stroke-width="0.418"/>
    <line id="선_124" data-name="선 124" x1="6.152" y2="3.592" transform="translate(902.727 573.985)" fill="none" stroke="#20475d" stroke-linecap="round" stroke-linejoin="round" stroke-miterlimit="10" stroke-width="0.418"/>
    <line id="선_125" data-name="선 125" x1="6.152" y2="3.592" transform="translate(902.727 580.673)" fill="none" stroke="#20475d" stroke-linecap="round" stroke-linejoin="round" stroke-miterlimit="10" stroke-width="0.418"/>
    <line id="선_126" data-name="선 126" x1="6.152" y2="3.597" transform="translate(902.727 587.36)" fill="none" stroke="#20475d" stroke-linecap="round" stroke-linejoin="round" stroke-miterlimit="10" stroke-width="0.418"/>
    <line id="선_127" data-name="선 127" x1="6.152" y2="3.597" transform="translate(902.727 594.048)" fill="none" stroke="#20475d" stroke-linecap="round" stroke-linejoin="round" stroke-miterlimit="10" stroke-width="0.418"/>
    <line id="선_128" data-name="선 128" x1="6.152" y2="3.592" transform="translate(902.727 600.74)" fill="none" stroke="#20475d" stroke-linecap="round" stroke-linejoin="round" stroke-miterlimit="10" stroke-width="0.418"/>
    <line id="선_129" data-name="선 129" x1="6.152" y2="3.592" transform="translate(902.727 607.428)" fill="none" stroke="#20475d" stroke-linecap="round" stroke-linejoin="round" stroke-miterlimit="10" stroke-width="0.418"/>
    <line id="선_130" data-name="선 130" x1="6.152" y2="3.597" transform="translate(902.727 614.116)" fill="none" stroke="#20475d" stroke-linecap="round" stroke-linejoin="round" stroke-miterlimit="10" stroke-width="0.418"/>
    <line id="선_131" data-name="선 131" x1="6.152" y2="3.592" transform="translate(902.727 620.808)" fill="none" stroke="#20475d" stroke-linecap="round" stroke-linejoin="round" stroke-miterlimit="10" stroke-width="0.418"/>
    <line id="선_132" data-name="선 132" x1="6.152" y2="3.592" transform="translate(902.727 627.496)" fill="none" stroke="#20475d" stroke-linecap="round" stroke-linejoin="round" stroke-miterlimit="10" stroke-width="0.418"/>
    <rect id="사각형_285" data-name="사각형 285" width="7.059" height="15.495" transform="translate(868.825 564.12)" fill="#fff"/>
    <rect id="사각형_286" data-name="사각형 286" width="7.059" height="15.495" transform="translate(868.825 564.12)" stroke-width="0.418" stroke="#20475d" stroke-linecap="round" stroke-linejoin="round" stroke-miterlimit="10" fill="none"/>
    <rect id="사각형_287" data-name="사각형 287" width="7.059" height="15.495" transform="translate(879.849 564.12)" fill="#fff"/>
    <rect id="사각형_288" data-name="사각형 288" width="7.059" height="15.495" transform="translate(879.849 564.12)" stroke-width="0.418" stroke="#20475d" stroke-linecap="round" stroke-linejoin="round" stroke-miterlimit="10" fill="none"/>
    <rect id="사각형_289" data-name="사각형 289" width="7.059" height="15.495" transform="translate(890.873 564.12)" fill="#fff"/>
    <rect id="사각형_290" data-name="사각형 290" width="7.059" height="15.495" transform="translate(890.873 564.12)" stroke-width="0.418" stroke="#20475d" stroke-linecap="round" stroke-linejoin="round" stroke-miterlimit="10" fill="none"/>
    <rect id="사각형_291" data-name="사각형 291" width="7.059" height="15.495" transform="translate(868.825 586.453)" fill="#fff"/>
    <rect id="사각형_292" data-name="사각형 292" width="7.059" height="15.495" transform="translate(868.825 586.453)" stroke-width="0.418" stroke="#20475d" stroke-linecap="round" stroke-linejoin="round" stroke-miterlimit="10" fill="none"/>
    <rect id="사각형_293" data-name="사각형 293" width="7.059" height="15.495" transform="translate(879.849 586.453)" fill="#fff"/>
    <rect id="사각형_294" data-name="사각형 294" width="7.059" height="15.495" transform="translate(879.849 586.453)" stroke-width="0.418" stroke="#20475d" stroke-linecap="round" stroke-linejoin="round" stroke-miterlimit="10" fill="none"/>
    <rect id="사각형_295" data-name="사각형 295" width="7.059" height="15.495" transform="translate(890.873 586.453)" fill="#fff"/>
    <rect id="사각형_296" data-name="사각형 296" width="7.059" height="15.495" transform="translate(890.873 586.453)" stroke-width="0.418" stroke="#20475d" stroke-linecap="round" stroke-linejoin="round" stroke-miterlimit="10" fill="none"/>
    <rect id="사각형_297" data-name="사각형 297" width="7.059" height="15.495" transform="translate(868.825 608.78)" fill="#fff"/>
    <rect id="사각형_298" data-name="사각형 298" width="7.059" height="15.495" transform="translate(868.825 608.78)" stroke-width="0.418" stroke="#20475d" stroke-linecap="round" stroke-linejoin="round" stroke-miterlimit="10" fill="none"/>
    <rect id="사각형_299" data-name="사각형 299" width="7.059" height="15.495" transform="translate(879.849 608.78)" fill="#fff"/>
    <rect id="사각형_300" data-name="사각형 300" width="7.059" height="15.495" transform="translate(879.849 608.78)" stroke-width="0.418" stroke="#20475d" stroke-linecap="round" stroke-linejoin="round" stroke-miterlimit="10" fill="none"/>
    <rect id="사각형_301" data-name="사각형 301" width="7.059" height="15.495" transform="translate(890.873 608.78)" fill="#fff"/>
    <rect id="사각형_302" data-name="사각형 302" width="7.059" height="15.495" transform="translate(890.873 608.78)" stroke-width="0.418" stroke="#20475d" stroke-linecap="round" stroke-linejoin="round" stroke-miterlimit="10" fill="none"/>
    <rect id="사각형_303" data-name="사각형 303" width="38.933" height="83.39" transform="translate(850.168 597.795)" fill="#ebeae9"/>
    <rect id="사각형_304" data-name="사각형 304" width="38.933" height="83.39" transform="translate(850.168 597.795)" stroke-width="0.418" stroke="#20475d" stroke-linecap="round" stroke-linejoin="round" stroke-miterlimit="10" fill="none"/>
    <path id="패스_1049" data-name="패스 1049" d="M1005.48,725.99l12.182-7.19V635.41l-12.182,7.19Z" transform="translate(-116.5 -44.805)" fill="#ebeae9"/>
    <path id="패스_1050" data-name="패스 1050" d="M1005.48,725.99l12.182-7.19V635.41l-12.182,7.19Z" transform="translate(-116.5 -44.805)" fill="none" stroke="#20475d" stroke-linecap="round" stroke-linejoin="round" stroke-miterlimit="10" stroke-width="0.418"/>
    <line id="선_133" data-name="선 133" x1="6.152" y2="3.597" transform="translate(888.98 602.3)" fill="none" stroke="#20475d" stroke-linecap="round" stroke-linejoin="round" stroke-miterlimit="10" stroke-width="0.418"/>
    <line id="선_134" data-name="선 134" x1="6.152" y2="3.597" transform="translate(888.98 608.988)" fill="none" stroke="#20475d" stroke-linecap="round" stroke-linejoin="round" stroke-miterlimit="10" stroke-width="0.418"/>
    <line id="선_135" data-name="선 135" x1="6.152" y2="3.597" transform="translate(888.98 615.675)" fill="none" stroke="#20475d" stroke-linecap="round" stroke-linejoin="round" stroke-miterlimit="10" stroke-width="0.418"/>
    <line id="선_136" data-name="선 136" x1="6.152" y2="3.592" transform="translate(888.98 622.368)" fill="none" stroke="#20475d" stroke-linecap="round" stroke-linejoin="round" stroke-miterlimit="10" stroke-width="0.418"/>
    <line id="선_137" data-name="선 137" x1="6.152" y2="3.597" transform="translate(888.98 629.055)" fill="none" stroke="#20475d" stroke-linecap="round" stroke-linejoin="round" stroke-miterlimit="10" stroke-width="0.418"/>
    <line id="선_138" data-name="선 138" x1="6.152" y2="3.597" transform="translate(888.98 635.743)" fill="none" stroke="#20475d" stroke-linecap="round" stroke-linejoin="round" stroke-miterlimit="10" stroke-width="0.418"/>
    <line id="선_139" data-name="선 139" x1="6.152" y2="3.592" transform="translate(888.98 642.436)" fill="none" stroke="#20475d" stroke-linecap="round" stroke-linejoin="round" stroke-miterlimit="10" stroke-width="0.418"/>
    <line id="선_140" data-name="선 140" x1="6.152" y2="3.597" transform="translate(888.98 649.123)" fill="none" stroke="#20475d" stroke-linecap="round" stroke-linejoin="round" stroke-miterlimit="10" stroke-width="0.418"/>
    <line id="선_141" data-name="선 141" x1="6.152" y2="3.597" transform="translate(888.98 655.811)" fill="none" stroke="#20475d" stroke-linecap="round" stroke-linejoin="round" stroke-miterlimit="10" stroke-width="0.418"/>
    <line id="선_142" data-name="선 142" x1="6.152" y2="3.597" transform="translate(888.98 662.498)" fill="none" stroke="#20475d" stroke-linecap="round" stroke-linejoin="round" stroke-miterlimit="10" stroke-width="0.418"/>
    <line id="선_143" data-name="선 143" x1="6.152" y2="3.592" transform="translate(888.98 669.191)" fill="none" stroke="#20475d" stroke-linecap="round" stroke-linejoin="round" stroke-miterlimit="10" stroke-width="0.418"/>
    <path id="패스_1051" data-name="패스 1051" d="M976.09,635.12h-38.9l-12.1,7.33H964Z" transform="translate(-74.927 -44.655)" fill="#ebeae9"/>
    <path id="패스_1052" data-name="패스 1052" d="M976.09,635.12h-38.9l-12.1,7.33H964Z" transform="translate(-74.927 -44.655)" fill="none" stroke="#20475d" stroke-linecap="round" stroke-linejoin="round" stroke-miterlimit="10" stroke-width="0.418"/>
    <rect id="사각형_305" data-name="사각형 305" width="7.059" height="15.495" transform="translate(855.078 605.815)" fill="#fff"/>
    <rect id="사각형_306" data-name="사각형 306" width="7.059" height="15.495" transform="translate(855.078 605.815)" stroke-width="0.418" stroke="#20475d" stroke-linecap="round" stroke-linejoin="round" stroke-miterlimit="10" fill="none"/>
    <rect id="사각형_307" data-name="사각형 307" width="7.059" height="15.495" transform="translate(866.102 605.815)" fill="#fff"/>
    <rect id="사각형_308" data-name="사각형 308" width="7.059" height="15.495" transform="translate(866.102 605.815)" stroke-width="0.418" stroke="#20475d" stroke-linecap="round" stroke-linejoin="round" stroke-miterlimit="10" fill="none"/>
    <rect id="사각형_309" data-name="사각형 309" width="7.059" height="15.495" transform="translate(877.126 605.815)" fill="#fff"/>
    <rect id="사각형_310" data-name="사각형 310" width="7.059" height="15.495" transform="translate(877.126 605.815)" stroke-width="0.418" stroke="#20475d" stroke-linecap="round" stroke-linejoin="round" stroke-miterlimit="10" fill="none"/>
    <rect id="사각형_311" data-name="사각형 311" width="7.059" height="15.495" transform="translate(855.078 628.148)" fill="#fff"/>
    <rect id="사각형_312" data-name="사각형 312" width="7.059" height="15.495" transform="translate(855.078 628.148)" stroke-width="0.418" stroke="#20475d" stroke-linecap="round" stroke-linejoin="round" stroke-miterlimit="10" fill="none"/>
    <rect id="사각형_313" data-name="사각형 313" width="7.059" height="15.495" transform="translate(866.102 628.148)" fill="#fff"/>
    <rect id="사각형_314" data-name="사각형 314" width="7.059" height="15.495" transform="translate(866.102 628.148)" stroke-width="0.418" stroke="#20475d" stroke-linecap="round" stroke-linejoin="round" stroke-miterlimit="10" fill="none"/>
    <rect id="사각형_315" data-name="사각형 315" width="7.059" height="15.495" transform="translate(877.126 628.148)" fill="#fff"/>
    <rect id="사각형_316" data-name="사각형 316" width="7.059" height="15.495" transform="translate(877.126 628.148)" stroke-width="0.418" stroke="#20475d" stroke-linecap="round" stroke-linejoin="round" stroke-miterlimit="10" fill="none"/>
    <rect id="사각형_317" data-name="사각형 317" width="7.059" height="15.495" transform="translate(855.078 650.475)" fill="#fff"/>
    <rect id="사각형_318" data-name="사각형 318" width="7.059" height="15.495" transform="translate(855.078 650.475)" stroke-width="0.418" stroke="#20475d" stroke-linecap="round" stroke-linejoin="round" stroke-miterlimit="10" fill="none"/>
    <rect id="사각형_319" data-name="사각형 319" width="7.059" height="15.495" transform="translate(866.102 650.475)" fill="#fff"/>
    <rect id="사각형_320" data-name="사각형 320" width="7.059" height="15.495" transform="translate(866.102 650.475)" stroke-width="0.418" stroke="#20475d" stroke-linecap="round" stroke-linejoin="round" stroke-miterlimit="10" fill="none"/>
    <rect id="사각형_321" data-name="사각형 321" width="7.059" height="15.495" transform="translate(877.126 650.475)" fill="#fff"/>
    <rect id="사각형_322" data-name="사각형 322" width="7.059" height="15.495" transform="translate(877.126 650.475)" stroke-width="0.418" stroke="#20475d" stroke-linecap="round" stroke-linejoin="round" stroke-miterlimit="10" fill="none"/>
    <rect id="사각형_323" data-name="사각형 323" width="38.933" height="83.39" transform="translate(889.352 597.718)" fill="#e9f3f5"/>
    <rect id="사각형_324" data-name="사각형 324" width="38.933" height="83.39" transform="translate(889.352 597.718)" stroke-width="0.418" stroke="#20475d" stroke-linecap="round" stroke-linejoin="round" stroke-miterlimit="10" fill="none"/>
    <path id="패스_1053" data-name="패스 1053" d="M1086.64,725.825l12.183-7.19V635.25l-12.183,7.19Z" transform="translate(-158.471 -44.722)" fill="#e9f3f5"/>
    <path id="패스_1054" data-name="패스 1054" d="M1086.64,725.825l12.183-7.19V635.25l-12.183,7.19Z" transform="translate(-158.471 -44.722)" fill="none" stroke="#20475d" stroke-linecap="round" stroke-linejoin="round" stroke-miterlimit="10" stroke-width="0.418"/>
    <line id="선_144" data-name="선 144" x1="6.152" y2="3.597" transform="translate(928.169 602.218)" fill="none" stroke="#20475d" stroke-linecap="round" stroke-linejoin="round" stroke-miterlimit="10" stroke-width="0.418"/>
    <line id="선_145" data-name="선 145" x1="6.152" y2="3.592" transform="translate(928.169 608.91)" fill="none" stroke="#20475d" stroke-linecap="round" stroke-linejoin="round" stroke-miterlimit="10" stroke-width="0.418"/>
    <line id="선_146" data-name="선 146" x1="6.152" y2="3.592" transform="translate(928.169 615.598)" fill="none" stroke="#20475d" stroke-linecap="round" stroke-linejoin="round" stroke-miterlimit="10" stroke-width="0.418"/>
    <line id="선_147" data-name="선 147" x1="6.152" y2="3.597" transform="translate(928.169 622.286)" fill="none" stroke="#20475d" stroke-linecap="round" stroke-linejoin="round" stroke-miterlimit="10" stroke-width="0.418"/>
    <line id="선_148" data-name="선 148" x1="6.152" y2="3.597" transform="translate(928.169 628.973)" fill="none" stroke="#20475d" stroke-linecap="round" stroke-linejoin="round" stroke-miterlimit="10" stroke-width="0.418"/>
    <line id="선_149" data-name="선 149" x1="6.152" y2="3.592" transform="translate(928.169 635.666)" fill="none" stroke="#20475d" stroke-linecap="round" stroke-linejoin="round" stroke-miterlimit="10" stroke-width="0.418"/>
    <line id="선_150" data-name="선 150" x1="6.152" y2="3.597" transform="translate(928.169 642.353)" fill="none" stroke="#20475d" stroke-linecap="round" stroke-linejoin="round" stroke-miterlimit="10" stroke-width="0.418"/>
    <line id="선_151" data-name="선 151" x1="6.152" y2="3.597" transform="translate(928.169 649.041)" fill="none" stroke="#20475d" stroke-linecap="round" stroke-linejoin="round" stroke-miterlimit="10" stroke-width="0.418"/>
    <line id="선_152" data-name="선 152" x1="6.152" y2="3.592" transform="translate(928.169 655.734)" fill="none" stroke="#20475d" stroke-linecap="round" stroke-linejoin="round" stroke-miterlimit="10" stroke-width="0.418"/>
    <line id="선_153" data-name="선 153" x1="6.152" y2="3.592" transform="translate(928.169 662.421)" fill="none" stroke="#20475d" stroke-linecap="round" stroke-linejoin="round" stroke-miterlimit="10" stroke-width="0.418"/>
    <line id="선_154" data-name="선 154" x1="6.152" y2="3.597" transform="translate(928.169 669.109)" fill="none" stroke="#20475d" stroke-linecap="round" stroke-linejoin="round" stroke-miterlimit="10" stroke-width="0.418"/>
    <path id="패스_1055" data-name="패스 1055" d="M1057.25,634.95h-38.9l-12.1,7.335h38.9Z" transform="translate(-116.898 -44.567)" fill="#e9f3f5"/>
    <path id="패스_1056" data-name="패스 1056" d="M1057.25,634.95h-38.9l-12.1,7.335h38.9Z" transform="translate(-116.898 -44.567)" fill="none" stroke="#20475d" stroke-linecap="round" stroke-linejoin="round" stroke-miterlimit="10" stroke-width="0.418"/>
    <rect id="사각형_325" data-name="사각형 325" width="7.059" height="15.495" transform="translate(894.267 605.738)" fill="#fff"/>
    <rect id="사각형_326" data-name="사각형 326" width="7.059" height="15.495" transform="translate(894.267 605.738)" stroke-width="0.418" stroke="#20475d" stroke-linecap="round" stroke-linejoin="round" stroke-miterlimit="10" fill="none"/>
    <rect id="사각형_327" data-name="사각형 327" width="7.059" height="15.495" transform="translate(905.291 605.738)" fill="#fff"/>
    <rect id="사각형_328" data-name="사각형 328" width="7.059" height="15.495" transform="translate(905.291 605.738)" stroke-width="0.418" stroke="#20475d" stroke-linecap="round" stroke-linejoin="round" stroke-miterlimit="10" fill="none"/>
    <rect id="사각형_329" data-name="사각형 329" width="7.059" height="15.495" transform="translate(916.315 605.738)" fill="#fff"/>
    <rect id="사각형_330" data-name="사각형 330" width="7.059" height="15.495" transform="translate(916.315 605.738)" stroke-width="0.418" stroke="#20475d" stroke-linecap="round" stroke-linejoin="round" stroke-miterlimit="10" fill="none"/>
    <rect id="사각형_331" data-name="사각형 331" width="7.059" height="15.495" transform="translate(894.267 628.066)" fill="#fff"/>
    <rect id="사각형_332" data-name="사각형 332" width="7.059" height="15.495" transform="translate(894.267 628.066)" stroke-width="0.418" stroke="#20475d" stroke-linecap="round" stroke-linejoin="round" stroke-miterlimit="10" fill="none"/>
    <rect id="사각형_333" data-name="사각형 333" width="7.059" height="15.495" transform="translate(905.291 628.066)" fill="#fff"/>
    <rect id="사각형_334" data-name="사각형 334" width="7.059" height="15.495" transform="translate(905.291 628.066)" stroke-width="0.418" stroke="#20475d" stroke-linecap="round" stroke-linejoin="round" stroke-miterlimit="10" fill="none"/>
    <rect id="사각형_335" data-name="사각형 335" width="7.059" height="15.495" transform="translate(916.315 628.066)" fill="#fff"/>
    <rect id="사각형_336" data-name="사각형 336" width="7.059" height="15.495" transform="translate(916.315 628.066)" stroke-width="0.418" stroke="#20475d" stroke-linecap="round" stroke-linejoin="round" stroke-miterlimit="10" fill="none"/>
    <rect id="사각형_337" data-name="사각형 337" width="7.059" height="15.495" transform="translate(894.267 650.398)" fill="#fff"/>
    <rect id="사각형_338" data-name="사각형 338" width="7.059" height="15.495" transform="translate(894.267 650.398)" stroke-width="0.418" stroke="#20475d" stroke-linecap="round" stroke-linejoin="round" stroke-miterlimit="10" fill="none"/>
    <rect id="사각형_339" data-name="사각형 339" width="7.059" height="15.495" transform="translate(905.291 650.398)" fill="#fff"/>
    <rect id="사각형_340" data-name="사각형 340" width="7.059" height="15.495" transform="translate(905.291 650.398)" stroke-width="0.418" stroke="#20475d" stroke-linecap="round" stroke-linejoin="round" stroke-miterlimit="10" fill="none"/>
    <rect id="사각형_341" data-name="사각형 341" width="7.059" height="15.495" transform="translate(916.315 650.398)" fill="#fff"/>
    <rect id="사각형_342" data-name="사각형 342" width="7.059" height="15.495" transform="translate(916.315 650.398)" stroke-width="0.418" stroke="#20475d" stroke-linecap="round" stroke-linejoin="round" stroke-miterlimit="10" fill="none"/>
    <path id="패스_1057" data-name="패스 1057" d="M966.836,652.552a.724.724,0,0,1-.126-.439c.135-2.158.633-3.858.777-6.012.087-1.3.961-3.95.106-4.838a16.632,16.632,0,0,0-4.515-3.887l-.391-.1c-2.448-.338-7.933,1.038-7.475,1.975a4.858,4.858,0,0,0,.816,1.13c-.111.077-.043.029-.126.111-.748.753-1.149.917.666,2.849a3.657,3.657,0,0,0-1.531,2.429c.043,1.531,3.3,6.8,5.041,7.17l.666,6.731a7.1,7.1,0,0,0,7.277-.729c-.618-3.655-.806-5.722-1.188-6.388" transform="translate(-90.415 -45.742)" fill="#f7d6c4"/>
    <path id="패스_1058" data-name="패스 1058" d="M962.448,648.9c1.024-.14,2.482-.628,2.588-1.579.164-1.458-2.54-1.449-3.283-.937-.362.246,0,.84.338.584.816-.608,2.912-.439,1.787.647a4.807,4.807,0,0,1-.792.507,3.041,3.041,0,0,1-.956.512c-1.188.217-1.931-1.106-2.125-2.076-.507-2.569,2.395-3.124,4.08-4.225a.2.2,0,0,0-.154-.362c-1.4.266-4.191,1.656-4.713,3.1a3.04,3.04,0,0,0,.261,2.014,6.394,6.394,0,0,0,.285,1.173c.169.43.758,1.265.7,1.714-.14,1.231-1.82.734-2.313.213a2.071,2.071,0,0,1-.386-1.883c.039-.3-.4-.309-.5-.068a2.5,2.5,0,0,0,2.878,3.148,1.45,1.45,0,0,0,.966-1.9,5.5,5.5,0,0,0-.338-.7,2.933,2.933,0,0,0,1.072.174h.068a5.17,5.17,0,0,0-.787,2.511,3.857,3.857,0,0,0,.913,2.926.454.454,0,0,0,.71-.546c-.2-.473-.57-.777-.739-1.275a4.554,4.554,0,0,1-.2-1.106,3.806,3.806,0,0,1,.613-2.511Z" transform="translate(-91.503 -48.198)" fill="#f1c1a8"/>
    <path id="패스_1059" data-name="패스 1059" d="M959.349,645.157c-.372-.613-.686-1.072-.164-1.864a2.665,2.665,0,0,1,.449-.454,5.19,5.19,0,0,1,1.178-.816,13.257,13.257,0,0,1,2.994-1.067c.212-.048.121-.362-.087-.328-1.743.29-7.267,2.091-4.65,4.747a.179.179,0,0,0,.28-.217" transform="translate(-92.141 -47.502)" fill="#f1c1a8"/>
    <path id="패스_1060" data-name="패스 1060" d="M886.065,573.492c-1.217-6.461-5.852-12.342-12.448-13.655a17.2,17.2,0,0,0-9.826.729,9.216,9.216,0,0,0-3.226,1.931c-3.216.338-6.408,3.23-8.015,5.838-1.733,2.8-2.323,6.495-2.6,9.71a19.253,19.253,0,0,0,2.3,10.449,34.9,34.9,0,0,0,3.892,6.417s9.15-1.386,13.849-.686a44.255,44.255,0,0,1,9.039,2.738c1.68.623,3.535.84,5.176,1.473a36.681,36.681,0,0,0,.869-3.675,38.707,38.707,0,0,0,1.313-7.146c.309-4.616.541-9.556-.323-14.124" transform="translate(-36.038 -5.519)" fill="#7b6464"/>
    <path id="패스_1061" data-name="패스 1061" d="M879.94,663.852c.415,6.6-10.9,15.355-16.915,17.562-5.326,1.956-10.478-.42-14.312-4.211-2.95-2.921-7.644-9.059-7.735-13.486-.1-5.012,4.225-5.422,7.653-7.8a14.487,14.487,0,0,0,6-7.711,18.4,18.4,0,0,0,.526-3.882,18.843,18.843,0,0,0,4.94,4.669c2.385,1.405,6.5,2.892,10.01,2.409a29.839,29.839,0,0,0,1.8,3.438c1.907,2.859,8.035,9.015,8.035,9.015" transform="translate(-31.429 -49.413)" fill="#efbba8"/>
    <path id="패스_1062" data-name="패스 1062" d="M885.768,619.365c-2.255,7.093-2.545,7.33-2.593,10.01a20.518,20.518,0,0,0,1.1,7.687,17.722,17.722,0,0,1-10.179-2.023,14.329,14.329,0,0,1-4.771-5.06,48.324,48.324,0,0,0-.942-9.266,13.755,13.755,0,0,1,7.61-3.9,11.474,11.474,0,0,1,9.778,2.549" transform="translate(-45.6 -35.076)" fill="#f1c1a8"/>
    <path id="패스_1063" data-name="패스 1063" d="M884.861,616.533a3.06,3.06,0,0,1,.343,1.12,11.467,11.467,0,0,0-9.783-2.545,13.71,13.71,0,0,0-7.605,3.9c-.212-1.3-.41-2.588-.536-3.829,1.487-1.661,6.354-2.042,8.667-1.84,2.54.227,7.658.893,8.914,3.2" transform="translate(-45.032 -33.364)" fill="#f7d5c1"/>
    <path id="패스_1064" data-name="패스 1064" d="M885.048,596.314s-11.019-1.212-15.877-6.272c-3.94-4.1-4.862-6.142-4.862-6.142a24.45,24.45,0,0,0-4.336,4.568,12.162,12.162,0,0,0-2.144,6.041c-1.748-1.569-4.66-.971-4.679,1.738-.015,2.241,2.617,7.562,4.587,5.369a17.644,17.644,0,0,0,1.082,3.588c1.391,3.216,3.694,4.481,7.571,5.886,4.283,1.555,9.358-.323,12.381-4.143a7.578,7.578,0,0,0,1.521-3.327c2.144,1.41,3.679-1.555,4.365-3.245.551-1.371.995-2.989.391-4.061" transform="translate(-37.724 -18.167)" fill="#f7d6c4"/>
    <path id="패스_1065" data-name="패스 1065" d="M876.844,600.812a15.994,15.994,0,0,0-3.626-.082,3.233,3.233,0,0,0-2.984,1.521c-.106.164.159.415.328.256,1.246-1.144,2.371-1.1,3.945-.995a11.877,11.877,0,0,0,2.192.111,5.1,5.1,0,0,0,.145-.811" transform="translate(-46.547 -26.837)" fill="#7b6464"/>
    <path id="패스_1066" data-name="패스 1066" d="M901.163,604.181a2.3,2.3,0,0,0-2.255-1.729,15.336,15.336,0,0,0-4.278-.285c.058.27.116.541.169.816a13.662,13.662,0,0,0,2.352.082c.584.019,1.169.039,1.748.111a2.785,2.785,0,0,1,1.9,1.207.218.218,0,0,0,.367-.2" transform="translate(-59.175 -27.574)" fill="#7b6464"/>
    <path id="패스_1067" data-name="패스 1067" d="M898.237,608.827a.63.63,0,0,0-.985-.126,1.652,1.652,0,0,0-.328.831,1.757,1.757,0,0,0,0,.71.647.647,0,0,0,.628.613c.946.024.99-1.424.681-2.028" transform="translate(-60.344 -30.897)" fill="#333740"/>
    <path id="패스_1068" data-name="패스 1068" d="M877.764,608.377a1.383,1.383,0,0,0-.348-.995.637.637,0,0,0-.985.126,1.676,1.676,0,0,0,.121,1.835.627.627,0,0,0,.913-.039,1.255,1.255,0,0,0,.3-.927" transform="translate(-49.653 -30.22)" fill="#333740"/>
    <path id="패스_1069" data-name="패스 1069" d="M885.018,624.5c-.666-.575-1.217-.729-1.671-.362-.787.642-.125,1.936.29,2.617.459.748,1.144,1.545,1.956.859a7.447,7.447,0,0,0,1.656-2.154c.266-.884-.415-1.536-1.159-1.212-.266.116-.686.589-1.072.251" transform="translate(-53.15 -38.873)" fill="#f1c1a8"/>
    <path id="패스_1070" data-name="패스 1070" d="M880.428,672.448c5.065,34.114-8.807,35.133-8.807,35.133-9.981.406-20.106-15.408-20.106-15.408.179,8.653-3.467,42.531-3.467,42.531h-35.5a161.762,161.762,0,0,0-7.306-46.669l-9.281,16.886,9.281,9.575-6.079,10.251a75.335,75.335,0,0,1-12.3-7.851c-9.329-6.089-6.128-11.975-6.128-11.975l13.25-25.326c6.181-13.477,11.255-14.336,11.255-14.336l15.843-7.132.106-.048,10.058-2.3,8.271,2.989a124.235,124.235,0,0,1,11.748,6.852A16.741,16.741,0,0,1,856,669.667c6.644,11.521,11.642,19.517,11.642,19.517l-.536-15.577Z" transform="translate(0 -55.339)" fill="#424955"/>
    <path id="패스_1071" data-name="패스 1071" d="M973.244,682.894l-13.322,1.164-.241-6.977,12.356-1.1c.488,2.443.884,4.742,1.207,6.915" transform="translate(-92.815 -65.785)" fill="#333740"/>
    <path id="패스_1072" data-name="패스 1072" d="M825.554,777.38l3.979,4.109-5.171,8.426c-1.719-.719-3.351-1.5-4.882-2.284Z" transform="translate(-20.312 -118.223)" fill="#333740"/>
    <path id="패스_1073" data-name="패스 1073" d="M850.374,796.249a7.314,7.314,0,0,1,2.665-2.158c.888-.372,1.989-.3,2.936-.608.444-.145,1.878-.845,2.26-.295.439.628-.739,1.2-1.082,1.531-.517.517-.69,1.193-1.173,1.733a3.489,3.489,0,0,1-3.1,1c-.43-.058-2.8-.406-2.511-1.207" transform="translate(-36.276 -126.29)" fill="#f7d6c4"/>
    <path id="패스_1074" data-name="패스 1074" d="M831.21,794.567a28.731,28.731,0,0,1,3.1,1.714,2.747,2.747,0,0,1,.831.71,7.02,7.02,0,0,0,4.322,2.82c1.526.43,3.559-.1,5.191-.019,2.057.1,2.231,2.936,4.341,2.709-.662-1.367-1.487-4.278-3.129-4.708,2.057.145,2.69.579,4.341,1.816.908.681,2.776,2.26,3.728,2.279-.328-2.588-5.123-6.528-7.359-6.412,0,0,.748.352,1.367.56,1.487.492,4.293,2.516,5.727,3.057-.869-2.149-1.405-4.36-5.123-5.558a12.689,12.689,0,0,0-4.022-.85c-2.685-.174-4.761-.213-7.016-1.849-.946-.69-1.806-1.222-2.772-1.994Z" transform="translate(-26.378 -124.149)" fill="#f7d6c4"/>
    <path id="패스_1075" data-name="패스 1075" d="M889.724,607.428a9.433,9.433,0,0,0,.3,3.472c.169.444.792,1.14.319,1.478-.3.212-.777.111-1.106.348a.441.441,0,0,0,.338.8c.744-.111,1.743-.29,1.758-1.217a3.67,3.67,0,0,0-.55-1.473,8.391,8.391,0,0,1-.425-3.409.317.317,0,0,0-.633,0" transform="translate(-56.278 -30.179)" fill="#f1c1a8"/>
    <path id="패스_1076" data-name="패스 1076" d="M881.5,662.231a8.62,8.62,0,0,0-.063,2.844,64.8,64.8,0,0,1-.41,7.74q-.427,4.237-.657,8.489c-.092,1.661-.415,3.457-.352,5.113.029.84.773,1.429,1.284,2.154a16.211,16.211,0,0,0,2.3,3.119c.739-.913,1.656-1.854,2.438-2.791.425-.507,1.535-1.444,1.6-2.086a9.811,9.811,0,0,0-.473-2.163c-.237-1.371-.454-2.747-.666-4.128-.517-3.39-.835-6.828-1.241-10.232-.246-2.067-.633-4.124-.777-6.2-.039-.565.174-2.038-.271-2.506-.439-.444-2.873-.121-2.709.647" transform="translate(-51.616 -58.236)" fill="#3b4f75"/>
    <path id="패스_1077" data-name="패스 1077" d="M860.44,661.348c.222.806,1.487,15.027,12.154,19.165a1.914,1.914,0,0,0,.256.024l.029-.285c-1.405-.464-4.085-2.892-6.437-6.374A26.539,26.539,0,0,1,862.2,660.46Z" transform="translate(-41.494 -57.759)" fill="#2e4c7b"/>
    <path id="패스_1078" data-name="패스 1078" d="M885.227,704.64h-7.446a.4.4,0,0,0-.4.4v10.4a.4.4,0,0,0,.4.4h7.446a.4.4,0,0,0,.4-.4v-10.4a.4.4,0,0,0-.4-.4" transform="translate(-50.255 -80.606)" fill="#fff"/>
    <rect id="사각형_343" data-name="사각형 343" width="6.427" height="0.29" transform="translate(828.038 631.513)" fill="#3e6099"/>
    <rect id="사각형_344" data-name="사각형 344" width="4.824" height="1.42" transform="translate(828.84 632.247)" fill="#363033"/>
    <rect id="사각형_345" data-name="사각형 345" width="5.447" height="5.944" transform="translate(828.526 624.946)" fill="#a2bbdd"/>
    <g id="그룹_433" data-name="그룹 433" transform="translate(828.526 624.946)">
      <g id="그룹_431" data-name="그룹 431" clip-path="url(#clip-path)">
        <path id="패스_1079" data-name="패스 1079" d="M885.868,708.461a1.724,1.724,0,0,0-1.367-1.333,1.765,1.765,0,0,0-1.009.135.915.915,0,0,0-.319.217,1.277,1.277,0,0,0-.792.647,2.311,2.311,0,0,0-.212,1.019,1.978,1.978,0,0,0,.3,1.062,3.479,3.479,0,0,0,.439.637,6.488,6.488,0,0,1,1.424-.15,4.5,4.5,0,0,1,.946.227c.174.053.367.063.541.121a3.5,3.5,0,0,0,.068-.381,3.867,3.867,0,0,0,.092-.744,5.653,5.653,0,0,0-.111-1.458" transform="translate(-881.256 -706.829)" fill="#7b6464"/>
      </g>
      <g id="그룹_432" data-name="그룹 432" clip-path="url(#clip-path)">
        <path id="패스_1080" data-name="패스 1080" d="M885.532,717.893c.024.42-.213.386-.551.353a1.461,1.461,0,0,0-.686.043c-.55.2-1.637.391-2.033,0-.3-.3-.744.043-.753-.415-.01-.517.439-.56.792-.806a1.479,1.479,0,0,0,.618-.8,1.856,1.856,0,0,0,.053-.4,2.026,2.026,0,0,0,.512.483,1.789,1.789,0,0,0,1.033.251,3.269,3.269,0,0,0,.188.357,9.734,9.734,0,0,0,.826.932" transform="translate(-880.916 -711.36)" fill="#efbba8"/>
      </g>
    </g>
    <path id="패스_1081" data-name="패스 1081" d="M886.126,713.315c-.232.734-.266.758-.266,1.033a2.1,2.1,0,0,0,.111.792,1.846,1.846,0,0,1-1.053-.208,1.468,1.468,0,0,1-.493-.521,5.214,5.214,0,0,0-.1-.956,1.4,1.4,0,0,1,.782-.4,1.175,1.175,0,0,1,1.014.261" transform="translate(-53.849 -84.945)" fill="#d19a96"/>
    <path id="패스_1082" data-name="패스 1082" d="M886.036,713.016a.322.322,0,0,1,.034.116,1.2,1.2,0,0,0-1.009-.266,1.432,1.432,0,0,0-.787.4,3.852,3.852,0,0,1-.053-.4,1.357,1.357,0,0,1,.893-.188c.266.024.792.1.922.333" transform="translate(-53.792 -84.762)" fill="#f7d5c1"/>
    <path id="패스_1083" data-name="패스 1083" d="M885.853,710.874a2.815,2.815,0,0,1-1.676-.55c-.372-.406-.536-.6-.536-.6a2.53,2.53,0,0,0-.42.5,1.29,1.29,0,0,0-.188.633.276.276,0,0,0-.473.208c.015.232.314.763.5.526a2.008,2.008,0,0,0,.135.362,1.118,1.118,0,0,0,.816.56,1.168,1.168,0,0,0,1.251-.5.835.835,0,0,0,.14-.352c.227.13.372-.183.43-.362a.5.5,0,0,0,.019-.415" transform="translate(-52.933 -83.233)" fill="#efbba8"/>
    <path id="패스_1084" data-name="패스 1084" d="M884.2,711.574a.468.468,0,0,1,.415-.048.941.941,0,0,0,.256.039c.034,0,.058-.048.019-.068a1.365,1.365,0,0,0-.4-.068c-.14-.019-.251-.024-.328.111Z" transform="translate(-53.766 -84.112)" fill="#7b6464"/>
    <path id="패스_1085" data-name="패스 1085" d="M887.455,711.612a.231.231,0,0,0-.266-.125,1.414,1.414,0,0,0-.454.063c-.039.015-.024.063.015.072a.88.88,0,0,0,.275-.039c.063-.01.121-.019.179-.024a.28.28,0,0,1,.217.082Z" transform="translate(-55.081 -84.145)" fill="#7b6464"/>
    <path id="패스_1086" data-name="패스 1086" d="M887.22,712.185l-.1,0-.029.087,0,.068v0a.068.068,0,0,0,.068.063c.1-.01.1-.159.058-.217" transform="translate(-55.276 -84.506)" fill="#333740"/>
    <path id="패스_1087" data-name="패스 1087" d="M885.113,712.253v-.019l0-.024V712.2l-.034-.063a.065.065,0,0,0-.1.019.177.177,0,0,0,.024.188l.068,0h0l0,0,.029-.019v-.014l.014-.039Z" transform="translate(-54.173 -84.473)" fill="#333740"/>
    <path id="패스_1088" data-name="패스 1088" d="M882.813,712.437c.019-.048.034-.135.1-.106a.319.319,0,0,1,.135.13c.015.024.111.2.015.188-.053,0-.068-.092-.073-.13a.043.043,0,0,0-.082-.015.2.2,0,0,0,.135.237c.126.029.174-.13.14-.222a.457.457,0,0,0-.251-.275c-.116-.034-.188.077-.183.183,0,.029.048.044.063.01" transform="translate(-53.031 -84.535)" fill="#d19a96"/>
    <path id="패스_1089" data-name="패스 1089" d="M888.826,712.365c-.058-.077-.155-.15-.246-.077a.3.3,0,0,0-.072.126c-.019.063-.044.13-.063.193a.161.161,0,0,0,.164.2c.1-.01.13-.13.13-.213a.056.056,0,0,0-.111-.01l-.019.13c-.039.034-.1-.034-.1-.063a.311.311,0,0,1,.024-.116,1.275,1.275,0,0,1,.043-.145c.019-.039.039-.077.092-.068s.077.053.1.082Z" transform="translate(-55.974 -84.546)" fill="#d19a96"/>
    <g id="그룹_436" data-name="그룹 436" transform="translate(828.526 624.946)">
      <g id="그룹_434" data-name="그룹 434" clip-path="url(#clip-path)">
        <path id="패스_1090" data-name="패스 1090" d="M886.367,712.063a1,1,0,0,0,.048.357c.019.044.087.111.043.15l-.111.043a.046.046,0,0,0,.039.082c.077-.014.179-.039.174-.135a.343.343,0,0,0-.063-.15.782.782,0,0,1-.063-.348c0-.048-.072-.043-.068,0" transform="translate(-883.407 -709.374)" fill="#d19a96"/>
      </g>
      <g id="그룹_435" data-name="그룹 435" clip-path="url(#clip-path)">
        <path id="패스_1091" data-name="패스 1091" d="M885.18,719.692c-.193-.323-.43-.724-.7-1.178a1.713,1.713,0,0,0-.488-.42,13.1,13.1,0,0,0-1.212-.7l-.855-.309-1.038.237-.01,0-1.637.739s-.522.087-1.164,1.482L878,719.7h7.18Z" transform="translate(-879.101 -711.986)" fill="#424955"/>
      </g>
    </g>
    <path id="패스_1092" data-name="패스 1092" d="M883.76,716.908l.623.618h.082l.454-.835.42.835h.063l.4-.628-.2-.507-.671.237-.869-.328Z" transform="translate(-53.554 -86.636)" fill="#333740"/>
    <g id="그룹_438" data-name="그룹 438" transform="translate(828.526 624.946)">
      <g id="그룹_437" data-name="그룹 437" clip-path="url(#clip-path)">
        <path id="패스_1093" data-name="패스 1093" d="M885.684,717.735a.858.858,0,0,0,0,.295,6.369,6.369,0,0,1-.044.8c-.029.29-.053.584-.068.874-.01.174-.043.357-.039.526,0,.087.082.15.135.222a1.739,1.739,0,0,0,.237.323c.077-.1.169-.193.251-.29.043-.053.159-.15.164-.217a1.222,1.222,0,0,0-.048-.222c-.024-.14-.048-.285-.068-.425-.053-.352-.087-.705-.13-1.057-.024-.212-.063-.425-.082-.642,0-.058.019-.213-.024-.261s-.295,0-.28.072" transform="translate(-882.994 -712.279)" fill="#3b4f75"/>
      </g>
    </g>
    <path id="패스_1094" data-name="패스 1094" d="M886.075,717.375a.332.332,0,0,0-.251-.048c-.087,0-.246.039-.28.135-.029.072.053.208.077.275s.019.13.077.14a.653.653,0,0,0,.256,0c.092,0,.1-.1.116-.179.014-.063.077-.241,0-.328" transform="translate(-54.473 -87.166)" fill="#526389"/>
    <path id="패스_1095" data-name="패스 1095" d="M885.369,713.866a.475.475,0,0,0,.86.015c.043-.092-.029-.217-.14-.179a1.131,1.131,0,0,1-.609.024c-.092-.029-.145.063-.111.14" transform="translate(-54.381 -85.289)" fill="#cd8583"/>
    <path id="패스_1096" data-name="패스 1096" d="M878.373,703.45h-1.207a.979.979,0,0,0-.975.975v10.4a.979.979,0,0,0,.975.975h7.446a.979.979,0,0,0,.975-.975v-6a3.339,3.339,0,0,1-.575.816v5.181a.4.4,0,0,1-.4.4h-7.446a.4.4,0,0,1-.4-.4v-10.4a.4.4,0,0,1,.4-.4h1.154c.019-.193.039-.386.053-.575m6.325,0c.034.208.063.41.1.618a.4.4,0,0,1,.213.353v.966c.058.338.111.681.174,1.019.072.415.285.956.4,1.458v-3.443a.968.968,0,0,0-.884-.971" transform="translate(-49.639 -79.991)" fill="#9fa2a7"/>
    <path id="패스_1097" data-name="패스 1097" d="M883.174,701.33h-.024c.058.024.111.044.164.063l-.024.237a.3.3,0,1,1-.415.285.31.31,0,0,1,.155-.266c-.15-.058-.3-.116-.444-.179a1,1,0,0,0-.584.884h-1.342c-.014.188-.029.381-.048.575H886.9a.4.4,0,0,1,.184.043c-.034-.2-.063-.41-.1-.613a.525.525,0,0,0-.087,0h-2.545a1.116,1.116,0,0,0-1.183-1.024m4.124,2.965v4.254a3.248,3.248,0,0,0,.575-.816v-.961c-.116-.5-.328-1.048-.4-1.458-.063-.343-.116-.681-.174-1.019" transform="translate(-51.925 -78.895)" fill="#98a3b6"/>
    <path id="패스_1098" data-name="패스 1098" d="M885.265,701.33a1.268,1.268,0,0,0-.565.14c.145.063.295.126.439.179a.314.314,0,0,1,.15-.039.281.281,0,0,1,.111.019l.024-.237c-.048-.019-.106-.039-.159-.063" transform="translate(-54.04 -78.895)" fill="#92a0ba"/>
    <path id="패스_1099" data-name="패스 1099" d="M893.868,660.4a50.451,50.451,0,0,1-3.076,12.463,20.886,20.886,0,0,1-4.969,7.484.688.688,0,0,1-.092.092l-.1.048a.749.749,0,0,0,.633-.053,9.741,9.741,0,0,0,.932-.758c1.381-1.492,5.664-4.833,8.2-18.32Z" transform="translate(-54.521 -57.728)" fill="#3e6099"/>
    <path id="패스_1100" data-name="패스 1100" d="M885.7,708.14l-1.014.613v2.231l.995-.594Zm-6.461,3.916-.975.589.01,2.173,1.009-.6h-.536v-.29h1.014l1.043-.623h-1.569v-1.246Z" transform="translate(-50.71 -82.416)" fill="#fff"/>
    <path id="패스_1101" data-name="패스 1101" d="M879.27,720.13v.285h.536l.478-.285Z" transform="translate(-51.232 -88.617)" fill="#9aabc9"/>
    <path id="패스_1102" data-name="패스 1102" d="M885.727,709.41l-.787.478a6.883,6.883,0,0,1,.068,1.217,3.866,3.866,0,0,1-.092.744c-.019.1-.024.208-.048.3l.86-.517V709.41Zm-3.964,2.4-1.482.9v1.251h.425l1.294-.584-.034-.034.3-.608.053.019c.01-.072.015-.15.019-.222a2.857,2.857,0,0,0-.019-.406.69.69,0,0,1-.155-.135c-.14.024-.227.044-.227.044s-.072-.082-.174-.222m2.2.193a1.968,1.968,0,0,1-.15.135,1.106,1.106,0,0,0-.044.333c0,.126,0,.227.01.333l1-.6c-.155-.039-.314-.053-.468-.1l-.348-.1" transform="translate(-51.754 -83.073)" fill="#d2dced"/>
    <path id="패스_1103" data-name="패스 1103" d="M886.522,710.4l-.908.55a.246.246,0,0,1,.1.1l-.034.029a.354.354,0,0,0-.145-.077l-.159.1a3.861,3.861,0,0,0,.884.13.533.533,0,0,1-.015.42c-.048.15-.155.391-.323.391a.2.2,0,0,1-.106-.034.769.769,0,0,1-.135.352,1.034,1.034,0,0,1-.13.159c.111.034.227.068.348.106.15.048.314.063.464.1l.1-.058c.024-.1.029-.208.048-.3a3.861,3.861,0,0,0,.092-.744,6.872,6.872,0,0,0-.072-1.222m-2.965,1.8-.217.13c.1.14.174.222.174.222s.087-.019.227-.043a1.185,1.185,0,0,1-.14-.208.9.9,0,0,0-.043-.1" transform="translate(-53.337 -83.585)" fill="#bbaeae"/>
    <path id="패스_1104" data-name="패스 1104" d="M884.519,715.89a1.74,1.74,0,0,1-.019.222l.261.1a2.446,2.446,0,0,1-.242-.323" transform="translate(-53.937 -86.424)" fill="#f7ddd5"/>
    <path id="패스_1105" data-name="패스 1105" d="M884.5,715.05a2.284,2.284,0,0,1,.015.406,1.937,1.937,0,0,0,.241.323l.55.208.526-.183.121-.077a2.539,2.539,0,0,1-.01-.338,1.262,1.262,0,0,1,.048-.333,1.187,1.187,0,0,1-.7.246,1.017,1.017,0,0,1-.27-.039,1.974,1.974,0,0,1-.521-.213" transform="translate(-53.937 -85.99)" fill="#e8ccc9"/>
    <path id="패스_1106" data-name="패스 1106" d="M885.605,711.84l-.473.29a.445.445,0,0,0,.048.179.344.344,0,0,1,.063.15c0,.1-.1.121-.174.135h-.014a.044.044,0,0,1-.024-.082l.111-.043c.048-.039-.024-.106-.039-.15a.4.4,0,0,1-.039-.15l-1.275.773a.967.967,0,0,0,.048.1.826.826,0,0,0,.14.208,1.107,1.107,0,0,0,.159.14,1.825,1.825,0,0,0,.522.217,1.015,1.015,0,0,0,.27.039,1.161,1.161,0,0,0,.7-.251,1.3,1.3,0,0,0,.15-.135,1.446,1.446,0,0,0,.13-.159.749.749,0,0,0,.135-.352.208.208,0,0,0,.106.034c.169,0,.275-.241.323-.391a.513.513,0,0,0,.015-.42,3.578,3.578,0,0,1-.884-.13m-.15.377a.068.068,0,0,1-.068-.063v0l0-.068.029-.087.1,0c.039.068.043.217-.058.217h0m.734.377a.161.161,0,0,1-.15-.2c.019-.063.043-.13.063-.193a.318.318,0,0,1,.068-.125.113.113,0,0,1,.082-.034.224.224,0,0,1,.164.111l-.048.043c-.029-.029-.063-.077-.1-.082h-.014c-.048,0-.063.034-.077.068a.828.828,0,0,0-.044.145.331.331,0,0,0-.024.116c0,.024.043.073.077.073a.027.027,0,0,0,.024-.01l.019-.135a.047.047,0,0,1,.048-.043.054.054,0,0,1,.058.048c0,.087-.029.208-.13.217a.018.018,0,0,1-.014,0m-1.251.2a1.149,1.149,0,0,0,.338-.053.105.105,0,0,1,.039,0,.13.13,0,0,1,.1.188.489.489,0,0,1-.435.27.454.454,0,0,1-.425-.28.1.1,0,0,1,.087-.15.062.062,0,0,1,.029,0,1.606,1.606,0,0,0,.266.024" transform="translate(-53.569 -84.33)" fill="#f7ddd5"/>
    <path id="패스_1107" data-name="패스 1107" d="M887.972,711.54l-.082.048a.533.533,0,0,1,.145.077l.034-.029a.305.305,0,0,0-.1-.1" transform="translate(-55.69 -84.175)" fill="#bbaeae"/>
    <path id="패스_1108" data-name="패스 1108" d="M887.119,712.17l-.029.087,0,.068v0a.065.065,0,0,0,.068.063h0c.1,0,.092-.15.058-.212Z" transform="translate(-55.276 -84.5)" fill="#96989d"/>
    <path id="패스_1109" data-name="패스 1109" d="M888.667,712.26a.131.131,0,0,0-.082.034.267.267,0,0,0-.068.126c-.019.063-.048.125-.063.193a.158.158,0,0,0,.145.2h.014c.1-.015.13-.135.13-.217,0-.034-.029-.048-.058-.048a.052.052,0,0,0-.053.043l-.019.135a.037.037,0,0,1-.024.01c-.034,0-.072-.048-.077-.072a.31.31,0,0,1,.024-.116,1.271,1.271,0,0,1,.043-.145c.015-.034.034-.068.077-.068h.014c.044,0,.077.053.1.082l.048-.044a.189.189,0,0,0-.155-.116" transform="translate(-55.979 -84.547)" fill="#e8ccc9"/>
    <path id="패스_1110" data-name="패스 1110" d="M886.446,712.44l-.063.039a.568.568,0,0,0,.039.15c.019.044.087.111.039.15l-.111.043a.045.045,0,0,0,.029.082h.015c.077-.015.174-.039.174-.14a.464.464,0,0,0-.068-.15.351.351,0,0,1-.053-.174" transform="translate(-54.883 -84.64)" fill="#e8ccc9"/>
    <path id="패스_1111" data-name="패스 1111" d="M881.16,717.945H882.3l.459-.275-.314-.309Zm2.352-.724.087-.053-.029-.058Z" transform="translate(-52.209 -87.055)" fill="#9fa2a7"/>
    <path id="패스_1112" data-name="패스 1112" d="M884.059,716.3l-.3.608.034.034.314.309.512-.3a.018.018,0,0,1,0-.015c.029-.077.145-.116.232-.126h0l.058-.111.029.058.507-.3-.526.183-.551-.212-.261-.1Z" transform="translate(-53.554 -86.636)" fill="#96989d"/>
    <path id="패스_1113" data-name="패스 1113" d="M885.782,717.34c-.087.015-.2.048-.232.126v.015Z" transform="translate(-54.48 -87.174)" fill="#a5aec3"/>
    <path id="패스_1114" data-name="패스 1114" d="M886.128,713.68a.106.106,0,0,0-.039,0,1.038,1.038,0,0,1-.343.053,1.026,1.026,0,0,1-.266-.034.212.212,0,0,1-.024,0,.1.1,0,0,0-.087.15.454.454,0,0,0,.425.28.479.479,0,0,0,.435-.27.125.125,0,0,0-.1-.179" transform="translate(-54.381 -85.281)" fill="#e5c0bc"/>
    <path id="패스_1115" data-name="패스 1115" d="M885.766,713.51l-1.048.637v.676l1.043-.623Zm-3.163,2.574h-1.086l-1.029.623h1.067Zm-1.521.908H880.02l-1.69,1.024.024.608,1.226-.734v-.454h.753Z" transform="translate(-50.746 -85.193)" fill="#fff"/>
    <path id="패스_1116" data-name="패스 1116" d="M882.3,720.13l-.473.285h1.062l.483-.285Z" transform="translate(-52.556 -88.617)" fill="#9aabc9"/>
    <path id="패스_1117" data-name="패스 1117" d="M880.93,721.65v.454l.753-.454Z" transform="translate(-52.09 -89.403)" fill="#9a9797"/>
    <path id="패스_1118" data-name="패스 1118" d="M889.621,714.83l-1.811,1.1.082.213-.048.077.014,0c.111.058.208.111.3.159l1.468-.879v-.676Z" transform="translate(-55.648 -85.876)" fill="#d2dced"/>
    <path id="패스_1119" data-name="패스 1119" d="M886.36,717.7l-.348.55h.015l.647-.386c-.087-.048-.188-.1-.294-.159Zm-.6.179c0,.01,0,.014,0,.019a.3.3,0,0,1-.063.159c0,.063.014.126.024.188h.232Zm-.43.135-.188.111-.063.121h.294v-.174c-.024-.01-.034-.029-.043-.058m-.357.217-.034.019h.053Z" transform="translate(-54.164 -87.36)" fill="#9fa2a7"/>
    <path id="패스_1120" data-name="패스 1120" d="M886.362,717.1l-.526.319a.877.877,0,0,1-.034.15l.188.367h.063l.348-.55.048-.077Zm-1.183.719-.169.1.019.019h.082Z" transform="translate(-54.2 -87.05)" fill="#96989d"/>
    <path id="패스_1121" data-name="패스 1121" d="M886.169,718.45a.073.073,0,0,1-.053.019c-.053,0-.1.01-.14.01a.477.477,0,0,1-.116-.015.015.015,0,0,1-.01,0v.179h.348a1.261,1.261,0,0,1-.029-.188" transform="translate(-54.635 -87.748)" fill="#98a3b6"/>
    <path id="패스_1122" data-name="패스 1122" d="M886.218,717.76l-.468.285a.109.109,0,0,0,.043.058h.01a.5.5,0,0,0,.116.015,1.349,1.349,0,0,0,.14-.01.088.088,0,0,0,.053-.019c.039-.029.048-.1.063-.159a.029.029,0,0,1,0-.019.735.735,0,0,0,.039-.15" transform="translate(-54.583 -87.391)" fill="#a5aec3"/>
    <path id="패스_1123" data-name="패스 1123" d="M865.737,648.34l-2.9,5.9,6.562,6.48,4.631-8.571,4.37,8.571,4.177-6.577-1.922-4.887-6.524,2.279Z" transform="translate(-42.735 -51.491)" fill="#333740"/>
    <path id="패스_1124" data-name="패스 1124" d="M885.215,660.366a3.288,3.288,0,0,0-2.429-.464c-.84.048-2.4.4-2.733,1.289-.266.7.536,2,.748,2.685.169.531.188,1.255.724,1.386a7.132,7.132,0,0,0,2.5.043c.884-.068.927-.932,1.125-1.733.15-.637.8-2.356.068-3.206" transform="translate(-51.609 -57.457)" fill="#526389"/>
  </g>
</svg>
