<svg xmlns="http://www.w3.org/2000/svg" width="382" height="163" viewBox="0 0 382 163">
  <g id="그룹_501" data-name="그룹 501" transform="translate(-727 -1385)">
    <text id="금전관리" transform="translate(755 1447)" fill="#555" font-size="15" font-family="NanumSquareR, NanumSquare"><tspan x="-27.3" y="0">금전관리</tspan></text>
    <text id="건강관리" transform="translate(869 1447)" fill="#555" font-size="15" font-family="NanumSquareR, NanumSquare"><tspan x="-27.3" y="0">건강관리</tspan></text>
    <text id="사회활동" transform="translate(922 1544)" fill="#555" font-size="15" font-family="NanumSquareR, NanumSquare"><tspan x="-27.3" y="0">사회활동</tspan></text>
    <text id="주택알선" transform="translate(1031 1544)" fill="#555" font-size="15" font-family="NanumSquareR, NanumSquare"><tspan x="-27.3" y="0">주택알선</tspan></text>
    <text id="주택관리" transform="translate(986 1447)" fill="#555" font-size="15" font-family="NanumSquareR, NanumSquare"><tspan x="-27.3" y="0">주택관리</tspan></text>
    <text id="쇼핑" transform="translate(1092 1447)" fill="#555" font-size="15" font-family="NanumSquareR, NanumSquare"><tspan x="-13.65" y="0">쇼핑</tspan></text>
    <text id="가사관리" transform="translate(808 1544)" fill="#555" font-size="15" font-family="NanumSquareR, NanumSquare"><tspan x="-27.3" y="0">가사관리</tspan></text>
    <path id="패스_1191" data-name="패스 1191" d="M0,0V38" transform="translate(811.5 1392.5)" fill="none" stroke="#e4e2e2" stroke-width="2"/>
    <line id="선_171" data-name="선 171" y2="38" transform="translate(928.5 1392.5)" fill="none" stroke="#e4e2e2" stroke-width="2"/>
    <line id="선_172" data-name="선 172" y2="38" transform="translate(1042.5 1392.5)" fill="none" stroke="#e4e2e2" stroke-width="2"/>
    <line id="선_173" data-name="선 173" y2="38" transform="translate(866.5 1486.5)" fill="none" stroke="#e4e2e2" stroke-width="2"/>
    <line id="선_174" data-name="선 174" y2="38" transform="translate(977.5 1486.5)" fill="none" stroke="#e4e2e2" stroke-width="2"/>
    <g id="금전관리-2" data-name="금전관리" transform="translate(587.93 1122.89)">
      <g id="그룹_465" data-name="그룹 465" transform="translate(148.07 263.01)">
        <g id="그룹_461" data-name="그룹 461">
          <circle id="타원_52" data-name="타원 52" cx="16.585" cy="16.585" r="16.585" transform="translate(1.415 1.422)" fill="#f7b02b"/>
          <path id="패스_1144" data-name="패스 1144" d="M166.07,299.01a18,18,0,1,1,18-18A18.023,18.023,0,0,1,166.07,299.01Zm0-33.164a15.171,15.171,0,1,0,15.171,15.171A15.186,15.186,0,0,0,166.07,265.846Z" transform="translate(-148.07 -263.01)" fill="#3d3736"/>
        </g>
        <g id="그룹_464" data-name="그룹 464" transform="translate(11.91 5.29)">
          <g id="그룹_462" data-name="그룹 462" transform="translate(0 1.945)">
            <path id="패스_1145" data-name="패스 1145" d="M171,285.426a6.093,6.093,0,1,1,6.09-6.09,1.415,1.415,0,1,1-2.829,0A3.261,3.261,0,1,0,171,282.6a1.415,1.415,0,1,1,0,2.829Z" transform="translate(-164.91 -273.24)" fill="#3d3736"/>
            <path id="패스_1146" data-name="패스 1146" d="M171,298.646a6.094,6.094,0,0,1-6.09-6.09,1.415,1.415,0,1,1,2.829,0A3.261,3.261,0,1,0,171,289.289a1.415,1.415,0,0,1,0-2.829,6.093,6.093,0,0,1,0,12.186Z" transform="translate(-164.91 -277.11)" fill="#3d3736"/>
          </g>
          <g id="그룹_463" data-name="그룹 463" transform="translate(4.675)">
            <path id="패스_1147" data-name="패스 1147" d="M172.935,275.059a1.419,1.419,0,0,1-1.415-1.415V271.9a1.415,1.415,0,1,1,2.829,0v1.74A1.41,1.41,0,0,1,172.935,275.059Z" transform="translate(-171.52 -270.49)" fill="#3d3736"/>
            <path id="패스_1148" data-name="패스 1148" d="M172.935,304.539a1.419,1.419,0,0,1-1.415-1.415v-1.74a1.415,1.415,0,1,1,2.829,0v1.74A1.41,1.41,0,0,1,172.935,304.539Z" transform="translate(-171.52 -279.12)" fill="#3d3736"/>
          </g>
        </g>
      </g>
    </g>
    <g id="건강관리-2" data-name="건강관리" transform="translate(682.37 1140.838)">
      <g id="그룹_458" data-name="그룹 458" transform="translate(168.63 244.89)">
        <g id="그룹_456" data-name="그룹 456" transform="translate(0 0)">
          <path id="패스_1136" data-name="패스 1136" d="M204.454,257.873h-6.523a6.491,6.491,0,0,1,0-12.983h6.523a6.491,6.491,0,0,1,0,12.983Zm-6.527-11.182a4.695,4.695,0,0,0,0,9.389h6.523a4.695,4.695,0,0,0,0-9.389h-6.523Z" transform="translate(-183.193 -244.89)" fill="#3d3736"/>
          <g id="그룹_455" data-name="그룹 455" transform="translate(0 5.597)">
            <rect id="사각형_353" data-name="사각형 353" width="34.203" height="28.606" transform="translate(0.898 0.898)" fill="#fff"/>
            <path id="패스_1137" data-name="패스 1137" d="M203.821,287.753H169.439a.881.881,0,0,1-.809-.934V258.284a.881.881,0,0,1,.809-.934h34.383a.881.881,0,0,1,.809.934v28.535A.881.881,0,0,1,203.821,287.753Zm-33.574-1.868h32.766V259.218H170.247Z" transform="translate(-168.63 -257.35)" fill="#3d3736"/>
          </g>
        </g>
        <g id="그룹_457" data-name="그룹 457" transform="translate(10.332 13.509)">
          <path id="패스_1138" data-name="패스 1138" d="M211.617,279.468h-4.178V275.29h-5.171v4.178H198.09v5.175h4.178v4.178h5.171v-4.178h4.178Z" transform="translate(-197.187 -274.392)" fill="#ea5726"/>
          <path id="패스_1139" data-name="패스 1139" d="M206.332,288.618h-5.175a.9.9,0,0,1-.9-.9V284.44h-3.279a.9.9,0,0,1-.9-.9v-5.175a.9.9,0,0,1,.9-.9h3.279v-3.279a.9.9,0,0,1,.9-.9h5.175a.9.9,0,0,1,.9.9v3.279h3.279a.9.9,0,0,1,.9.9v5.175a.9.9,0,0,1-.9.9H207.23v3.279A.9.9,0,0,1,206.332,288.618Zm-4.272-1.8h3.378v-3.279a.9.9,0,0,1,.9-.9h3.279v-3.378h-3.279a.9.9,0,0,1-.9-.9v-3.279h-3.378v3.279a.9.9,0,0,1-.9.9h-3.279v3.378h3.279a.9.9,0,0,1,.9.9Z" transform="translate(-196.08 -273.29)" fill="#3d3736"/>
        </g>
      </g>
      <g id="그룹_459" data-name="그룹 459" transform="translate(172.377 254.495)">
        <path id="패스_1140" data-name="패스 1140" d="M179.369,266.739a1.2,1.2,0,1,0-1.2,1.2A1.2,1.2,0,0,0,179.369,266.739Z" transform="translate(-176.97 -265.54)" fill="#f7b02b"/>
        <path id="패스_1141" data-name="패스 1141" d="M246.369,266.739a1.2,1.2,0,1,0-1.2,1.2A1.2,1.2,0,0,0,246.369,266.739Z" transform="translate(-217.871 -265.54)" fill="#f7b02b"/>
      </g>
      <g id="그룹_460" data-name="그룹 460" transform="translate(172.377 274.78)">
        <path id="패스_1142" data-name="패스 1142" d="M179.369,310.069a1.2,1.2,0,1,0-1.2,1.2A1.2,1.2,0,0,0,179.369,310.069Z" transform="translate(-176.97 -308.87)" fill="#f7b02b"/>
        <path id="패스_1143" data-name="패스 1143" d="M246.369,310.069a1.2,1.2,0,1,0-1.2,1.2A1.2,1.2,0,0,0,246.369,310.069Z" transform="translate(-217.871 -308.87)" fill="#f7b02b"/>
      </g>
    </g>
    <g id="주택관리-2" data-name="주택관리" transform="translate(916.011 1226.16)">
      <g id="그룹_490" data-name="그룹 490" transform="translate(49.989 158.84)">
        <g id="그룹_489" data-name="그룹 489">
          <g id="그룹_488" data-name="그룹 488">
            <g id="그룹_487" data-name="그룹 487">
              <g id="그룹_482" data-name="그룹 482" transform="translate(27.098)">
                <rect id="사각형_354" data-name="사각형 354" width="4.64" height="13.455" transform="translate(0.928 0.928)" fill="#fff"/>
                <path id="패스_1174" data-name="패스 1174" d="M115.647,174.151h-4.64a.931.931,0,0,1-.928-.928V159.768a.931.931,0,0,1,.928-.928h4.64a.931.931,0,0,1,.928.928v13.455A.925.925,0,0,1,115.647,174.151Zm-3.712-1.856h2.784V160.7h-2.784Z" transform="translate(-110.08 -158.84)" fill="#3d3736"/>
              </g>
              <g id="그룹_486" data-name="그룹 486" transform="translate(0 1.529)">
                <g id="그룹_483" data-name="그룹 483" transform="translate(5.137 1.881)">
                  <path id="패스_1175" data-name="패스 1175" d="M91.263,176.605l-14.1-8.425-14.1,8.425v23.532h28.2Z" transform="translate(-62.132 -167.257)" fill="#fff"/>
                  <path id="패스_1176" data-name="패스 1176" d="M90.22,200H61.959a.87.87,0,0,1-.634-.274.955.955,0,0,1-.265-.654V175.539a.93.93,0,0,1,.449-.8l14.133-8.421a.869.869,0,0,1,.9,0l14.133,8.421a.935.935,0,0,1,.449.8V199.07A.92.92,0,0,1,90.22,200Zm-27.362-1.856H89.321v-22.07l-13.234-7.887-13.234,7.887Z" transform="translate(-61.06 -166.19)" fill="#3d3736"/>
                </g>
                <g id="그룹_485" data-name="그룹 485">
                  <g id="그룹_484" data-name="그룹 484">
                    <path id="패스_1177" data-name="패스 1177" d="M53.83,178.187a1.824,1.824,0,0,1-1.588-.942,1.907,1.907,0,0,1,.67-2.57l17.4-10.3a1.8,1.8,0,0,1,1.833,0L89.553,174.68a1.907,1.907,0,0,1,.67,2.57,1.81,1.81,0,0,1-2.507.687l-16.489-9.762-16.484,9.762A1.789,1.789,0,0,1,53.83,178.187Z" transform="translate(-51.064 -163.199)" fill="#ea5726"/>
                    <path id="패스_1178" data-name="패스 1178" d="M52.735,178.051a2.741,2.741,0,0,1-2.378-1.406,2.838,2.838,0,0,1-.272-2.13,2.793,2.793,0,0,1,1.277-1.707l17.422-10.3a2.73,2.73,0,0,1,2.741,0l17.427,10.309a2.854,2.854,0,0,1,1.006,3.837,2.741,2.741,0,0,1-2.378,1.406,2.69,2.69,0,0,1-1.368-.376l-16.054-9.493L54.1,177.68A2.744,2.744,0,0,1,52.735,178.051Zm17.422-14.062a.876.876,0,0,0-.467.13l-17.422,10.3a.948.948,0,0,0-.435.58.963.963,0,0,0,.1.724.944.944,0,0,0,1.273.348l16.507-9.762a.882.882,0,0,1,.906,0l16.507,9.762a.939.939,0,0,0,1.268-.348.961.961,0,0,0-.34-1.3L70.619,164.114A.9.9,0,0,0,70.157,163.989Z" transform="translate(-49.989 -162.135)" fill="#3d3736"/>
                  </g>
                </g>
              </g>
            </g>
          </g>
        </g>
      </g>
      <g id="그룹_491" data-name="그룹 491" transform="translate(59.393 171.548)">
        <path id="패스_1179" data-name="패스 1179" d="M91.113,196.482a8.057,8.057,0,0,0-1.188-2.863l1.137-1.5-1.925-1.925-1.5,1.137a8.057,8.057,0,0,0-2.863-1.188l-.26-1.87H81.787l-.26,1.87a8.057,8.057,0,0,0-2.863,1.188l-1.5-1.137-1.925,1.925,1.137,1.5a8.058,8.058,0,0,0-1.188,2.863l-1.865.26v2.723l1.865.26a8.057,8.057,0,0,0,1.188,2.863l-1.137,1.5,1.925,1.925,1.5-1.137a8.058,8.058,0,0,0,2.863,1.188l.26,1.865h2.723l.26-1.865a8.057,8.057,0,0,0,2.863-1.188l1.5,1.137,1.925-1.925-1.137-1.5a8.057,8.057,0,0,0,1.188-2.863l1.865-.26v-2.723Zm-7.961,5.043a3.424,3.424,0,1,1,3.424-3.424A3.425,3.425,0,0,1,83.151,201.525Z" transform="translate(-72.387 -187.324)" fill="#f29317"/>
        <path id="패스_1180" data-name="패스 1180" d="M83.433,207.762H80.71a.929.929,0,0,1-.919-.8l-.172-1.243a8.982,8.982,0,0,1-1.976-.821l-1,.756a.926.926,0,0,1-1.216-.083L73.5,203.642a.927.927,0,0,1-.084-1.216l.756-1a8.983,8.983,0,0,1-.821-1.976l-1.239-.172a.929.929,0,0,1-.8-.919v-2.723a.929.929,0,0,1,.8-.919l1.239-.172a9.077,9.077,0,0,1,.821-1.976l-.756-1a.926.926,0,0,1,.084-1.216l1.925-1.925a.927.927,0,0,1,1.216-.083l1,.756a8.983,8.983,0,0,1,1.976-.821l.172-1.243a.929.929,0,0,1,.919-.8h2.723a.929.929,0,0,1,.919.8l.172,1.243a8.982,8.982,0,0,1,1.976.821l1-.756a.927.927,0,0,1,1.216.083l1.925,1.925a.926.926,0,0,1,.084,1.216l-.756,1a8.982,8.982,0,0,1,.821,1.976l1.239.172a.929.929,0,0,1,.8.919v2.723a.929.929,0,0,1-.8.919l-1.239.172a9.077,9.077,0,0,1-.821,1.976l.756,1a.926.926,0,0,1-.084,1.216l-1.925,1.925a.926.926,0,0,1-1.216.083l-1-.756a8.982,8.982,0,0,1-1.976.821l-.172,1.243A.922.922,0,0,1,83.433,207.762Zm-1.916-1.856h1.1l.148-1.067a.933.933,0,0,1,.733-.784A7.117,7.117,0,0,0,86.036,203a.927.927,0,0,1,1.072.032l.858.65.784-.784-.65-.858a.928.928,0,0,1-.032-1.072,7.152,7.152,0,0,0,1.053-2.533.933.933,0,0,1,.784-.738l1.067-.148v-1.109l-1.067-.148a.933.933,0,0,1-.784-.733,7.068,7.068,0,0,0-1.053-2.533.928.928,0,0,1,.032-1.072l.65-.858-.784-.784-.858.65a.928.928,0,0,1-1.072.032,7.152,7.152,0,0,0-2.533-1.053.933.933,0,0,1-.738-.784l-.148-1.067h-1.1l-.148,1.067a.933.933,0,0,1-.733.784,7.152,7.152,0,0,0-2.533,1.053.928.928,0,0,1-1.072-.032l-.858-.65-.784.784.65.858a.928.928,0,0,1,.032,1.072,7.152,7.152,0,0,0-1.053,2.533.922.922,0,0,1-.784.733l-1.067.148v1.109l1.067.148a.932.932,0,0,1,.784.738,7.152,7.152,0,0,0,1.053,2.533.928.928,0,0,1-.032,1.072l-.65.858.784.784.858-.65A.928.928,0,0,1,78.1,203a7.152,7.152,0,0,0,2.533,1.053.922.922,0,0,1,.733.784Zm.557-4.547a4.352,4.352,0,1,1,4.352-4.352A4.358,4.358,0,0,1,82.074,201.36Zm0-6.853a2.5,2.5,0,1,0,2.5,2.5A2.5,2.5,0,0,0,82.074,194.507Z" transform="translate(-71.31 -186.23)" fill="#3d3736"/>
      </g>
    </g>
    <g id="쇼핑-2" data-name="쇼핑" transform="translate(925.68 1239.288)">
      <g id="그룹_476" data-name="그룹 476" transform="translate(148.911 148.492)">
        <path id="패스_1162" data-name="패스 1162" d="M199.057,183.887H178.016l-5.108-25.337H170.16" transform="translate(-169.282 -157.676)" fill="#fff"/>
        <path id="패스_1163" data-name="패스 1163" d="M195.786,181.507H174.744a.877.877,0,0,1-.859-.7l-4.966-24.632h-2.032a.876.876,0,1,1,0-1.753h2.748a.877.877,0,0,1,.859.7l4.964,24.632h20.324a.876.876,0,0,1,0,1.753Z" transform="translate(-166.01 -154.42)" fill="#3d3736"/>
      </g>
      <g id="그룹_477" data-name="그룹 477" transform="translate(153.007 155.171)">
        <path id="패스_1164" data-name="패스 1164" d="M215.1,204.812l2.964-14.7H189.5l2.964,14.7Z" transform="translate(-188.623 -189.234)" fill="#fff"/>
        <path id="패스_1165" data-name="패스 1165" d="M211.833,202.424H189.2a.877.877,0,0,1-.859-.7l-2.964-14.7a.876.876,0,0,1,.857-1.05h28.563a.876.876,0,0,1,.857,1.05l-2.964,14.7A.869.869,0,0,1,211.833,202.424Zm-21.918-1.753h21.2l2.61-12.949H187.3Z" transform="translate(-185.357 -185.97)" fill="#3d3736"/>
      </g>
      <g id="그룹_478" data-name="그룹 478" transform="translate(144.32 146.9)">
        <path id="패스_1166" data-name="패스 1166" d="M154.331,152.6a1.561,1.561,0,0,1-1.562,1.562h-2.756a1.561,1.561,0,0,1-1.562-1.562h0a1.562,1.562,0,0,1,1.562-1.562h2.756a1.562,1.562,0,0,1,1.562,1.562Z" transform="translate(-147.576 -150.164)" fill="#fff"/>
        <path id="패스_1167" data-name="패스 1167" d="M149.515,151.777h-2.756a2.439,2.439,0,0,1,0-4.877h2.756a2.439,2.439,0,0,1,0,4.877Zm-2.758-3.124a.686.686,0,0,0,0,1.372h2.756a.686.686,0,0,0,0-1.372Z" transform="translate(-144.32 -146.9)" fill="#3d3736"/>
      </g>
      <path id="패스_1168" data-name="패스 1168" d="M235.506,211.633h-13.36a.876.876,0,1,1,0-1.753h13.36a.876.876,0,1,1,0,1.753Z" transform="translate(-60.661 -49.648)" fill="#cacbcb"/>
      <path id="패스_1169" data-name="패스 1169" d="M235.506,234.393h-13.36a.876.876,0,1,1,0-1.753h13.36a.876.876,0,1,1,0,1.753Z" transform="translate(-60.661 -67.59)" fill="#cacbcb"/>
      <g id="그룹_481" data-name="그룹 481" transform="translate(159.022 176.305)">
        <g id="그룹_479" data-name="그룹 479" transform="translate(0 0)">
          <path id="패스_1170" data-name="패스 1170" d="M223.054,292.522a2.572,2.572,0,1,0-2.572,2.572A2.572,2.572,0,0,0,223.054,292.522Z" transform="translate(-217.034 -289.074)" fill="#009cd1"/>
          <path id="패스_1171" data-name="패스 1171" d="M217.218,292.707a3.448,3.448,0,1,1,3.448-3.448A3.453,3.453,0,0,1,217.218,292.707Zm0-5.146a1.7,1.7,0,1,0,1.7,1.7A1.7,1.7,0,0,0,217.218,287.561Z" transform="translate(-213.77 -285.81)" fill="#3d3736"/>
        </g>
        <g id="그룹_480" data-name="그룹 480" transform="translate(11.393 0)">
          <path id="패스_1172" data-name="패스 1172" d="M276.874,292.522a2.572,2.572,0,1,0-2.572,2.572A2.572,2.572,0,0,0,276.874,292.522Z" transform="translate(-270.854 -289.074)" fill="#009cd1"/>
          <path id="패스_1173" data-name="패스 1173" d="M271.038,292.707a3.448,3.448,0,1,1,3.448-3.448A3.453,3.453,0,0,1,271.038,292.707Zm0-5.146a1.7,1.7,0,1,0,1.7,1.7A1.7,1.7,0,0,0,271.038,287.561Z" transform="translate(-267.59 -285.81)" fill="#3d3736"/>
        </g>
      </g>
    </g>
    <g id="가사관리-2" data-name="가사관리" transform="translate(531.45 1241.648)">
      <g id="그룹_454" data-name="그룹 454" transform="translate(258.55 240.48)">
        <g id="그룹_450" data-name="그룹 450" transform="translate(3.749 27.302)">
          <g id="그룹_448" data-name="그룹 448">
            <path id="패스_1125" data-name="패스 1125" d="M273.41,314.539a1.867,1.867,0,0,1-2.468.936h0a1.867,1.867,0,0,1-.936-2.468l1.936-4.3a1.867,1.867,0,0,1,2.468-.936h0a1.863,1.863,0,0,1,.936,2.464Z" transform="translate(-269.036 -306.812)" fill="#009cd1"/>
            <path id="패스_1126" data-name="패스 1126" d="M270.518,315.265a2.722,2.722,0,0,1-1.1-.234,2.675,2.675,0,0,1-1.339-3.533l1.936-4.3a2.677,2.677,0,0,1,2.436-1.573,2.671,2.671,0,0,1,2.432,3.771l-1.936,4.3A2.67,2.67,0,0,1,270.518,315.265Zm1.936-8.026a1.058,1.058,0,0,0-.964.625l-1.936,4.3a1.061,1.061,0,0,0,.532,1.4,1.081,1.081,0,0,0,1.4-.532l1.936-4.3a1.057,1.057,0,0,0-.532-1.4A1.083,1.083,0,0,0,272.454,307.239Z" transform="translate(-267.846 -305.63)" fill="#3d3736"/>
          </g>
          <g id="그룹_449" data-name="그룹 449" transform="translate(21.22)">
            <path id="패스_1127" data-name="패스 1127" d="M322.088,314.539a1.867,1.867,0,0,0,2.468.936h0a1.867,1.867,0,0,0,.936-2.468l-1.936-4.3a1.863,1.863,0,0,0-2.464-.936h0a1.863,1.863,0,0,0-.936,2.464Z" transform="translate(-319.18 -306.812)" fill="#009cd1"/>
            <path id="패스_1128" data-name="패스 1128" d="M322.59,315.265h0a2.677,2.677,0,0,1-2.436-1.573l-1.936-4.3a2.672,2.672,0,0,1,4.872-2.194l1.936,4.3a2.675,2.675,0,0,1-1.339,3.533A2.721,2.721,0,0,1,322.59,315.265Zm-1.936-8.026a1.06,1.06,0,0,0-.988.682,1.047,1.047,0,0,0,.024.811l1.936,4.3a1.06,1.06,0,0,0,.968.625h0a1.1,1.1,0,0,0,.436-.093,1.056,1.056,0,0,0,.528-1.4l-1.936-4.3A1.068,1.068,0,0,0,320.654,307.239Z" transform="translate(-317.981 -305.63)" fill="#3d3736"/>
          </g>
        </g>
        <path id="패스_1129" data-name="패스 1129" d="M263.737,258.734a.809.809,0,0,1-.807-.807V246.752a6.272,6.272,0,1,1,12.543,0,.807.807,0,0,1-1.613,0,4.658,4.658,0,1,0-9.317,0v11.176A.809.809,0,0,1,263.737,258.734Z" transform="translate(-261.163 -240.48)" fill="#3d3736"/>
        <g id="그룹_451" data-name="그룹 451" transform="translate(1.771 17.393)">
          <path id="패스_1130" data-name="패스 1130" d="M295.79,283.05v7.574a7.134,7.134,0,0,1-7.249,7.014H272.189a7.134,7.134,0,0,1-7.249-7.014V283.05" transform="translate(-264.133 -282.247)" fill="#fff"/>
          <path id="패스_1131" data-name="패스 1131" d="M287.334,297.261H271.009a7.957,7.957,0,0,1-8.069-7.82v-7.574a.833.833,0,0,1,1.665,0v7.574a6.316,6.316,0,0,0,6.4,6.207h16.325a6.316,6.316,0,0,0,6.4-6.207v-7.574a.833.833,0,0,1,1.665,0v7.574A7.957,7.957,0,0,1,287.334,297.261Z" transform="translate(-262.94 -281.06)" fill="#3d3736"/>
        </g>
        <g id="그룹_452" data-name="그룹 452" transform="translate(0 16.852)">
          <line id="선_169" data-name="선 169" x2="34.387" transform="translate(0.807 0.807)" fill="#fff"/>
          <path id="패스_1132" data-name="패스 1132" d="M293.72,282.663H259.38a.807.807,0,1,1,0-1.613H293.72a.807.807,0,1,1,0,1.613Z" transform="translate(-258.55 -281.05)" fill="#3d3736"/>
        </g>
        <g id="그룹_453" data-name="그룹 453" transform="translate(7.692 3.88)">
          <path id="패스_1133" data-name="패스 1133" d="M284.12,252.1a5.3,5.3,0,0,0-5.3,5.3h10.6A5.3,5.3,0,0,0,284.12,252.1Z" transform="translate(-278.013 -251.293)" fill="#f7b02b"/>
          <path id="패스_1134" data-name="패스 1134" d="M288.226,257.013h-10.6a.809.809,0,0,1-.807-.807,6.106,6.106,0,0,1,12.213,0A.806.806,0,0,1,288.226,257.013ZM278.5,255.4h8.841a4.493,4.493,0,0,0-8.841,0Z" transform="translate(-276.82 -250.1)" fill="#3d3736"/>
        </g>
      </g>
      <path id="패스_1135" data-name="패스 1135" d="M296.491,292.323h-22.71a.807.807,0,1,1,0-1.613h22.71a.807.807,0,1,1,0,1.613Z" transform="translate(-8.586 -29.365)" fill="#009cd1" opacity="0.3"/>
    </g>
    <g id="사회활동-2" data-name="사회활동" transform="translate(712.89 1280.76)">
      <g id="그룹_468" data-name="그룹 468" transform="translate(192.11 202.28)">
        <g id="그룹_466" data-name="그룹 466">
          <path id="패스_1149" data-name="패스 1149" d="M224.4,219.425a15.145,15.145,0,1,0-15.145,15.145A15.146,15.146,0,0,0,224.4,219.425Z" transform="translate(-193.256 -203.426)" fill="#fff"/>
          <path id="패스_1150" data-name="패스 1150" d="M208.108,234.277a16,16,0,1,1,16-16A16.018,16.018,0,0,1,208.108,234.277Zm0-30.386A14.392,14.392,0,1,0,222.5,218.282,14.406,14.406,0,0,0,208.108,203.891Z" transform="translate(-192.11 -202.28)" fill="#3d3736"/>
        </g>
        <path id="패스_1151" data-name="패스 1151" d="M216.615,234.277c-5.33,0-9.665-7.178-9.665-16s4.336-16,9.665-16,9.665,7.178,9.665,16S221.945,234.277,216.615,234.277Zm0-30.386c-4.479,0-8.118,6.455-8.118,14.392s3.643,14.392,8.118,14.392,8.118-6.455,8.118-14.392S221.094,203.891,216.615,203.891Z" transform="translate(-200.617 -202.28)" fill="#3d3736"/>
        <path id="패스_1152" data-name="패스 1152" d="M230.794,234.445a.831.831,0,0,1-.854-.8V204.2a.855.855,0,0,1,1.707,0v29.441A.829.829,0,0,1,230.794,234.445Z" transform="translate(-214.795 -202.922)" fill="#3d3736"/>
        <path id="패스_1153" data-name="패스 1153" d="M223.473,241.817H194.032a.855.855,0,0,1,0-1.707h29.441a.855.855,0,0,1,0,1.707Z" transform="translate(-192.752 -224.965)" fill="#3d3736"/>
        <g id="그룹_467" data-name="그룹 467" transform="translate(3.5 6.242)">
          <path id="패스_1154" data-name="패스 1154" d="M224.513,220.957H201.1a.856.856,0,0,1,0-1.707h23.413a.856.856,0,0,1,0,1.707Z" transform="translate(-200.31 -219.25)" fill="#3d3736"/>
          <path id="패스_1155" data-name="패스 1155" d="M224.513,262.677H201.1a.856.856,0,0,1,0-1.707h23.413a.856.856,0,0,1,0,1.707Z" transform="translate(-200.31 -243.165)" fill="#3d3736"/>
        </g>
      </g>
      <g id="그룹_475" data-name="그룹 475" transform="translate(204.241 214.411)">
        <g id="그룹_470" data-name="그룹 470" transform="translate(15.219 15.219)">
          <g id="그룹_469" data-name="그룹 469">
            <path id="패스_1156" data-name="패스 1156" d="M262.88,275.922l3.478,3.478a2.031,2.031,0,1,0,2.872-2.872l-3.478-3.478Z" transform="translate(-262.026 -272.196)" fill="#009cd1"/>
            <path id="패스_1157" data-name="패스 1157" d="M266.65,279.7h0a2.86,2.86,0,0,1-2.04-.845l-3.478-3.478a.845.845,0,0,1,0-1.2L264,271.3a.846.846,0,0,1,.6-.252h0a.839.839,0,0,1,.6.252l3.478,3.478a2.881,2.881,0,0,1-2.036,4.921Zm-3.709-4.925,2.876,2.876a1.169,1.169,0,0,0,.832.346h0a1.177,1.177,0,0,0,.832-2.01l-2.876-2.876Z" transform="translate(-260.88 -271.05)" fill="#3d3736"/>
          </g>
        </g>
        <g id="그룹_474" data-name="그룹 474" transform="translate(0 0)">
          <g id="그룹_471" data-name="그룹 471">
            <path id="패스_1158" data-name="패스 1158" d="M246.664,247.112a9.722,9.722,0,1,0-9.722,9.722A9.722,9.722,0,0,0,246.664,247.112Z" transform="translate(-226.366 -236.536)" fill="#f7b02b"/>
            <path id="패스_1159" data-name="패스 1159" d="M235.8,256.541h0a10.579,10.579,0,1,1,7.477-3.1A10.5,10.5,0,0,1,235.8,256.541Zm0-19.444a8.868,8.868,0,0,0,0,17.737h0a8.868,8.868,0,1,0,0-17.737Z" transform="translate(-225.22 -235.39)" fill="#3d3736"/>
          </g>
          <g id="그룹_473" data-name="그룹 473" transform="translate(3.162 3.162)">
            <g id="그룹_472" data-name="그룹 472">
              <path id="패스_1160" data-name="패스 1160" d="M247.743,251.36a6.562,6.562,0,1,0-6.564,6.56A6.559,6.559,0,0,0,247.743,251.36Z" transform="translate(-233.771 -243.946)" fill="#fff"/>
              <path id="패스_1161" data-name="패스 1161" d="M240.043,257.626a7.413,7.413,0,1,1,7.417-7.413A7.42,7.42,0,0,1,240.043,257.626Zm0-13.119a5.706,5.706,0,1,0,5.706,5.706A5.715,5.715,0,0,0,240.043,244.507Z" transform="translate(-232.63 -242.8)" fill="#3d3736"/>
            </g>
          </g>
        </g>
      </g>
    </g>
    <g id="주택알선-2" data-name="주택알선" transform="translate(967.96 1324.13)">
      <g id="그룹_499" data-name="그룹 499" transform="translate(48.04 154.87)">
        <g id="그룹_494" data-name="그룹 494">
          <g id="그룹_492" data-name="그룹 492" transform="translate(0 5.617)">
            <rect id="사각형_355" data-name="사각형 355" width="28.636" height="32.625" transform="translate(0.899 0.899)" fill="#fff"/>
            <path id="패스_1181" data-name="패스 1181" d="M77.575,201.783H48.939a.9.9,0,0,1-.9-.9V168.259a.9.9,0,0,1,.9-.9H77.575a.9.9,0,0,1,.9.9v32.625A.9.9,0,0,1,77.575,201.783Zm-27.737-1.8H76.676V169.159H49.839Z" transform="translate(-48.04 -167.36)" fill="#3d3736"/>
          </g>
          <g id="그룹_493" data-name="그룹 493" transform="translate(7.613)">
            <path id="패스_1182" data-name="패스 1182" d="M76.935,160.14a3.26,3.26,0,1,0-6.52,0H66.97v6.251H80.38V160.14Z" transform="translate(-66.071 -155.976)" fill="#f7b02b"/>
            <path id="패스_1183" data-name="패스 1183" d="M79.279,166.18H65.869a.9.9,0,0,1-.9-.9V159.03a.9.9,0,0,1,.9-.9h2.644a4.165,4.165,0,0,1,8.13,0h2.644a.9.9,0,0,1,.9.9v6.251A.913.913,0,0,1,79.279,166.18Zm-12.51-1.8H78.38v-4.452H75.834a.9.9,0,0,1-.9-.9,2.361,2.361,0,1,0-4.722,0,.9.9,0,0,1-.9.9H66.769Z" transform="translate(-64.97 -154.87)" fill="#3d3736"/>
          </g>
        </g>
        <g id="그룹_496" data-name="그룹 496" transform="translate(5.889 15.719)">
          <path id="패스_1184" data-name="패스 1184" d="M64.393,196.573a.9.9,0,0,1-.634-.265L61.4,193.946a.9.9,0,1,1,1.273-1.273L64.4,194.4l4.312-4.312a.9.9,0,0,1,1.273,1.273l-4.947,4.947A.933.933,0,0,1,64.393,196.573Z" transform="translate(-61.135 -189.825)" fill="#00a05f"/>
          <g id="그룹_495" data-name="그룹 495" transform="translate(11.127 0.956)">
            <path id="패스_1185" data-name="패스 1185" d="M92.513,193.749H86.779a.9.9,0,0,1,0-1.8h5.733a.9.9,0,0,1,0,1.8Z" transform="translate(-85.88 -191.95)" fill="#cacbcb"/>
            <path id="패스_1186" data-name="패스 1186" d="M92.513,200.5H86.779a.9.9,0,0,1,0-1.8h5.733a.9.9,0,0,1,0,1.8Z" transform="translate(-85.88 -195.665)" fill="#cacbcb"/>
          </g>
        </g>
        <g id="그룹_498" data-name="그룹 498" transform="translate(5.889 27.411)">
          <path id="패스_1187" data-name="패스 1187" d="M64.393,222.573a.9.9,0,0,1-.634-.265L61.4,219.946a.9.9,0,1,1,1.273-1.273L64.4,220.4l4.312-4.312a.9.9,0,0,1,1.273,1.273l-4.947,4.947A.933.933,0,0,1,64.393,222.573Z" transform="translate(-61.135 -215.825)" fill="#00a05f"/>
          <g id="그룹_497" data-name="그룹 497" transform="translate(11.127 0.956)">
            <path id="패스_1188" data-name="패스 1188" d="M92.513,219.749H86.779a.9.9,0,0,1,0-1.8h5.733a.9.9,0,0,1,0,1.8Z" transform="translate(-85.88 -217.95)" fill="#cacbcb"/>
            <path id="패스_1189" data-name="패스 1189" d="M92.513,226.5H86.779a.9.9,0,0,1,0-1.8h5.733a.9.9,0,0,1,0,1.8Z" transform="translate(-85.88 -221.665)" fill="#cacbcb"/>
          </g>
        </g>
      </g>
      <path id="패스_1190" data-name="패스 1190" d="M79.421,172.609H67.279a.9.9,0,0,1,0-1.8H79.421a.9.9,0,1,1,0,1.8Z" transform="translate(-10.093 -8.772)" fill="#3d3736"/>
    </g>
  </g>
</svg>
