<svg xmlns="http://www.w3.org/2000/svg" xmlns:xlink="http://www.w3.org/1999/xlink" width="244.899" height="91.695" viewBox="0 0 244.899 91.695">
  <defs>
    <clipPath id="clip-path">
      <rect id="사각형_245" data-name="사각형 245" width="244.899" height="91.695"/>
    </clipPath>
  </defs>
  <g id="logo" transform="translate(91 53.01)">
    <g id="그룹_401" data-name="그룹 401" transform="translate(-91 -53.01)" clip-path="url(#clip-path)">
      <path id="패스_1015" data-name="패스 1015" d="M458.831,141.612h8.389v2.019h-8.389v-2.019Zm-.251,11.211h8.869v3.255h-8.869Zm-2.289,5.091h13.452v-6.925H456.29Zm.276-20.451v8.044H461.9v1.925H454.59v1.883h16.869v-1.883h-7.312v-1.925h5.342v-8.044h-2.27v2.3h-8.389v-2.3Zm-19.043,12.014v1.766h11.153v1.626H437.543v5.225h13.982v-1.834H439.838v-1.717h11.11v-5.066Zm-1.629-3.4v1.863h16.869v-1.863h-7.287v-1.785h5.615V142.48h-11v-2.955h11v-1.857H437.821v6.627h5.385v1.785Zm-6.21,10.112h-8.3v-1.9h8.3Zm2.247,1.834v-7.589h-2.247V152.5h-8.3v-2.062h-2.241v7.589Zm-13.978-11.644c0,1.766,1.489,3.138,4.24,3.138h.985c2.77,0,4.26-1.372,4.26-3.138,0-1.791-1.489-3.163-4.26-3.163h-.985c-2.774,0-4.24,1.372-4.24,3.163m-.917-4.129h11.091v-1.766H417.035Zm2.774-3.164h5.842V137.3h-5.842Zm.413,7.293c0-.849.664-1.606,2.038-1.606h.843c1.4,0,2.091.757,2.091,1.606,0,.8-.689,1.563-2.091,1.563h-.843c-1.372,0-2.038-.763-2.038-1.563m9.461-9.078v12.031h2.247v-4.147h2.751v-1.879H431.93V137.3Zm-22.133,15.613c2.819,0,4.1.5,4.1,1.717s-1.281,1.742-4.1,1.742h-1.106c-2.815,0-4.1-.53-4.1-1.742s1.262-1.717,4.1-1.717Zm-1.125-1.814c-4.425,0-6.4,1.285-6.4,3.531,0,2.2,1.951,3.531,6.4,3.531h1.145c4.4,0,6.37-1.33,6.37-3.531,0-2.247-1.945-3.531-6.37-3.531ZM400.4,137.759v8.6h5.5v1.717h-7.335v1.814h16.865v-1.814h-7.287v-1.717h5.687v-1.717H402.647v-1.674h10.7v-1.723h-10.7v-1.717h11.042v-1.766H400.4Zm-17.416,1.631h5.846v-1.859h-5.846Zm.368,8.178a1.927,1.927,0,0,1,2.13-1.945h.849a1.958,1.958,0,1,1,0,3.9h-.849a1.929,1.929,0,0,1-2.13-1.951m-3.119-4.787h11.324v-1.834H380.231Zm12.88,15.224h2.27V137.28h-2.27Zm-11.959-10.437c0,1.951,1.349,3.44,3.664,3.674v2.038c-1.466.049-3.07.068-4.923.049v1.951a67.4,67.4,0,0,0,12.235-.825l-.208-1.795a31.326,31.326,0,0,1-4.832.53v-1.947a3.686,3.686,0,0,0,3.6-3.674c0-2.062-1.629-3.664-4.308-3.664h-.942c-2.7,0-4.281,1.6-4.281,3.664m-15.7-4.147a10.689,10.689,0,0,1-4.764,9.237c.387.6.8,1.193,1.213,1.795a11.773,11.773,0,0,0,4.744-6.195,11.33,11.33,0,0,0,4.881,5.846l1.145-1.877a9.8,9.8,0,0,1-4.881-8.805v-5.361h-2.338Zm8.2-6.119v20.7H375.9V146.769h2.751v-1.9H375.9V137.3Zm-17.942,4.425v2.93h-3.027a4.86,4.86,0,0,0,.117-1.008v-.825a5.986,5.986,0,0,0-.117-1.1Zm-7.976-1.859a2.722,2.722,0,0,1,2.842,2.955v.781a2.726,2.726,0,0,1-2.842,2.959,2.765,2.765,0,0,1-2.842-2.959v-.781a2.734,2.734,0,0,1,2.842-2.955m-3.027,10.456v1.857h11v6.1H358v-7.956Zm3.027-12.4a4.826,4.826,0,0,0-5.065,4.9v.825a4.806,4.806,0,0,0,5.065,4.818,5,5,0,0,0,4.123-1.925h3.853V149.2H358V137.3h-2.286v2.546H351.84a4.979,4.979,0,0,0-4.1-1.929m-10.655,20.085h2.266V137.28h-2.266Zm-7.5-9.7a11.231,11.231,0,0,0,4.838,5.846l1.188-1.814a9.979,9.979,0,0,1-4.881-8.776v-3.1h4.24v-1.974H324.137v1.974h4.285v3.07a10.483,10.483,0,0,1-4.832,9.169l1.281,1.674a11.259,11.259,0,0,0,4.719-6.074" transform="translate(-242.879 -100.235)"/>
    </g>
    <g id="그룹_402" data-name="그룹 402" transform="translate(-91 -53.01)" clip-path="url(#clip-path)">
      <path id="패스_1016" data-name="패스 1016" d="M50.881,34.53,26.72,56.474V75.9c7.777,7.8,15.51,6.113,19.9,4.042a85.3,85.3,0,0,1-9.985-8.505c-3.469-3.58-4.552-8.354-2.823-12.469a8.915,8.915,0,0,1,8.18-5.687h.039c2.14,0,5.2.767,8.4,4.123.436-.461.868-.874,1.295-1.246a21.523,21.523,0,0,1,7.18-4.415,17.357,17.357,0,0,1,10.343-.53Z" transform="translate(-3.803 -17.488)" fill="#f8b616"/>
    </g>
    <g id="그룹_403" data-name="그룹 403" transform="translate(-91 -53.01)" clip-path="url(#clip-path)">
      <path id="패스_1017" data-name="패스 1017" d="M105.546,153.684a5.1,5.1,0,0,0-4.633-3.274h-.019a7.278,7.278,0,0,0-4.643,2.067c-.053.053-.088.088-.107.111l-.01-.016a16.132,16.132,0,0,0-2.091,2.324L92.5,156.959l-1.557-2.048c-2.169-2.862-4.608-4.435-6.87-4.435h-.01a5.1,5.1,0,0,0-4.629,3.313c-.426,1.008-1.534,4.591,2.032,8.262a57.118,57.118,0,0,0,11.091,8.99,57.017,57.017,0,0,0,11.023-9.082c3.535-3.7,2.4-7.271,1.968-8.276" transform="translate(-45.848 -110.809)" fill="#ea609e"/>
    </g>
    <g id="그룹_404" data-name="그룹 404" transform="translate(-91 -53.01)" clip-path="url(#clip-path)">
      <path id="패스_1018" data-name="패스 1018" d="M42.742,29.988a21.557,21.557,0,0,0-7.18,4.419c-.426.374-.859.786-1.3,1.246-3.193-3.358-6.253-4.129-8.393-4.129H25.83a8.918,8.918,0,0,0-8.18,5.69C15.923,41.328,17,46.1,20.473,49.684a85.678,85.678,0,0,0,9.985,8.505c-4.39,2.073-12.125,3.755-19.906-4.036V34.723L34.717,12.779,53.085,29.463a17.342,17.342,0,0,0-10.343.526m2.63,16.9h0a56.917,56.917,0,0,1-11.019,9.082,57.1,57.1,0,0,1-11.095-8.99C19.692,43.3,20.8,39.728,21.22,38.723A5.1,5.1,0,0,1,25.848,35.4h.019c2.256,0,4.7,1.577,6.864,4.435l1.557,2.048,1.544-2.062A16.031,16.031,0,0,1,37.924,37.5l.01.01c.019-.016.053-.058.107-.107a7.294,7.294,0,0,1,4.643-2.071H42.7a5.106,5.106,0,0,1,4.633,3.28c.432,1.006,1.567,4.577-1.964,8.278M34.717,7.54,6.68,33.006V70.421h3.872V59.32a19.574,19.574,0,0,0,17.005,3.95,23.442,23.442,0,0,0,6.5-2.624A54.8,54.8,0,0,0,48.176,49.571c3.44-3.609,4.483-8.393,2.722-12.489a9.471,9.471,0,0,0-3.483-4.217c3.271-.325,7.18.494,11.4,3.866l.068-.088v20.93h3.876V33.006Z" transform="translate(12.336 4.248)"/>
    </g>
    <g id="그룹_405" data-name="그룹 405" transform="translate(-91 -53.01)" clip-path="url(#clip-path)">
      <path id="패스_1019" data-name="패스 1019" d="M228.342,302.326a.179.179,0,0,0-.047-.025c-.068-.014-.136.037-.237.119l-.082.06c-.278.15-.493.851-.539,1.137-.012,0-.018.01-.033.016a1.213,1.213,0,0,0-.814-.613c.13.5.567,2,1.152,1.871a3.149,3.149,0,0,0,.919-2v-.027c0-.366-.171-.491-.319-.535" transform="translate(-164.762 -233.128)" fill="#f08300"/>
    </g>
    <g id="그룹_406" data-name="그룹 406" transform="translate(-91 -53.01)" clip-path="url(#clip-path)">
      <path id="패스_1020" data-name="패스 1020" d="M247.606,341.743a4.751,4.751,0,0,0-1.688.228.6.6,0,0,0-.269.185c.012.156-.082.393.06.448.01,0,.008.023.016.039.043.039.086.045.125.1.029.039.053,0,.082.014.012.014.018.039.031.039.072.033.138.021.206.056a.172.172,0,0,0,.107.029c.021-.008.049.039.056.055a.938.938,0,0,0,.389,0c.409-.008.333-.045.738-.055.339,0,.672.049,1.016.045.181-.006.385,0,.566-.016.329-.019.656.033.983.037a5.172,5.172,0,0,1,.518.074,2.807,2.807,0,0,1,.528-.012.5.5,0,0,1,.173.023.393.393,0,0,0,.158.058,1.133,1.133,0,0,0,.454-.1,1.28,1.28,0,0,0,.265-.1.234.234,0,0,0,.093-.15.621.621,0,0,0,.035-.4c-.01,0-.031.01-.039,0s-.012-.08-.035-.084a1.444,1.444,0,0,0-.193-.045c-.09-.02-.175-.06-.265-.076a21.913,21.913,0,0,0-4.112-.393" transform="translate(-180.096 -264.888)" fill="#009f73"/>
    </g>
    <g id="그룹_407" data-name="그룹 407" transform="translate(-91 -53.01)" clip-path="url(#clip-path)">
      <path id="패스_1021" data-name="패스 1021" d="M170.8,341.9c.07.018.152.014.195.064s-.041.1-.033.152c0,.117.045.23.043.348a.077.077,0,0,1-.031.062.374.374,0,0,1-.09.086c-.1.064-.232.039-.352.074a2.771,2.771,0,0,1-.471.082,7.171,7.171,0,0,1-.839-.043.8.8,0,0,0-.323.043,1.335,1.335,0,0,1-.393.025c-.685-.025-1.355-.037-2.038-.033-.119.006-.251.019-.368.021-.549.033-1.1.021-1.645.037-.191.006-.382.012-.572.006l-.311.008c-.407.018-.82.039-1.228.021-.158,0-.321,0-.479,0a11.956,11.956,0,0,1-1.372.074,2.326,2.326,0,0,1-.958-.255,1.292,1.292,0,0,1-.491-.438.542.542,0,0,1,.325-.171c.306-.084.592-.136.9-.189.261-.045.5-.062.748-.088a61.815,61.815,0,0,1,8.394-.088,9.274,9.274,0,0,1,1.394.2" transform="translate(-110.363 -264.774)" fill="#0073bd"/>
    </g>
    <g id="그룹_408" data-name="그룹 408" transform="translate(-91 -53.01)" clip-path="url(#clip-path)">
      <path id="패스_1022" data-name="패스 1022" d="M245.527,321.795v.035c.025.072.086.093.144.15h.191c0-.035.045,0,.045-.035a.16.16,0,0,0,.138-.08h.033a.164.164,0,0,1,.14-.1c.08-.09.158-.183.234-.276a.1.1,0,0,1,.047-.1,3.35,3.35,0,0,1,.158-.524.882.882,0,0,0,.018-.191c.014,0,.027,0,.027-.018a.163.163,0,0,1,.062-.15c.033,0,.064,0,.08-.037v-.039a.331.331,0,0,1,.228.13h.1c0,.039.018.039.039.058a1.075,1.075,0,0,1,.345.018c0,.054.082.037.1.1a.729.729,0,0,0,.062.169.066.066,0,0,1-.019.053c.041.056.08.15.019.208.021.074,0,.169.041.241-.041.037-.019.1-.019.132a1.128,1.128,0,0,1,.06.265c.082.091.062.206.127.3v.111c.041,0,0,.058.041.058a2.471,2.471,0,0,1-.041.354.458.458,0,0,0-.064.058v.035c-.017,0-.041,0-.041-.02-.043.058-.1.1-.144.15-.043-.016-.062.021-.084.021-.041,0,0,.056-.041.056a.165.165,0,0,0-.1.039c-.039.018-.181-.019-.22.018l-.021-.018a.111.111,0,0,1-.08.037c0-.02,0-.037-.023-.037a.141.141,0,0,1-.164.074c-.018-.037-.008-.062-.058-.082a.8.8,0,0,0-.078-.321c.016,0,.016-.014.016-.033a.565.565,0,0,1-.049-.154c-.047-.066-.062-.167-.125-.22.017-.016-.033-.033-.016-.053-.033-.031-.047-.049-.08-.082-.029,0-.029.014-.045.033-.018.086-.1.152-.113.238l-.016-.018c-.014.051-.062.086-.062.138-.029.016-.047.066-.078.082v.035c-.111.1-.171.267-.3.339-.031.072-.113.084-.146.162a.574.574,0,0,0-.189.045c-.041-.023-.1-.062-.142-.023,0-.019-.021-.019-.041-.019l-.019.019c-.043-.037-.1,0-.165-.019a2.459,2.459,0,0,0-.409-.214c-.041,0,0-.062-.041-.062a.1.1,0,0,1-.062-.014c0-.062.021-.1-.039-.142l.019-.019c0-.021-.019-.021-.041-.021-.019-.119-.084-.214-.1-.333a.4.4,0,0,1-.041-.037.335.335,0,0,0-.041-.158c-.019-.082.051-.144.012-.222a.064.064,0,0,1,.018-.055.52.52,0,0,1,.021-.243c-.021,0-.021-.017-.021-.039a.456.456,0,0,0,.039-.224c.019-.058.06-.115.08-.169l-.019-.021c.039-.035.019-.091.078-.126,0-.021,0-.041-.021-.041,0-.039.039-.053.058-.074a.688.688,0,0,1,.142-.212l-.016-.023a.274.274,0,0,1,.191-.074.424.424,0,0,1,.181.06c.021.045,0,.078.029.138h.029v.037c0,.018.016.018.031.018a.378.378,0,0,1,.027.173c0,.016.014.016.029.016-.018.035.029.076.029.111-.029.039,0,.1-.016.156.043.092.031.2.072.3a.583.583,0,0,0,.068.195" transform="translate(-179.171 -247.738)"/>
    </g>
    <g id="그룹_409" data-name="그룹 409" transform="translate(-91 -53.01)" clip-path="url(#clip-path)">
      <path id="패스_1023" data-name="패스 1023" d="M230.35,340.4h.014c-.008-.006-.014-.012-.014,0" transform="translate(-167.79 -263.808)"/>
    </g>
    <g id="그룹_410" data-name="그룹 410" transform="translate(-91 -53.01)" clip-path="url(#clip-path)">
      <path id="패스_1024" data-name="패스 1024" d="M215.254,321.671l.025-.033-.029-.021.023-.027c-.025,0-.029-.027-.031-.053.023-.029.023-.029.049-.058.012-.136-.082-.257-.043-.4l-.058-.045c.018-.06-.012-.132.033-.193-.1-.173-.07-.421-.216-.561,0-.025-.008-.051-.012-.08-.1-.2-.251-.368-.374-.567-.049.029-.06-.045-.088-.072a.086.086,0,0,1-.082-.014l-.021.025-.029-.021c0,.025-.023.029-.053.035a.117.117,0,0,0-.109-.039c-.025,0-.027-.027-.031-.051-.078.01-.113-.039-.191-.029-.023,0-.027-.021-.029-.049-.105.012-.185.021-.29.035,0,.025.035.074-.014.107-.06-.045-.109-.012-.162-.006-.019.08-.093.121-.06.2,0,.025-.025.027-.053.031.037.1,0,.21.06.311.041.156.078.553.125.508a2.031,2.031,0,0,0,.088.345c0,.023.068.051.043.078a.321.321,0,0,1,0,.043s0,0,0,0c-.062.014-.09.084-.132.091,0-.018-.025-.016-.047-.01-.016.025-.058.031-.068.074-.064.018-.084.078-.121.123l-.023-.014c-.074.066-.181.062-.237.146a3.408,3.408,0,0,1-.352.121c-.021.006-.039.008-.045-.016-.018.039-.107.008-.123.047a2.254,2.254,0,0,0-.364.023c0-.033-.068.008-.068-.031-.105.041-.214-.016-.321-.016-.021-.021-.064-.021-.086-.056a.244.244,0,0,1-.237-.062c-.064,0-.111-.056-.171-.074v-.039l-.045-.041c0-.056.064-.056.105-.074.047-.056.164-.043.2-.1,0-.018.058-.056.058-.076.021-.037.037-.074.056-.074.066-.039.023-.082.111-.1,0-.018.064-.064.047-.084.084-.06.08-.091.105-.208.043-.056.105-.119.105-.195.021-.02-.006-.1.039-.125.021-.129-.035-.2-.035-.337a.423.423,0,0,1-.043-.039c0-.058-.045-.1-.023-.152-.064-.056-.047-.074-.113-.132l-.035-.039h-.045c-.021-.039-.086-.058-.086-.1a1.157,1.157,0,0,1-.259-.115l-.019.021-.023-.021a.518.518,0,0,1-.047.043c0-.062-.06,0-.084-.043-.045,0-.088-.019-.127.021-.13-.041-.271.027-.4-.033,0,.039-.088-.017-.088.039-.041.019-.1.018-.127.037H210.5a.346.346,0,0,1-.251.127c-.041,0,0,.056-.041.056h-.045a2.268,2.268,0,0,1-.323.286c0,.019-.043.039-.021.078,0,.019-.021.019-.045.019a.091.091,0,0,1-.043.074c0,.019,0,.039.023.039,0,.019-.033.068-.053.068-.023.076-.023.156-.086.191,0,.152-.045.226-.056.393a1.665,1.665,0,0,1,.023.3c.068.043-.016.041.029.1.023,0,.012.033.012.056.023.039.092.068.07.109,0,.018.039.037.058.037.021.039-.035.084.012.1,0,.023.072.006.047.045l.041.088a.5.5,0,0,1,.1.086.221.221,0,0,0,.088.1.424.424,0,0,1,.078.039l.027.051.064.062c.066.018.078-.021.13.049.021,0,.045,0,.045.021l.023-.021c.023.045.068.062.088.082a.244.244,0,0,1,.171.062c.023,0,.025.047.025.027.07.016.115.064.162.021.023,0,.045,0,.045.023l.021-.023c.047-.018.056.037.1.016.023,0,.023.019.023.039h.043c.047.039.236-.014.282.031a3.206,3.206,0,0,0,.668-.031c0-.039.064,0,.068-.033l.021.018c.084.025.175-.074.257-.029a.28.28,0,0,1,.045-.039c.043-.016.105.06.152.008,0,.018.021.019.043.019v-.037c.066-.033.146-.025.195-.08.023,0,.064.01.086.01l.047-.033c.113-.029.208-.117.337-.144.019-.023.06-.025.082-.068a.6.6,0,0,1,.064-.006c.019-.019.041-.041.058-.062.068.014.127-.08.191-.088,0-.016-.01-.039.014-.039l.021.012c.041-.021.041-.021.056-.066l.014,0a.274.274,0,0,1,.035.152c.027,0,.053-.006.054.021l-.047.056c.027,0,.027.021.033.049-.025,0-.023.027-.019.053.023,0,.027.021.029.047-.021.027-.021.027-.043.056,0,.027.027.025.051.025.029.041-.062.082-.012.1-.012.128.039.267-.033.374-.049-.021.01.146.008.093,0,.055-.033.22-.08.249v.051c.025,0-.027.051-.027.023l.023.027c-.023.076.01.064-.064.117,0,.029,0,.055,0,.08-.047.025,0,.113-.025.138l-.023-.023c-.025,0-.019.023-.019.047.025,0,.033.014.035.039-.053.051.08.051.023.1l-.066,0a.041.041,0,0,0,.021.008c-.018.025.012.1-.049.08,0,.051-.088.123-.121.173.053-.023.043-.016.047,0,.021.029-.043.051-.037.051,0,.016-.049.031-.068.049-.091.175-.047.066-.107.162-.023-.008-.051.08-.051.056.023,0-.019.018-.014-.006a.607.607,0,0,0-.058.047c.021.051.068.078-.012.127-.025,0-.019-.027-.018-.055-.055.021-.056.074-.086.1a.222.222,0,0,0,0,.051.932.932,0,0,1-.146.154l-.053,0a.117.117,0,0,0-.031.076c0,.023-.029.023-.053.021s-.045.027-.045,0c-.023,0-.016.045-.066.068l.019.035c-.053.023-.039.031-.088.031-.006.049-.111.049-.119.1.021.053.068.053.092.1l.1.008c.021.055-.074.014-.029.066.027,0,.066.008.064.033l-.031.021c.027,0-.023.031,0,.055.023,0,.08.053.1.08l.027-.023c.021.025.051.019.047.047.053,0,.134.035.185-.012.023,0,.091-.045.09-.019.047.027.027-.051.082-.072s.1-.049.154-.07c.191-.218.473-.3.664-.522.037-.01.041-.008.058-.027l0-.029c0-.027.029-.027.051-.027a.146.146,0,0,1,.06-.1c-.021-.006.084-.056.056-.084a1.045,1.045,0,0,1,.111-.123c.027,0,.027-.027.027-.053.047-.027.047-.027.074-.08a.205.205,0,0,0,.047,0l-.025-.023c-.025-.049.051-.031.051-.078s.107-.078.082-.125c.047-.078.111-.107.158-.185-.027-.1.055-.16.129-.214,0-.025,0-.051-.025-.047.023-.051.045-.13.07-.183l-.027-.027c.051-.025.023-.074.023-.1.047-.055.07-.107.119-.156a.093.093,0,0,0-.027-.076l.049-.056a.34.34,0,0,1,.125-.2l-.027-.025c.053-.056,0-.109-.031-.158,0-.027,0-.054.023-.054l.029.025.025-.027-.027-.025c.053-.082.008-.2.082-.257a.092.092,0,0,0-.033-.076c.072-.06-.014-.132.033-.191,0-.017,0-.049-.025-.041m-4-1.281c-.043.021,0,.06-.043.08l.021.019a.793.793,0,0,1-.347.549c-.023,0-.045,0-.045-.027s-.045-.1-.021-.138c0-.018-.023-.018-.043-.018.043-.043-.029-.084-.008-.14-.021,0-.021-.027-.021-.043.064-.043.014-.144.078-.185l-.025-.021a.831.831,0,0,1,.1-.144v-.041a.919.919,0,0,1,.312-.156c.021,0,.043,0,.043.02.064.084.019.165,0,.245" transform="translate(-151.048 -246.884)"/>
    </g>
    <g id="그룹_411" data-name="그룹 411" transform="translate(-91 -53.01)" clip-path="url(#clip-path)">
      <path id="패스_1025" data-name="패스 1025" d="M198.29,308.7l0,.008s0-.008,0-.008" transform="translate(-141.972 -238.283)"/>
    </g>
    <g id="그룹_412" data-name="그룹 412" transform="translate(-91 -53.01)" clip-path="url(#clip-path)">
      <path id="패스_1026" data-name="패스 1026" d="M182.56,307.734c0-.031-.047-.01-.037-.027l-.01-.019c-.019-.014.006-.043.014-.062-.008-.055-.062.008-.09-.033l.049-.068c-.021-.043-.113-.062-.15-.09-.027.037-.021.021-.066.045l-.016-.037c-.043.027-.068,0-.08.016.019.014-.012.01-.021.025s-.025.035-.045.021a.1.1,0,0,0-.066-.016.336.336,0,0,1-.027.033.92.92,0,0,1-.421-.012.382.382,0,0,0-.062.019c.018.01-.014.031,0,.014.019.008-.053-.01-.068.008-.1,0-.31.021-.269,0-.051,0-.144.023-.183,0-.014.062-.07-.02-.1,0-.008,0-.039,0-.025,0l0,.023c-.06.016-.064-.039-.127-.018-.019-.006-.029-.016-.016-.037-.021-.008-.035-.019-.047,0l.012.027c-.031.01-.078-.053-.121-.023l-.062-.025a.5.5,0,0,1-.218.045l-.01-.019c-.008.01-.035.025-.029.01a.069.069,0,0,1-.043-.01.407.407,0,0,1-.232.025c.045.01-.088-.076-.078-.033-.109.043-.234-.019-.348-.019,0-.043-.056.027-.09,0,.008-.018.016-.039-.01-.043-.027.016-.051.01-.074.027-.021,0-.047-.01-.039-.027-.021,0-.045-.006-.049.016-.025,0-.047-.006-.037-.027l-.086.056c-.021,0-.018-.021-.01-.043-.1.016-.148-.068-.249-.039.006-.019-.016-.021-.039-.023-.082.055-.2,0-.276.033-.014-.039-.064-.021-.109-.021-.025.021-.045-.033-.064-.033a2.485,2.485,0,0,0-.3-.045c.041-.041-.308-.043-.442-.066-.082-.051-.187,0-.273-.029-.006.023-.012.045-.033.045-.064-.027-.105.043-.175.062-.01.045-.056.064-.043.1-.033.045-.037.055-.06.055-.021.086-.035.076-.058.16.025,0,.049,0,.043.027-.018.062.021.088.006.154.021,0,.043,0,.041.023a.1.1,0,0,0,.021.091c-.006.02-.01.039-.033.039l.016.025-.025.02a.062.062,0,0,1,0,.066c.019.021.086.025.056.07a4.964,4.964,0,0,0,.461.282c.023,0,.049,0,.068,0,.111.111.331.08.477.152.056-.045.121-.016.175-.035l.031.045c.128-.037.2.027.319.019a.4.4,0,0,1,.06-.039c.023,0,.047.006.039.027l.029-.019.014.021.033-.016c-.008.018.016.023.037.025.058-.037.093.012.162-.043.016.023.039.025.062.031.068-.058.09,0,.175-.025l.014.027.029-.016-.014-.027c0-.014.014-.016.025-.016a1.628,1.628,0,0,0,.1.358c.018,0,.041.043.051.066a.325.325,0,0,1-.006.043c.027.047.051.091.08.142-.019,0-.025.016-.029.035.021.068.021.14.043.208.027.023-.008.037.027.068,0,0-.021.039-.016.045a.109.109,0,0,0,.01.074c.012.07.008.014.056.066-.045.054.033.146-.016.2.027.029.029-.006.035.012a.056.056,0,0,1-.019.029c-.008.014.01.021.025.029.018.039-.012.064.01.1.016,0,0,.053.018.056.006.039.053.051.006.076-.016,0-.006.072-.023.121a.314.314,0,0,1,0,.121c.016.006.027-.016.021,0a.216.216,0,0,1-.014.031c.019,0,.018.037.012.051,0,.056-.033.08-.053.129-.021.111.037.195-.037.234.029.021-.006.051-.012.068-.023.01-.018.064-.039.074-.029.068-.041.062-.068.127-.045.027-.049.053-.093.082a.116.116,0,0,0-.014.031c-.008.016-.021.012-.037.008-.029.031-.128.078-.142.109l.01.017a.846.846,0,0,0-.142.068,1.054,1.054,0,0,1-.183.074c-.058-.016-.111.029-.169.014-.023.014-.047.021-.068.033-.029-.01-.076.016-.1-.01-.029-.008-.023.049-.055.041a.1.1,0,0,0-.025-.01l-.01-.018c-.045.021-.08,0-.129.018l0-.018c-.045.021-.084,0-.113.025a.4.4,0,0,0-.187-.023c.008-.018-.006-.021-.023-.021l-.021.016c.008-.016-.127-.008-.142-.01l-.033,0-.008-.017-.023.014c-.023-.023-.185-.039-.222-.08-.031.027-.058.016-.093,0a1.366,1.366,0,0,1-.337-.072l-.01-.021a.13.13,0,0,1-.154-.045.35.35,0,0,1-.06-.008c-.018-.045-.132-.037-.144-.076a.5.5,0,0,1-.082-.07c-.037.021-.13-.09-.148-.1h-.062l-.023-.07-.084-.062c-.031-.062-.066-.01-.078-.064s-.072-.054-.1-.054-.074.054-.1.01a.436.436,0,0,1-.091.1.151.151,0,0,1-.084.023c-.016.066-.023.07.037.222.023.006.053.148.078.158-.012-.055.076.123.1.146l.037.008c.016,0,.008.021,0,.039l.078.055c.008.021.025.027.006.058a.487.487,0,0,1,.15.062c.016.01,0,.023-.006.035.019.008.035.014.045,0,.045,0,.014.047.019.066l.027-.008c.008.021.041.037.041.037.053.076.31.177.374.251l.023-.016c.021.043.134.051.134.1l.021-.016c.014.019.183.054.232.08.023-.014-.008-.039.016-.051.027.021.084.078.113.1a.9.9,0,0,1,.127.019c.064.07.2.027.282.062a.051.051,0,0,0,.041.027l.027-.012.012.018c.053-.023.076,0,.113-.027l.01.019.025-.014.019.043c.072.016.132.051.208.01.008.023.027.025.043.027l.051-.023c.053.012.064.033.123.027l.012.021a.258.258,0,0,1,.2-.012c.016-.033.053.014.07-.018l.008.018c.058-.043.148-.018.206-.023l.012.023c.027-.016.016,0,.016,0,.053-.023.177-.025.21-.051a.259.259,0,0,0,.16.017c.021,0,.058.016.078.018a.19.19,0,0,1,.212-.014,1.248,1.248,0,0,0,.269-.107l.058.018c.027-.012.049-.006.068-.039a.823.823,0,0,0,.228-.111c.006.021.055-.02.062,0a.108.108,0,0,0,.023-.031c.037.014.068-.037.1-.021l.019-.033c.06-.018.035-.033.092-.053.049-.037.121-.156.236-.2-.006-.037.072-.056.086-.088s.029-.012.051-.008l-.012-.023c.025-.014.019-.066.047-.043.006-.016.039-.06.025-.062.053-.043.053-.185.134-.2a.073.073,0,0,1,.014-.031c.031-.043.019-.121.037-.132s0-.027.016-.025c.019-.066.033-.162.053-.251-.018,0-.01-.021,0-.039.016,0,.025-.012.031-.027-.016-.006-.01-.02,0-.039l.027-.014c-.037,0,0-.053-.031-.056l.019-.014c-.029-.08.014-.162-.014-.239l.025-.014a.1.1,0,0,1,0-.14.047.047,0,0,1,0-.054c-.047-.027.012-.058-.021-.082.021-.049-.039-.1,0-.146-.023-.041-.029-.06-.051-.1a.485.485,0,0,0,.014-.051c-.016,0-.035-.006-.029-.025.029-.033,0-.056.008-.09-.029,0-.016-.035-.023-.056a.485.485,0,0,0-.093-.237c.023-.035-.023-.171-.021-.214l-.031-.017a.165.165,0,0,0-.066-.086.332.332,0,0,0,0-.045c-.014,0-.033,0-.029-.021a.317.317,0,0,0,0-.043l-.018.021a.118.118,0,0,1-.045-.111c-.062-.088-.086-.152-.175-.275-.035.019,0-.07-.041-.047a.472.472,0,0,0-.15-.2.384.384,0,0,0,.006-.039.14.14,0,0,1-.041,0s0,0-.008-.006a.5.5,0,0,1,.132-.041c.029.039.092-.035.13-.014s.037-.035.064,0l.006.027a.278.278,0,0,0,.023-.035.1.1,0,0,0,.092-.016c.018.01.039.021.049.006a.6.6,0,0,1,.146-.033c0,.027.049-.012.039,0a.173.173,0,0,1,.1.01c.012-.012.025-.031.043-.021l.023.018a.134.134,0,0,0,.047-.027c.251-.023.389-.146.639-.146.049-.019.09-.041.134-.062s.08.037.088-.01c-.014-.012.055-.027.068-.047.06-.008.1-.113.123-.148-.019-.008,0-.025-.008-.056l.033,0a.4.4,0,0,1-.008-.165" transform="translate(-123.983 -237.099)"/>
    </g>
    <g id="그룹_413" data-name="그룹 413" transform="translate(-91 -53.01)" clip-path="url(#clip-path)">
      <path id="패스_1027" data-name="패스 1027" d="M300.531,305.761a4.157,4.157,0,0,0,1.458-3.559v-.94h-1.182c-.239,0-.343-.21-.343-.461s.111-.448.343-.448h3.325c.222,0,.345.2.345.448s-.113.461-.345.461h-1.17v.921a3.915,3.915,0,0,0,1.478,3.465.538.538,0,0,1,.047.7.406.406,0,0,1-.594.1,3.686,3.686,0,0,1-1.411-2.038,3.7,3.7,0,0,1-1.392,2.153.426.426,0,0,1-.6-.125.536.536,0,0,1,.045-.674m4.606-5.743c0-.243.195-.385.475-.385s.465.142.465.385v8.114c0,.292-.189.426-.465.426s-.475-.132-.475-.426v-4.526H304.1c-.226,0-.352-.195-.352-.475,0-.308.128-.485.352-.485h1.04Zm1.791-.171a.412.412,0,0,1,.465-.4c.286,0,.481.152.481.4v8.5c0,.292-.185.422-.481.422-.278,0-.465-.13-.465-.422Z" transform="translate(-224.194 -230.834)"/>
    </g>
    <g id="그룹_414" data-name="그룹 414" transform="translate(-91 -53.01)" clip-path="url(#clip-path)">
      <path id="패스_1028" data-name="패스 1028" d="M348.323,310.271c0,.3-.224.444-.508.444-.3,0-.512-.142-.512-.444v-2.93h-3.165c-.2,0-.327-.193-.327-.465s.123-.456.327-.456h7.335c.222,0,.333.193.333.456s-.111.465-.333.465h-3.148v2.93Zm-3.158-4.647a.439.439,0,0,1-.559-.306c-.082-.261,0-.574.241-.635,1.273-.255,2.321-.94,2.387-2.173h-2.21c-.241,0-.335-.222-.335-.463s.113-.458.335-.458H350.6c.224,0,.345.2.345.458s-.1.463-.345.463h-2.219c.074,1.244,1.211,1.929,2.414,2.163a.447.447,0,0,1,.241.617.439.439,0,0,1-.555.313,3.613,3.613,0,0,1-2.665-1.768,3.5,3.5,0,0,1-2.655,1.787" transform="translate(-259.162 -232.557)"/>
    </g>
    <g id="그룹_415" data-name="그룹 415" transform="translate(-91 -53.01)" clip-path="url(#clip-path)">
      <path id="패스_1029" data-name="패스 1029" d="M391.624,300.221v1.221a4.121,4.121,0,0,0,1.885,3.81.493.493,0,0,1,.1.677.405.405,0,0,1-.641.152,4.3,4.3,0,0,1-1.832-2.354,4.337,4.337,0,0,1-1.838,2.5.436.436,0,0,1-.633-.152.471.471,0,0,1,.086-.677,4.231,4.231,0,0,0,1.847-3.923v-1.252c0-.263.214-.393.512-.393s.512.132.512.4m3.917-.364v8.48c0,.292-.195.444-.495.444a.425.425,0,0,1-.481-.444v-8.48c0-.255.193-.407.481-.407s.495.152.495.407" transform="translate(-295.202 -230.834)"/>
    </g>
    <g id="그룹_416" data-name="그룹 416" transform="translate(-91 -53.01)" clip-path="url(#clip-path)">
      <path id="패스_1030" data-name="패스 1030" d="M431.293,303.9a2.706,2.706,0,0,0,1.737-2.741v-.173h-1.54c-.232,0-.333-.222-.333-.463s.111-.456.333-.456h4.123c.234,0,.343.214.343.456s-.1.463-.343.463h-1.577v.173a2.581,2.581,0,0,0,1.838,2.556.5.5,0,0,1-.428.882,3.133,3.133,0,0,1-1.867-1.731,3.2,3.2,0,0,1-1.847,1.9.441.441,0,0,1-.6-.232.45.45,0,0,1,.165-.635m3.781,5.04c-1.867,0-2.858-.676-2.858-1.859s.991-1.877,2.858-1.877,2.87.685,2.87,1.877-.993,1.859-2.87,1.859m0-2.887c-1.207,0-1.84.382-1.84,1.028,0,.629.633,1.02,1.84,1.02s1.857-.391,1.857-1.02c0-.646-.64-1.028-1.857-1.028m1.781-6.2a.43.43,0,0,1,.485-.407c.278,0,.493.152.493.407v1.96h1.084c.234,0,.337.181.337.452s-.1.465-.337.465h-1.084v2c0,.3-.2.436-.493.436s-.485-.13-.485-.436Z" transform="translate(-329.432 -230.834)"/>
    </g>
    <g id="그룹_417" data-name="그룹 417" transform="translate(-91 -53.01)" clip-path="url(#clip-path)">
      <path id="패스_1031" data-name="패스 1031" d="M477.11,306.456c-1.464,0-1.89-1.5-1.89-3.164s.426-3.165,1.89-3.165,1.9,1.485,1.9,3.165-.426,3.164-1.9,3.164m0-5.406c-.761,0-.956,1.008-.956,2.243s.195,2.245.956,2.245.958-1.012.958-2.245-.2-2.243-.958-2.243m4.515-1.2c0-.245.2-.4.475-.4s.483.152.483.4v8.5c0,.292-.193.422-.483.422s-.475-.13-.475-.422v-4.581h-.991v4.367c0,.292-.189.426-.475.426s-.475-.132-.475-.426V300.02c0-.243.195-.386.475-.386s.475.142.475.386v2.807h.991Z" transform="translate(-364.99 -230.834)"/>
    </g>
    <g id="그룹_418" data-name="그룹 418" transform="translate(-91 -53.01)" clip-path="url(#clip-path)">
      <path id="패스_1032" data-name="패스 1032" d="M522.192,300.018a2.263,2.263,0,1,1,0,4.526,2.263,2.263,0,1,1,0-4.526m0,3.648a1.384,1.384,0,1,0-1.335-1.382,1.275,1.275,0,0,0,1.335,1.382m-.964,2.194c0-.263.222-.4.5-.4s.512.142.512.4v1.82c0,.169.027.2.195.2h4.252c.234,0,.345.181.345.456,0,.255-.111.456-.345.456h-4.456c-.7,0-1-.093-1-.81Zm4.542-6a.5.5,0,0,1,.981,0v5.975c0,.3-.2.444-.491.444s-.491-.14-.491-.444Z" transform="translate(-400.98 -230.834)"/>
    </g>
    <g id="그룹_419" data-name="그룹 419" transform="translate(-91 -53.01)" clip-path="url(#clip-path)">
      <path id="패스_1033" data-name="패스 1033" d="M563.626,306.336a.429.429,0,0,1-.652-.154.483.483,0,0,1,.113-.679,3.8,3.8,0,0,0,1.8-3.526v-.757h-1.577c-.241,0-.345-.22-.345-.473s.121-.457.345-.457H567.5c.224,0,.343.22.343.457,0,.253-.1.473-.343.473h-1.589v.769a3.493,3.493,0,0,0,1.869,3.366.487.487,0,0,1,.1.668.408.408,0,0,1-.642.183,3.979,3.979,0,0,1-1.82-2.184,4.066,4.066,0,0,1-1.789,2.315m6.208-6.479v8.48c0,.292-.193.444-.491.444a.428.428,0,0,1-.485-.444v-8.48c0-.255.2-.407.485-.407s.491.152.491.407" transform="translate(-435.587 -230.834)"/>
    </g>
    <g id="그룹_420" data-name="그룹 420" transform="translate(-91 -53.01)" clip-path="url(#clip-path)">
      <path id="패스_1034" data-name="패스 1034" d="M612.555,299.857c0-.255.214-.407.495-.407a.443.443,0,0,1,.483.407V304.5c0,.3-.2.436-.483.436-.31,0-.495-.14-.495-.436v-.888H610.55a2.186,2.186,0,0,1-1.781.808,2.263,2.263,0,0,1,0-4.526,2.179,2.179,0,0,1,1.781.806h2.005Zm-3.786,3.7a1.4,1.4,0,1,0-1.291-1.4,1.279,1.279,0,0,0,1.291,1.4m4.764,5.091c0,.255-.232.393-.5.393s-.51-.138-.51-.393v-2.1c0-.162-.019-.181-.177-.181h-4.226c-.241,0-.35-.183-.35-.458s.111-.454.35-.454h4.663c.547,0,.753.152.753.781v2.412Zm-2.583-5.92h1.606v-1.143h-1.606a3.09,3.09,0,0,1,.066.588,2.493,2.493,0,0,1-.066.555" transform="translate(-470.728 -230.834)"/>
    </g>
    <g id="그룹_421" data-name="그룹 421" transform="translate(-91 -53.01)" clip-path="url(#clip-path)">
      <path id="패스_1035" data-name="패스 1035" d="M651.636,300.221v1.244a4.072,4.072,0,0,0,1.855,3.8.5.5,0,0,1,.109.679.41.41,0,0,1-.641.16,4.26,4.26,0,0,1-1.818-2.363,4.148,4.148,0,0,1-1.811,2.5.43.43,0,0,1-.631-.144.482.482,0,0,1,.091-.687,4.207,4.207,0,0,0,1.81-3.911v-1.273c0-.263.224-.393.51-.393.315,0,.524.13.524.393m3.74-.364v2.9h1.114c.24,0,.333.193.333.465s-.093.463-.333.463h-1.114v4.651c0,.292-.2.444-.493.444a.427.427,0,0,1-.483-.444v-8.48c0-.255.2-.407.483-.407s.493.152.493.407" transform="translate(-504.615 -230.834)"/>
    </g>
    <g id="그룹_422" data-name="그룹 422" transform="translate(-91 -53.01)" clip-path="url(#clip-path)">
      <path id="패스_1036" data-name="패스 1036" d="M693.16,307.245c-.212,0-.36-.164-.36-.454a.39.39,0,0,1,.36-.438h1.96v-.859c-1.022-.121-1.569-.637-1.569-1.435,0-.921.726-1.476,2.062-1.476,1.318,0,2.052.555,2.052,1.476,0,.808-.557,1.324-1.569,1.443v.831a11.643,11.643,0,0,0,1.968-.234.5.5,0,0,1,.093-.008c.195,0,.335.164.335.467a.353.353,0,0,1-.241.382,12.193,12.193,0,0,1-2.807.3H693.16Zm.171-5.093c-.241,0-.335-.183-.335-.434s.1-.436.335-.436h4.557c.234,0,.345.191.345.436s-.1.434-.345.434Zm1.254-1.557c-.241,0-.345-.191-.345-.446,0-.273.13-.426.345-.426h2.033c.222,0,.333.183.333.426,0,.261-.111.446-.333.446Zm1.03,4.215c.734,0,1.123-.284,1.123-.748s-.389-.757-1.123-.757-1.133.29-1.133.757.389.748,1.133.748m3.341-4.953c0-.255.206-.407.485-.407.3,0,.491.152.491.407v8.47c0,.3-.193.444-.491.444s-.485-.142-.485-.444Z" transform="translate(-540.212 -230.834)"/>
    </g>
    <g id="그룹_423" data-name="그룹 423" transform="translate(-91 -53.01)" clip-path="url(#clip-path)">
      <path id="패스_1037" data-name="패스 1037" d="M736.928,301.58c0-.594.173-.82.779-.82h4.587c.232,0,.352.152.352.424s-.121.436-.352.436h-4.188c-.158,0-.175.02-.175.2v.545h4.232c.232,0,.345.13.345.409s-.113.413-.345.413H737.93v.528c0,.179.018.212.175.212h4.236c.234,0,.352.152.352.424s-.121.434-.366.434h-2.077v.738h3.167c.216,0,.319.212.319.434s-.1.432-.319.432h-7.363c-.214,0-.315-.2-.315-.432s.1-.434.315-.434h3.177v-.738h-1.524c-.549,0-.779-.171-.779-.818V301.58Zm2.813,5.264c1.953,0,2.934.555,2.934,1.608s-.981,1.6-2.934,1.6-2.943-.555-2.943-1.6.983-1.608,2.943-1.608m0,2.365c1.328,0,1.9-.265,1.9-.757s-.576-.767-1.9-.767-1.912.273-1.912.767.584.757,1.912.757" transform="translate(-574.792 -231.889)"/>
    </g>
    <g id="그룹_424" data-name="그룹 424" transform="translate(-91 -53.01)" clip-path="url(#clip-path)">
      <path id="패스_1038" data-name="패스 1038" d="M779.373,301.9c-.241,0-.333-.179-.333-.415,0-.253.111-.415.333-.415h4.513c.234,0,.343.173.343.415s-.1.415-.343.415Zm2.313.354c1.32,0,2.036.545,2.036,1.4s-.716,1.4-2.036,1.4-2.044-.557-2.044-1.4.707-1.4,2.044-1.4m-1.094-1.81c-.232,0-.325-.171-.325-.415s.1-.4.325-.4h2.136c.222,0,.333.171.333.4s-.1.415-.333.415Zm-.15,5.428c0-.243.22-.374.493-.374s.481.132.481.374v.625h3.5v-.625c0-.243.214-.374.473-.374.278,0,.492.132.492.374v2.385c0,.576-.214.757-.788.757H781.22c-.576,0-.781-.191-.781-.767V305.87Zm1.244-1.526c.724,0,1.106-.273,1.106-.687s-.382-.689-1.106-.689-1.113.267-1.113.689.38.687,1.113.687m-.271,2.951v.677c0,.2.018.22.187.22h3.121c.167,0,.195-.016.195-.22V307.3Zm3.492-7.448c0-.253.214-.4.485-.4s.492.144.492.4v2.365h1.086c.242,0,.335.181.335.456s-.093.454-.335.454h-1.086v1.548c0,.29-.195.436-.492.436s-.485-.144-.485-.436Z" transform="translate(-609.663 -230.834)"/>
    </g>
    <g id="그룹_425" data-name="그룹 425" transform="translate(-91 -53.01)" clip-path="url(#clip-path)">
      <path id="패스_1039" data-name="패스 1039" d="M826.321,303.548h-1.507c-.555,0-.786-.13-.786-.794v-1.5c0-.607.175-.8.779-.8h4.552c.232,0,.341.162.341.444s-.109.434-.341.434h-4.121c-.179,0-.2.031-.2.212v.9c0,.181.029.22.2.22h4.139c.241,0,.352.162.352.438s-.121.44-.352.44h-2.034v.822h3.16c.214,0,.317.21.317.432s-.1.444-.317.444h-7.355c-.222,0-.315-.212-.315-.444s.093-.432.315-.432h3.177v-.823Zm3.344,5.4c.222,0,.335.173.335.426s-.113.454-.335.454h-4.8c-.574,0-.88-.142-.88-.75v-.97c0-.454.138-.685.631-.685h3.843c.148,0,.167-.01.167-.142v-.407c0-.13-.019-.152-.167-.152h-4.186c-.224,0-.337-.169-.337-.42s.113-.436.337-.436h4.688c.529,0,.685.253.685.738v.849c0,.528-.185.748-.685.748H825.17c-.148,0-.167.02-.167.152v.436c0,.14.019.162.167.162h4.5Z" transform="translate(-644.928 -231.647)"/>
    </g>
    <g id="그룹_426" data-name="그룹 426" transform="translate(-91 -53.01)" clip-path="url(#clip-path)">
      <path id="패스_1040" data-name="패스 1040" d="M869.843,303.82h-1.336c-.853,0-.956-.183-.956-.962v-2.4c0-.241.232-.372.492-.372.288,0,.512.13.512.372v.7h3.592v-.7c0-.241.241-.372.494-.372.3,0,.508.13.508.372v2.406c0,.862-.212.952-.958.952h-1.328v.816h3.167c.214,0,.317.224.317.459s-.1.44-.317.44h-7.353c-.224,0-.319-.21-.319-.44s.093-.459.319-.459h3.162v-.816Zm-2.338,3.255c0-.617.195-.82.771-.82h3.956c.66,0,.995.072.995.827v1.526c0,.637-.195.839-.781.839h-4.17c-.574,0-.771-.2-.771-.839Zm1.219.049c-.168,0-.206.039-.206.208v1.024c0,.183.039.212.206.212h3.294c.158,0,.195-.027.195-.212v-1.024c0-.169-.037-.208-.195-.208Zm-.168-4.4c0,.2.025.222.195.222h3.193c.187,0,.2-.021.2-.234v-.7h-3.592Z" transform="translate(-679.983 -231.349)"/>
    </g>
    <g id="그룹_427" data-name="그룹 427" transform="translate(-91 -53.01)" clip-path="url(#clip-path)">
      <path id="패스_1041" data-name="패스 1041" d="M912,306.336a.427.427,0,0,1-.65-.154.481.481,0,0,1,.113-.679,3.8,3.8,0,0,0,1.8-3.526v-.757h-1.577c-.243,0-.345-.22-.345-.473s.121-.457.345-.457h4.186c.222,0,.343.22.343.457,0,.253-.1.473-.343.473h-1.587v.769a3.494,3.494,0,0,0,1.865,3.366.483.483,0,0,1,.1.668.406.406,0,0,1-.64.183,3.963,3.963,0,0,1-1.82-2.184A4.062,4.062,0,0,1,912,306.336m6.212-6.479v8.48c0,.292-.195.444-.492.444a.427.427,0,0,1-.483-.444v-8.48c0-.255.2-.407.483-.407s.492.152.492.407" transform="translate(-716.143 -230.834)"/>
    </g>
    <g id="그룹_428" data-name="그룹 428" transform="translate(-91 -53.01)" clip-path="url(#clip-path)">
      <path id="패스_1042" data-name="패스 1042" d="M956.148,306.032V304.66h-2c-.2,0-.343-.175-.343-.465,0-.273.14-.457.343-.457h2.469a10.085,10.085,0,0,0,2.35-.255c.195-.051.37.084.409.346s-.027.461-.232.524a8.2,8.2,0,0,1-2.028.284v1.423c0,.265-.2.4-.489.4a.607.607,0,0,1-.345-.091V307.7c0,.181.027.2.185.2h4.484c.236,0,.356.181.356.456s-.121.452-.356.452h-4.92c-.547,0-.771-.162-.771-.808v-1.678c0-.265.232-.4.512-.4a.663.663,0,0,1,.372.115m.463-2.819c-1.306,0-2.126-.658-2.126-1.758s.82-1.75,2.126-1.75,2.128.656,2.128,1.75-.818,1.758-2.128,1.758m0-2.679c-.751,0-1.17.345-1.17.933s.419.919,1.17.919,1.172-.343,1.172-.919-.417-.933-1.172-.933m4.45-.677V306.5c0,.3-.2.426-.485.426s-.491-.13-.491-.426v-.553h-1.5c-.212,0-.335-.2-.335-.465s.121-.457.335-.457h1.5v-5.163c0-.255.2-.407.491-.407s.485.152.485.407" transform="translate(-750.409 -230.834)"/>
    </g>
    <g id="그룹_429" data-name="그룹 429" transform="translate(-91 -53.01)" clip-path="url(#clip-path)">
      <path id="패스_1043" data-name="패스 1043" d="M999.595,300.433v.81a2.868,2.868,0,0,0,1.409,2.776.393.393,0,0,1,.167.352.5.5,0,0,1-.419.549.355.355,0,0,1-.093-.021,2.917,2.917,0,0,1-1.552-1.664,3.148,3.148,0,0,1-1.3,1.756.809.809,0,0,1-.393.142.494.494,0,0,1-.428-.528.4.4,0,0,1,.169-.343c.816-.456,1.456-1.336,1.456-3.132v-.7c0-.261.185-.385.491-.385s.489.125.489.385m.123,5.476v1.772c0,.169.025.2.185.2h4.476c.234,0,.352.181.352.456,0,.255-.119.457-.352.457h-4.7c-.808,0-.985-.144-.985-.985v-1.9c0-.261.224-.4.512-.4s.51.142.51.4m2.981-5.891V305.8c0,.282-.2.415-.475.415-.308,0-.475-.162-.475-.415v-3.1h-.948c-.232,0-.352-.171-.352-.452,0-.327.123-.465.352-.465h.948v-1.77c0-.243.195-.385.475-.385s.475.144.475.385m1.808-.171V306c0,.294-.195.424-.483.424s-.471-.13-.471-.424v-6.154c0-.245.195-.4.471-.4s.483.152.483.4" transform="translate(-785.183 -230.834)"/>
    </g>
    <g id="그룹_430" data-name="그룹 430" transform="translate(-91 -53.01)" clip-path="url(#clip-path)">
      <path id="패스_1044" data-name="패스 1044" d="M1042.99,301c0-.607.177-.839.818-.839h2.914c.233,0,.354.2.354.473s-.121.456-.354.456h-2.508c-.195,0-.23.041-.23.234v1.353h2.414c.232,0,.345.193.345.457s-.113.455-.345.455h-2.414v1.5c0,.214.027.245.22.245a10.986,10.986,0,0,0,2.963-.245c.177-.051.364.07.409.335.047.284-.055.485-.23.543a12.2,12.2,0,0,1-3.547.3c-.576-.019-.808-.243-.808-.9V301Zm5.842-1.172a.429.429,0,0,1,.485-.413c.286,0,.491.158.491.413v8.48a.49.49,0,0,1-.975,0v-4.89h-1.32c-.23,0-.352-.183-.352-.467s.123-.465.352-.465h1.32Z" transform="translate(-822.227 -230.81)"/>
    </g>
  </g>
</svg>
