<svg xmlns="http://www.w3.org/2000/svg" width="206.334" height="65.509" viewBox="0 0 206.334 65.509">
  <g id="그룹_158" data-name="그룹 158" transform="translate(-89.18 -52.041)">
    <path id="패스_330" data-name="패스 330" d="M539.236,186.047H547.5v1.987h-8.259Zm-.248,11.039h8.732v3.205h-8.732Zm-2.255,5.011h13.246V195.28H536.733Zm.272-20.134v7.92h5.255v1.9h-7.2v1.854H551.67v-1.854h-7.2v-1.9h5.259v-7.92H547.5v2.259h-8.259v-2.259ZM518.256,193.79v1.739h10.982v1.6H518.275v5.144h13.766v-1.806H520.535v-1.691h10.939V193.79Zm-1.605-3.344v1.834H533.26v-1.834h-7.175v-1.758h5.527V186.9H520.778v-2.909h10.834v-1.829H518.547v6.525h5.3v1.758Zm-6.114,9.955h-8.168v-1.872h8.168Zm2.212,1.806v-7.471h-2.212v2.03h-8.168v-2.03h-2.207v7.471Zm-13.762-11.464c0,1.739,1.467,3.091,4.175,3.091h.969c2.728,0,4.194-1.352,4.194-3.091,0-1.763-1.466-3.115-4.194-3.115h-.969c-2.732,0-4.175,1.352-4.175,3.115m-.9-4.065H509v-1.739h-10.92Zm2.732-3.115h5.751V181.8h-5.751Zm.406,7.18c0-.836.654-1.581,2.006-1.581h.831c1.381,0,2.059.745,2.059,1.581,0,.788-.678,1.538-2.059,1.538h-.831c-1.352,0-2.006-.75-2.006-1.538m9.315-8.937v11.847h2.212v-4.084h2.708v-1.849h-2.708V181.8Zm-21.792,15.372c2.775,0,4.036.5,4.036,1.691s-1.261,1.715-4.036,1.715h-1.089c-2.771,0-4.036-.521-4.036-1.715s1.242-1.691,4.036-1.691Zm-1.108-1.787c-4.356,0-6.3,1.266-6.3,3.478,0,2.169,1.92,3.477,6.3,3.477h1.127c4.332,0,6.272-1.309,6.272-3.477,0-2.212-1.915-3.478-6.272-3.478ZM481.7,182.254v8.464h5.417v1.691H479.9V194.2h16.6v-1.787h-7.174v-1.691h5.6v-1.691H483.916v-1.648h10.538v-1.7H483.916v-1.691h10.872v-1.739Zm-17.148,1.605h5.756v-1.83h-5.756Zm.363,8.054a1.9,1.9,0,0,1,2.1-1.916h.836a1.928,1.928,0,1,1,0,3.836h-.836a1.9,1.9,0,0,1-2.1-1.92m-3.071-4.715H473v-1.806H461.847Zm12.682,14.989h2.235V181.781H474.53Zm-11.775-10.275c0,1.92,1.328,3.387,3.606,3.616v2.006c-1.443.048-3.023.067-4.848.048v1.92a66.443,66.443,0,0,0,12.047-.812l-.205-1.767a30.814,30.814,0,0,1-4.758.521v-1.916a3.628,3.628,0,0,0,3.539-3.616c0-2.03-1.6-3.607-4.242-3.607h-.927c-2.66,0-4.213,1.576-4.213,3.607M447.3,187.828a10.524,10.524,0,0,1-4.691,9.1c.382.588.788,1.175,1.194,1.767a11.6,11.6,0,0,0,4.672-6.1,11.152,11.152,0,0,0,4.806,5.756L454.4,196.5a9.646,9.646,0,0,1-4.805-8.67V182.55h-2.3Zm8.077-6.024v20.383h2.212V191.124h2.708v-1.872h-2.708V181.8Zm-17.664,4.357v2.885h-2.981a4.793,4.793,0,0,0,.115-.993v-.812a5.916,5.916,0,0,0-.115-1.08Zm-7.853-1.83a2.681,2.681,0,0,1,2.8,2.909v.769a2.684,2.684,0,0,1-2.8,2.914,2.723,2.723,0,0,1-2.8-2.914v-.769a2.693,2.693,0,0,1,2.8-2.909m-2.981,10.294v1.83H437.71v6h2.25v-7.834Zm2.981-12.214a4.751,4.751,0,0,0-4.987,4.829v.812a4.73,4.73,0,0,0,4.987,4.743,4.919,4.919,0,0,0,4.06-1.9h3.793v2.618h2.25V181.8h-2.25v2.508h-3.817a4.9,4.9,0,0,0-4.037-1.9m-10.49,19.776H421.6V181.781h-2.231Zm-7.38-9.549a11.059,11.059,0,0,0,4.763,5.756l1.17-1.786a9.827,9.827,0,0,1-4.806-8.641v-3.048h4.175v-1.944H406.618v1.944h4.218v3.024a10.318,10.318,0,0,1-4.758,9.028l1.261,1.648a11.082,11.082,0,0,0,4.648-5.981" transform="translate(-256.156 -104.872)" fill="#1a1311"/>
    <path id="패스_331" data-name="패스 331" d="M133,79.031l-23.789,21.605v19.126c7.657,7.676,15.272,6.019,19.595,3.979a83.981,83.981,0,0,1-9.831-8.374c-3.415-3.525-4.48-8.226-2.78-12.276a8.775,8.775,0,0,1,8.054-5.6h.038c2.107,0,5.121.755,8.269,4.06.43-.454.855-.86,1.276-1.227a21.17,21.17,0,0,1,7.07-4.347,17.073,17.073,0,0,1,10.184-.521Z" transform="translate(-16.196 -21.817)" fill="#fca500"/>
    <path id="패스_332" data-name="패스 332" d="M187.641,198.138a5.021,5.021,0,0,0-4.562-3.224h-.019a7.17,7.17,0,0,0-4.571,2.035c-.052.053-.086.086-.1.11l-.01-.015a15.952,15.952,0,0,0-2.059,2.288l-1.519,2.03-1.533-2.016c-2.135-2.818-4.538-4.366-6.764-4.366h-.01a5.018,5.018,0,0,0-4.557,3.262c-.421.994-1.51,4.519,2,8.135a56.2,56.2,0,0,0,10.92,8.851,56.107,56.107,0,0,0,10.853-8.942c3.478-3.65,2.36-7.16,1.935-8.149" transform="translate(-58.408 -115.488)" fill="#dd488e"/>
    <path id="패스_333" data-name="패스 333" d="M124.686,74.143a21.239,21.239,0,0,0-7.07,4.352c-.421.368-.845.774-1.28,1.228-3.143-3.306-6.157-4.065-8.264-4.065h-.038a8.78,8.78,0,0,0-8.054,5.6c-1.7,4.051-.635,8.751,2.78,12.276a84.484,84.484,0,0,0,9.831,8.374c-4.323,2.04-11.937,3.7-19.6-3.974V78.805L116.785,57.2,134.87,73.627a17.072,17.072,0,0,0-10.184.516m2.589,16.642h0a56.1,56.1,0,0,1-10.848,8.942A56.244,56.244,0,0,1,105.5,90.876c-3.511-3.621-2.422-7.141-2.006-8.13a5.018,5.018,0,0,1,4.557-3.267h.019c2.221,0,4.624,1.552,6.759,4.366l1.533,2.016,1.519-2.03a15.72,15.72,0,0,1,2.059-2.288l.01.01c.019-.014.053-.058.1-.105a7.177,7.177,0,0,1,4.571-2.04h.019a5.026,5.026,0,0,1,4.562,3.229c.425.989,1.543,4.5-1.935,8.149m-10.49-38.745L89.18,77.114v36.839h3.812V103.024a19.269,19.269,0,0,0,16.743,3.888,23.122,23.122,0,0,0,6.4-2.584,53.957,53.957,0,0,0,13.9-10.905c3.387-3.554,4.414-8.264,2.68-12.3a9.321,9.321,0,0,0-3.43-4.151c3.22-.32,7.07.487,11.221,3.807l.067-.086V101.3h3.817V77.114Z" transform="translate(0 0)" fill="#1a1311"/>
    <g id="그룹_156" data-name="그룹 156" transform="translate(118.379 108.54)">
      <path id="패스_334" data-name="패스 334" d="M310.815,346.832a.143.143,0,0,0-.046-.024c-.066-.013-.133.036-.233.117l-.081.059c-.275.148-.485.838-.531,1.119a.327.327,0,0,0-.032.016,1.2,1.2,0,0,0-.8-.6c.128.488.559,1.969,1.135,1.843a3.1,3.1,0,0,0,.9-1.97v-.026c0-.361-.171-.485-.316-.529" transform="translate(-296.138 -346.805)" fill="#ed6b00"/>
      <path id="패스_335" data-name="패스 335" d="M330.071,386.245a4.708,4.708,0,0,0-1.662.223.583.583,0,0,0-.265.183c.011.153-.081.387.058.441.009,0,.008.023.015.038.043.039.084.044.122.1.028.037.052,0,.08.013.012.013.018.037.03.037.071.032.135.022.2.055a.172.172,0,0,0,.1.029c.021-.009.047.039.055.053a.907.907,0,0,0,.383,0c.4-.007.327-.045.726-.053.334,0,.662.047,1,.043.179-.006.38,0,.559-.014.324-.019.645.033.967.036.162,0,.348.059.51.073a2.716,2.716,0,0,1,.519-.012.476.476,0,0,1,.17.023.4.4,0,0,0,.155.058,1.114,1.114,0,0,0,.446-.1,1.28,1.28,0,0,0,.261-.1.235.235,0,0,0,.091-.148.611.611,0,0,0,.034-.393c-.009,0-.03.01-.037,0s-.012-.079-.034-.082a1.477,1.477,0,0,0-.19-.045c-.088-.019-.172-.059-.26-.075a21.956,21.956,0,0,0-4.043-.383" transform="translate(-311.523 -378.68)" fill="#00905f"/>
      <path id="패스_336" data-name="패스 336" d="M253.095,386.394c.069.017.15.015.191.063s-.039.1-.033.15c0,.115.044.226.042.343a.075.075,0,0,1-.031.06.34.34,0,0,1-.089.084c-.1.063-.228.039-.347.072a2.688,2.688,0,0,1-.464.08,7.215,7.215,0,0,1-.827-.042.8.8,0,0,0-.318.042,1.31,1.31,0,0,1-.388.024c-.674-.024-1.335-.036-2.006-.033-.117.006-.247.02-.362.021-.54.032-1.08.021-1.619.036-.187.006-.376.012-.564.006-.107,0-.213.006-.307.009-.4.017-.808.039-1.209.021-.154,0-.317,0-.471,0a12.409,12.409,0,0,1-1.352.073,2.291,2.291,0,0,1-.943-.25,1.264,1.264,0,0,1-.484-.431.544.544,0,0,1,.32-.17c.3-.082.583-.134.883-.186.256-.043.491-.062.737-.086a60.669,60.669,0,0,1,8.265-.086,9.077,9.077,0,0,1,1.375.2" transform="translate(-241.514 -378.566)" fill="#0061b1"/>
      <path id="패스_337" data-name="패스 337" d="M328.017,366.277v.035c.025.072.084.092.141.148h.188c0-.034.045,0,.045-.034a.158.158,0,0,0,.136-.079h.032a.162.162,0,0,1,.138-.094c.078-.088.155-.18.229-.272a.1.1,0,0,1,.047-.095,3.362,3.362,0,0,1,.155-.515.842.842,0,0,0,.017-.187c.014,0,.027,0,.027-.017a.164.164,0,0,1,.062-.149c.032,0,.063,0,.078-.036v-.038a.326.326,0,0,1,.225.128h.1c0,.039.018.039.039.058a1.082,1.082,0,0,1,.34.017c0,.053.08.036.1.1a.624.624,0,0,0,.061.167.064.064,0,0,1-.02.052c.041.056.079.147.02.2.021.072,0,.167.041.238-.041.037-.02.1-.02.131a1.177,1.177,0,0,1,.059.26c.08.089.062.2.124.3v.109c.039,0,0,.058.039.058a2.289,2.289,0,0,1-.039.348.365.365,0,0,0-.062.058v.034c-.018,0-.041,0-.041-.019-.042.058-.1.1-.143.148-.042-.016-.062.02-.082.02-.04,0,0,.055-.04.055a.165.165,0,0,0-.1.038c-.038.017-.179-.019-.217.017l-.022-.017a.111.111,0,0,1-.079.036c0-.019,0-.036-.023-.036a.14.14,0,0,1-.161.072c-.018-.036-.009-.062-.058-.081a.807.807,0,0,0-.076-.317c.015,0,.015-.013.015-.033a.566.566,0,0,1-.048-.151c-.046-.066-.061-.165-.122-.216.017-.015-.033-.033-.016-.052l-.078-.08c-.03,0-.03.013-.043.033-.017.085-.094.15-.111.233l-.014-.017c-.013.049-.061.085-.061.135-.03.016-.047.065-.077.081v.034c-.109.1-.168.262-.3.333-.031.07-.112.084-.145.158a.6.6,0,0,0-.185.043c-.041-.023-.1-.061-.141-.023,0-.02-.021-.02-.04-.02l-.019.02c-.042-.037-.1,0-.162-.02a2.31,2.31,0,0,0-.4-.21c-.041,0,0-.062-.041-.062a.1.1,0,0,1-.061-.014c0-.06.021-.1-.039-.14l.02-.02c0-.02-.02-.02-.04-.02-.019-.117-.082-.212-.1-.328a.243.243,0,0,1-.041-.037.314.314,0,0,0-.041-.155c-.018-.081.049-.143.011-.219a.065.065,0,0,1,.018-.054.51.51,0,0,1,.02-.239c-.02,0-.02-.017-.02-.039a.456.456,0,0,0,.038-.22c.019-.057.06-.112.079-.167l-.019-.021c.039-.034.019-.09.078-.125,0-.021,0-.04-.021-.04,0-.038.039-.052.057-.074a.686.686,0,0,1,.14-.209l-.015-.023a.264.264,0,0,1,.188-.072.414.414,0,0,1,.179.059c.021.044,0,.078.029.136h.028v.036c0,.017.016.017.031.017a.377.377,0,0,1,.027.17c0,.016.013.016.029.016-.017.034.029.075.029.109-.029.039,0,.1-.016.153.042.089.03.2.071.294a.473.473,0,0,0,.061.2" transform="translate(-310.608 -361.467)" fill="#1a1311"/>
      <path id="패스_338" data-name="패스 338" d="M328.017,366.277v.035c.025.072.084.092.141.148h.188c0-.034.045,0,.045-.034a.158.158,0,0,0,.136-.079h.032a.162.162,0,0,1,.138-.094c.078-.088.155-.18.229-.272a.1.1,0,0,1,.047-.095,3.362,3.362,0,0,1,.155-.515.842.842,0,0,0,.017-.187c.014,0,.027,0,.027-.017a.164.164,0,0,1,.062-.149c.032,0,.063,0,.078-.036v-.038a.326.326,0,0,1,.225.128h.1c0,.039.018.039.039.058a1.082,1.082,0,0,1,.34.017c0,.053.08.036.1.1a.624.624,0,0,0,.061.167.064.064,0,0,1-.02.052c.041.056.079.147.02.2.021.072,0,.167.041.238-.041.037-.02.1-.02.131a1.177,1.177,0,0,1,.059.26c.08.089.062.2.124.3v.109c.039,0,0,.058.039.058a2.289,2.289,0,0,1-.039.348.365.365,0,0,0-.062.058v.034c-.018,0-.041,0-.041-.019-.042.058-.1.1-.143.148-.042-.016-.062.02-.082.02-.04,0,0,.055-.04.055a.165.165,0,0,0-.1.038c-.038.017-.179-.019-.217.017l-.022-.017a.111.111,0,0,1-.079.036c0-.019,0-.036-.023-.036a.14.14,0,0,1-.161.072c-.018-.036-.009-.062-.058-.081a.807.807,0,0,0-.076-.317c.015,0,.015-.013.015-.033a.566.566,0,0,1-.048-.151c-.046-.066-.061-.165-.122-.216.017-.015-.033-.033-.016-.052l-.078-.08c-.03,0-.03.013-.043.033-.017.085-.094.15-.111.233l-.014-.017c-.013.049-.061.085-.061.135-.03.016-.047.065-.077.081v.034c-.109.1-.168.262-.3.333-.031.07-.112.084-.145.158a.6.6,0,0,0-.185.043c-.041-.023-.1-.061-.141-.023,0-.02-.021-.02-.04-.02l-.019.02c-.042-.037-.1,0-.162-.02a2.31,2.31,0,0,0-.4-.21c-.041,0,0-.062-.041-.062a.1.1,0,0,1-.061-.014c0-.06.021-.1-.039-.14l.02-.02c0-.02-.02-.02-.04-.02-.019-.117-.082-.212-.1-.328a.243.243,0,0,1-.041-.037.314.314,0,0,0-.041-.155c-.018-.081.049-.143.011-.219a.065.065,0,0,1,.018-.054.51.51,0,0,1,.02-.239c-.02,0-.02-.017-.02-.039a.456.456,0,0,0,.038-.22c.019-.057.06-.112.079-.167l-.019-.021c.039-.034.019-.09.078-.125,0-.021,0-.04-.021-.04,0-.038.039-.052.057-.074a.686.686,0,0,1,.14-.209l-.015-.023a.264.264,0,0,1,.188-.072.414.414,0,0,1,.179.059c.021.044,0,.078.029.136h.028v.036c0,.017.016.017.031.017a.377.377,0,0,1,.027.17c0,.016.013.016.029.016-.017.034.029.075.029.109-.029.039,0,.1-.016.153.042.089.03.2.071.294A.473.473,0,0,0,328.017,366.277Z" transform="translate(-310.608 -361.467)" fill="none"/>
      <g id="그룹_154" data-name="그룹 154" transform="translate(9.686 3.283)">
        <path id="패스_339" data-name="패스 339" d="M312.848,384.907h.013C312.853,384.9,312.848,384.9,312.848,384.907Z" transform="translate(-308.861 -380.881)" fill="#1a1311"/>
        <path id="패스_340" data-name="패스 340" d="M297.653,366.179l.025-.033-.03-.022.023-.026c-.024,0-.029-.026-.031-.052l.048-.058c.012-.134-.081-.252-.042-.392l-.057-.043c.018-.059-.012-.13.033-.19-.1-.171-.068-.413-.212-.553,0-.025-.007-.05-.011-.078-.1-.2-.246-.363-.369-.557-.048.029-.06-.045-.087-.071a.088.088,0,0,1-.08-.013l-.021.026-.028-.021c0,.026-.024.029-.051.034a.115.115,0,0,0-.108-.039c-.025,0-.027-.026-.03-.05-.078.01-.11-.039-.189-.029-.023,0-.027-.022-.029-.048l-.286.035c0,.025.035.074-.014.105-.06-.045-.107-.012-.158-.006-.019.079-.091.12-.059.193,0,.024-.025.027-.052.031.037.1,0,.208.059.307.04.154.076.544.122.5a2.07,2.07,0,0,0,.085.34c0,.023.066.05.043.076a.379.379,0,0,1,0,.042s0,0,0,0c-.062.014-.089.082-.13.09,0-.017-.025-.014-.047-.009-.016.025-.057.031-.067.072-.063.018-.082.076-.119.12l-.022-.013c-.073.065-.179.061-.234.144a3.439,3.439,0,0,1-.347.12c-.021.006-.039.007-.043-.014-.016.039-.105.007-.121.046a2.167,2.167,0,0,0-.359.023c0-.033-.066.007-.068-.03-.1.04-.21-.014-.317-.014-.022-.022-.064-.022-.084-.055a.242.242,0,0,1-.234-.061c-.063,0-.109-.056-.169-.072V365.9a.536.536,0,0,1-.044-.04c0-.055.063-.055.1-.073.046-.056.161-.042.2-.1,0-.017.057-.056.057-.075.021-.036.037-.072.056-.072.066-.039.023-.081.11-.1,0-.017.064-.063.045-.082.083-.059.079-.09.1-.2.043-.056.1-.117.1-.191.02-.02,0-.1.039-.122.02-.127-.034-.2-.034-.331a.3.3,0,0,1-.043-.039c0-.057-.044-.094-.024-.15-.063-.056-.046-.073-.112-.13l-.035-.039h-.043c-.022-.037-.084-.057-.084-.1a1.156,1.156,0,0,1-.255-.112l-.02.022-.022-.022a.39.39,0,0,1-.046.042c0-.06-.06,0-.082-.042-.044,0-.086-.019-.125.022-.129-.04-.266.026-.394-.032,0,.039-.087-.017-.087.039-.04.019-.1.017-.124.036h-.061a.338.338,0,0,1-.246.124c-.04,0,0,.055-.04.055h-.043a2.259,2.259,0,0,1-.318.282c0,.018-.042.037-.021.076,0,.019-.021.019-.044.019a.085.085,0,0,1-.043.072c0,.02,0,.039.022.039,0,.019-.033.068-.052.068-.023.074-.023.153-.085.189,0,.15-.044.223-.056.387a1.677,1.677,0,0,1,.022.3c.066.042-.016.04.028.1.023,0,.012.033.012.055.022.039.091.068.07.108,0,.017.039.036.058.036.021.039-.034.082.012.1,0,.023.071.006.047.043l.04.086a.517.517,0,0,1,.1.085.218.218,0,0,0,.086.094.4.4,0,0,1,.076.037l.027.051.064.06c.065.017.076-.02.128.047.022,0,.045,0,.045.021l.022-.021c.022.044.066.061.086.081a.242.242,0,0,1,.169.062c.022,0,.025.046.025.026.07.016.114.063.159.021.022,0,.044,0,.044.023l.022-.023c.045-.017.056.036.1.016.023,0,.023.02.023.039h.042c.045.038.232-.013.279.03a3.2,3.2,0,0,0,.658-.03c0-.039.063,0,.066-.032l.021.017c.083.024.172-.072.254-.029a.291.291,0,0,1,.045-.038c.042-.016.1.059.149.007,0,.017.021.019.042.019v-.036c.065-.033.143-.025.192-.078.023,0,.063.009.084.01l.047-.033c.111-.029.206-.115.331-.141.019-.023.06-.025.08-.066a.427.427,0,0,1,.063-.006c.019-.019.039-.041.057-.061.068.013.125-.079.188-.086,0-.016-.009-.038.014-.039l.022.012c.041-.022.041-.022.056-.065,0,0,.008,0,.012,0a.268.268,0,0,1,.036.149c.027,0,.051-.006.053.022l-.045.055c.026,0,.027.021.032.048-.025,0-.022.027-.02.052.024,0,.027.02.029.046-.02.027-.02.027-.042.055,0,.027.027.024.05.024.029.04-.061.081-.011.1-.012.127.037.262-.033.368-.048-.021.009.144.008.091,0,.053-.032.217-.079.246v.049c.025,0-.027.049-.027.023l.022.026c-.022.075.009.063-.063.115,0,.029,0,.053,0,.08-.046.026,0,.111-.025.136l-.024-.023c-.025,0-.019.023-.019.046.026,0,.033.013.035.038-.051.05.078.05.023.1h-.066a.035.035,0,0,0,.022.008c-.018.024.011.1-.048.078,0,.049-.087.121-.118.171.051-.023.042-.016.046,0,.021.029-.042.051-.036.051s-.047.03-.068.048c-.089.173-.046.065-.105.16-.022-.007-.05.079-.049.056.024,0-.019.018-.014-.006a.487.487,0,0,0-.057.046c.02.049.067.076-.011.125-.025,0-.02-.027-.018-.053-.053.022-.056.074-.084.1a.2.2,0,0,0,0,.051,1.023,1.023,0,0,1-.144.152.337.337,0,0,1-.051,0,.1.1,0,0,0-.03.075c0,.023-.029.023-.051.02s-.044.027-.044,0c-.023,0-.016.043-.066.066l.019.035c-.052.023-.037.032-.086.03-.006.048-.11.048-.117.1.02.052.067.052.09.1l.094.008c.021.053-.073.013-.029.065.026,0,.065.007.064.033l-.03.022c.027,0-.024.03,0,.055.023,0,.079.052.1.078l.027-.023c.022.026.05.02.047.046.052,0,.132.034.183-.012.024,0,.091-.044.089-.019.045.027.027-.05.081-.071s.1-.047.151-.069c.189-.214.465-.3.653-.514.037-.009.041-.007.057-.028l0-.029c0-.026.03-.026.05-.026a.143.143,0,0,1,.059-.093c-.02-.006.083-.056.055-.082a.886.886,0,0,1,.109-.121c.026,0,.026-.027.026-.052a.128.128,0,0,0,.073-.078.187.187,0,0,0,.046,0l-.025-.023c-.024-.048.049-.03.049-.076s.105-.076.081-.122c.047-.077.109-.105.156-.182-.027-.1.054-.157.128-.21,0-.024,0-.051-.025-.046.024-.051.043-.128.068-.18l-.027-.027c.049-.025.024-.073.024-.1.047-.054.07-.105.117-.154a.088.088,0,0,0-.027-.075c.024-.026.024-.026.048-.056a.335.335,0,0,1,.123-.2l-.027-.025c.051-.056,0-.108-.03-.155,0-.026,0-.053.022-.053l.029.024.025-.027-.027-.026c.051-.081.008-.193.08-.254a.091.091,0,0,0-.033-.075c.071-.059-.014-.13.033-.189C297.683,366.2,297.679,366.171,297.653,366.179Zm-3.937-1.263c-.043.021,0,.059-.043.079l.021.019a.783.783,0,0,1-.341.54c-.022,0-.044,0-.044-.026s-.045-.1-.021-.135c0-.017-.024-.017-.043-.017.043-.042-.029-.082-.008-.138-.021,0-.021-.026-.021-.042.064-.042.014-.143.077-.182l-.025-.02a.833.833,0,0,1,.1-.143v-.04a.887.887,0,0,1,.307-.153c.021,0,.043,0,.043.018C293.779,364.758,293.736,364.838,293.716,364.916Z" transform="translate(-292.045 -363.931)" fill="#1a1311"/>
      </g>
      <g id="그룹_155" data-name="그룹 155" transform="translate(3.242 0.951)">
        <path id="패스_341" data-name="패스 341" d="M280.788,353.2l0,.007S280.794,353.2,280.788,353.2Z" transform="translate(-276.502 -352.927)" fill="#1a1311"/>
        <path id="패스_342" data-name="패스 342" d="M264.936,352.257c0-.03-.047-.01-.036-.027l-.009-.019c-.02-.012,0-.042.014-.06-.009-.053-.061.008-.088-.032l.048-.068c-.021-.042-.112-.062-.148-.089-.026.036-.021.021-.065.045l-.014-.036c-.043.028-.068,0-.079.014.019.013-.012.01-.021.025s-.025.034-.044.022a.1.1,0,0,0-.065-.016.2.2,0,0,1-.026.033.924.924,0,0,1-.413-.011.27.27,0,0,0-.06.019c.018.009-.014.03,0,.013.019.007-.052-.009-.066.007-.1,0-.305.022-.264,0-.049,0-.142.023-.181,0-.013.061-.069-.018-.1,0-.007,0-.038,0-.024,0l0,.023c-.059.016-.063-.037-.124-.017-.019-.006-.03-.016-.016-.036-.022-.007-.035-.02-.047,0l.012.028c-.032.009-.078-.052-.119-.023-.021-.007-.041-.017-.061-.024a.509.509,0,0,1-.214.045l-.009-.019c-.007.01-.034.025-.028.011a.073.073,0,0,1-.043-.009.391.391,0,0,1-.228.024c.044.01-.086-.075-.077-.032-.107.042-.229-.02-.344-.02,0-.043-.055.027-.087,0,.007-.017.015-.039-.009-.042-.027.016-.049.01-.073.027-.022,0-.045-.009-.039-.026-.021,0-.043-.006-.047.015-.024,0-.045-.006-.037-.028l-.085.056c-.02,0-.017-.02-.009-.042-.094.016-.145-.068-.245-.037.006-.019-.015-.02-.038-.023-.081.053-.2,0-.272.033-.013-.038-.062-.02-.107-.02-.025.02-.043-.033-.063-.033a2.322,2.322,0,0,0-.295-.043c.041-.04-.3-.042-.435-.065-.081-.05-.183,0-.269-.029-.005.023-.012.045-.033.045-.062-.028-.1.042-.173.062-.009.043-.056.063-.043.1-.033.045-.037.053-.06.053-.02.085-.035.075-.057.157.025,0,.048,0,.042.027-.017.062.02.086.006.151.021,0,.043,0,.039.023a.09.09,0,0,0,.022.089c-.005.019-.01.039-.033.039l.014.024-.025.019a.062.062,0,0,1,0,.065c.019.021.084.026.055.069a4.384,4.384,0,0,0,.455.278c.022,0,.047,0,.067,0,.109.109.326.078.47.15.056-.043.12-.015.173-.035.015.023.015.023.031.045.126-.037.193.028.314.019a.383.383,0,0,1,.058-.039c.023,0,.045.006.039.027l.029-.019.014.02.033-.015c-.007.017.016.023.037.025.058-.036.093.011.16-.042a.08.08,0,0,0,.061.03c.066-.057.088,0,.172-.024l.014.026.029-.015-.014-.027a.022.022,0,0,1,.025-.016,1.622,1.622,0,0,0,.1.353c.017,0,.041.042.05.066s0,.02-.007.042c.027.046.05.091.079.14-.019,0-.025.016-.03.035.022.066.022.138.043.2.026.023-.008.037.026.066,0,0-.02.039-.016.044a.11.11,0,0,0,.009.073c.011.069.007.013.055.066-.045.053.032.143-.015.2.026.029.029-.006.035.012a.067.067,0,0,1-.018.029c-.008.014.009.021.025.029.017.039-.012.063.01.1.014,0,0,.052.016.055.006.039.052.049.007.075-.016,0-.007.071-.023.119a.317.317,0,0,1,0,.12c.016.006.027-.016.021,0a.114.114,0,0,1-.013.03c.019,0,.017.036.011.05,0,.056-.033.079-.051.127-.02.11.037.192-.036.23.028.02,0,.049-.012.066-.023.01-.016.063-.039.074-.028.068-.04.062-.068.125-.044.027-.048.052-.093.081a.13.13,0,0,0-.013.03c-.007.014-.022.011-.037.007-.029.032-.126.077-.141.108l.01.017a.876.876,0,0,0-.14.066,1.286,1.286,0,0,1-.179.073c-.058-.016-.109.029-.167.013-.024.013-.045.022-.067.033-.028-.009-.075.016-.1-.009-.03-.007-.023.048-.053.039l-.025-.011-.01-.017c-.044.021-.078,0-.127.017l0-.017c-.045.021-.083,0-.112.026a.367.367,0,0,0-.184-.023c.008-.017-.007-.021-.024-.021l-.022.014c.007-.016-.125-.007-.14-.01l-.032,0-.009-.017-.023.013c-.023-.023-.182-.039-.219-.079-.031.027-.058.014-.092,0a1.4,1.4,0,0,1-.332-.071l-.01-.021a.129.129,0,0,1-.152-.044.288.288,0,0,1-.06-.008c-.017-.045-.131-.036-.143-.075a.447.447,0,0,1-.08-.069c-.037.021-.128-.088-.146-.1h-.061l-.022-.069-.083-.062c-.031-.06-.065-.01-.077-.063s-.071-.053-.1-.053-.073.053-.1.009a.4.4,0,0,1-.091.1.14.14,0,0,1-.083.023c-.015.065-.022.069.036.218.024.006.051.147.078.155-.012-.053.075.121.1.144a.225.225,0,0,1,.037.007c.016,0,.007.021,0,.037l.077.053c.008.022.024.026.006.058a.48.48,0,0,1,.148.062c.015.009,0,.023-.006.035.02.007.035.014.044,0,.045,0,.013.046.02.066l.026-.007c.007.022.04.036.04.036.052.075.3.174.368.246l.023-.014c.021.042.132.05.132.1l.022-.016c.014.019.18.053.227.079.023-.013-.009-.039.015-.05.027.021.083.076.111.1a.957.957,0,0,1,.125.019c.063.069.2.027.277.062.01.021.026.023.041.027l.026-.012.011.017c.051-.023.075,0,.11-.026l.009.019.025-.013a.445.445,0,0,1,.019.042c.071.016.13.049.206.009.007.023.027.024.042.027l.051-.023c.051.012.064.032.121.026l.012.022a.255.255,0,0,1,.194-.012c.014-.032.052.014.07-.017l.007.017c.057-.042.145-.017.2-.023l.011.023c.026-.016.015,0,.015,0,.052-.023.173-.024.207-.05a.257.257,0,0,0,.158.017c.02,0,.058.016.076.017a.185.185,0,0,1,.209-.013,1.161,1.161,0,0,0,.264-.105l.057.017c.027-.012.048-.006.067-.039a.853.853,0,0,0,.225-.11c0,.022.054-.02.062,0a.1.1,0,0,0,.023-.03c.037.013.066-.036.1-.022a.224.224,0,0,0,.019-.033c.06-.017.034-.033.091-.052.048-.036.12-.152.231-.2-.006-.036.07-.055.085-.087s.03-.011.049-.007l-.012-.023c.026-.013.019-.065.046-.042.007-.016.038-.059.025-.062.052-.042.052-.183.132-.2a.137.137,0,0,1,.014-.031c.03-.042.019-.12.037-.131s0-.026.016-.025c.019-.065.033-.16.052-.247-.017,0-.008-.021,0-.038.016,0,.025-.011.03-.027-.016-.006-.009-.019,0-.039l.027-.013c-.036,0,0-.052-.03-.056l.02-.013c-.029-.079.013-.159-.014-.236l.025-.013a.1.1,0,0,1,0-.138.046.046,0,0,1,0-.053c-.046-.027.011-.057-.021-.081.021-.048-.038-.1,0-.144-.022-.04-.028-.059-.05-.1.006-.017.008-.033.014-.05-.015,0-.035-.006-.029-.024.029-.032,0-.055.007-.089-.029,0-.015-.035-.023-.055a.494.494,0,0,0-.091-.235c.022-.035-.023-.168-.021-.21l-.031-.017a.162.162,0,0,0-.066-.085.3.3,0,0,0,0-.043c-.014,0-.032,0-.028-.022a.245.245,0,0,0,0-.042l-.017.021a.118.118,0,0,1-.044-.109c-.061-.087-.084-.15-.173-.271-.034.019,0-.069-.041-.046a.486.486,0,0,0-.148-.2c0-.02,0-.02.006-.039a.113.113,0,0,1-.04,0s0,0-.007-.005a.561.561,0,0,1,.129-.041c.028.039.091-.035.128-.015s.037-.034.062,0l.006.026a.245.245,0,0,0,.024-.035.1.1,0,0,0,.091-.016c.016.009.037.02.048.006a.715.715,0,0,1,.143-.033c0,.027.048-.011.038,0a.178.178,0,0,1,.1.01c.012-.011.025-.03.042-.02l.024.017a.125.125,0,0,0,.046-.027c.247-.023.384-.143.628-.143.048-.019.088-.04.133-.061s.079.036.086-.009c-.015-.011.054-.027.067-.046.059-.007.1-.111.122-.145-.019-.009,0-.026-.007-.056h.032A.631.631,0,0,1,264.936,352.257Z" transform="translate(-258.426 -351.768)" fill="#1a1311"/>
      </g>
    </g>
    <g id="그룹_157" data-name="그룹 157" transform="translate(145.476 107.988)">
      <path id="패스_343" data-name="패스 343" d="M383.023,350.167a4.093,4.093,0,0,0,1.435-3.5v-.926H383.3c-.236,0-.337-.207-.337-.455s.11-.441.337-.441h3.274c.218,0,.339.2.339.441s-.111.455-.339.455h-1.152v.907a3.856,3.856,0,0,0,1.454,3.413.529.529,0,0,1,.045.685.4.4,0,0,1-.585.1,3.63,3.63,0,0,1-1.39-2.007,3.641,3.641,0,0,1-1.371,2.12.42.42,0,0,1-.594-.122A.533.533,0,0,1,383.023,350.167Zm4.535-5.653c0-.239.192-.379.467-.379s.458.14.458.379v7.99c0,.288-.185.419-.458.419s-.467-.131-.467-.419v-4.456h-1.024c-.222,0-.348-.191-.348-.468,0-.3.126-.478.348-.478h1.024Zm1.765-.17a.4.4,0,0,1,.458-.39c.282,0,.474.15.474.39v8.37c0,.288-.181.416-.474.416-.275,0-.458-.128-.458-.416Z" transform="translate(-382.883 -343.948)" fill="#1a1311"/>
      <path id="패스_344" data-name="패스 344" d="M430.742,354.643c0,.3-.22.438-.5.438s-.5-.14-.5-.438v-2.886H426.62c-.2,0-.322-.19-.322-.458s.12-.448.322-.448h7.221c.219,0,.329.19.329.448s-.11.458-.329.458h-3.1Zm-3.107-4.576a.432.432,0,0,1-.549-.3c-.081-.256,0-.564.237-.625,1.253-.251,2.285-.926,2.35-2.14H427.5c-.238,0-.329-.219-.329-.456s.111-.449.329-.449h5.493c.221,0,.34.2.34.449s-.1.456-.34.456h-2.184c.074,1.224,1.192,1.9,2.377,2.13a.44.44,0,0,1,.238.607.431.431,0,0,1-.546.308,3.558,3.558,0,0,1-2.624-1.741A3.45,3.45,0,0,1,427.634,350.067Z" transform="translate(-417.977 -345.68)" fill="#1a1311"/>
      <path id="패스_345" data-name="패스 345" d="M474.079,344.713v1.2a4.055,4.055,0,0,0,1.856,3.751.486.486,0,0,1,.1.668.4.4,0,0,1-.631.15,4.23,4.23,0,0,1-1.8-2.318,4.271,4.271,0,0,1-1.809,2.458.428.428,0,0,1-.623-.149.464.464,0,0,1,.083-.667,4.165,4.165,0,0,0,1.819-3.862v-1.233c0-.259.211-.387.5-.387S474.079,344.454,474.079,344.713Zm3.857-.358V352.7c0,.288-.192.438-.486.438a.419.419,0,0,1-.473-.438v-8.349c0-.251.191-.4.473-.4S477.937,344.1,477.937,344.354Z" transform="translate(-454.164 -343.948)" fill="#1a1311"/>
      <path id="패스_346" data-name="패스 346" d="M513.785,348.336a2.664,2.664,0,0,0,1.709-2.7v-.17h-1.517c-.229,0-.328-.219-.328-.456s.109-.448.328-.448h4.06c.229,0,.338.21.338.448s-.1.456-.338.456h-1.554v.17a2.542,2.542,0,0,0,1.809,2.517.49.49,0,0,1-.42.87,3.089,3.089,0,0,1-1.839-1.7,3.146,3.146,0,0,1-1.819,1.87.434.434,0,0,1-.594-.229A.444.444,0,0,1,513.785,348.336Zm3.722,4.962c-1.838,0-2.814-.665-2.814-1.83s.976-1.849,2.814-1.849,2.825.675,2.825,1.849S519.354,353.3,517.506,353.3Zm0-2.842c-1.188,0-1.811.376-1.811,1.012,0,.619.622,1.005,1.811,1.005s1.829-.386,1.829-1.005C519.335,350.831,518.7,350.455,517.506,350.455Zm1.754-6.1a.423.423,0,0,1,.477-.4c.274,0,.485.15.485.4v1.931h1.067c.23,0,.331.179.331.445s-.1.458-.331.458h-1.067v1.973c0,.3-.194.429-.485.429s-.477-.129-.477-.429Z" transform="translate(-488.513 -343.948)" fill="#1a1311"/>
      <path id="패스_347" data-name="패스 347" d="M559.577,350.853c-1.442,0-1.862-1.475-1.862-3.115s.42-3.116,1.862-3.116,1.867,1.463,1.867,3.116S561.023,350.853,559.577,350.853Zm0-5.323c-.749,0-.941.993-.941,2.209s.192,2.21.941,2.21.944-1,.944-2.21S560.319,345.53,559.577,345.53Zm4.444-1.185c0-.241.193-.39.468-.39s.475.15.475.39v8.37c0,.288-.19.416-.475.416s-.468-.128-.468-.416V348.2h-.975v4.3c0,.288-.186.419-.467.419s-.467-.131-.467-.419v-7.99c0-.239.191-.379.467-.379s.467.14.467.379v2.763h.975Z" transform="translate(-524.204 -343.948)" fill="#1a1311"/>
      <path id="패스_348" data-name="패스 348" d="M604.65,344.514a2.229,2.229,0,1,1,0,4.457,2.228,2.228,0,1,1,0-4.457Zm0,3.591a1.364,1.364,0,1,0-1.315-1.362A1.256,1.256,0,0,0,604.65,348.105Zm-.95,2.16c0-.259.219-.4.493-.4s.5.14.5.4v1.791c0,.167.027.2.191.2h4.187c.23,0,.339.178.339.448,0,.25-.109.449-.339.449h-4.387c-.686,0-.988-.092-.988-.8Zm4.473-5.911a.492.492,0,0,1,.967,0v5.882c0,.3-.2.436-.484.436s-.483-.138-.483-.436Z" transform="translate(-560.326 -343.948)" fill="#1a1311"/>
      <path id="패스_349" data-name="패스 349" d="M646.111,350.733a.422.422,0,0,1-.642-.151.475.475,0,0,1,.111-.668,3.735,3.735,0,0,0,1.773-3.472V345.7H645.8c-.238,0-.339-.216-.339-.465s.118-.449.339-.449h4.122c.219,0,.338.218.338.449,0,.249-.1.465-.338.465h-1.564v.757a3.442,3.442,0,0,0,1.84,3.315.479.479,0,0,1,.1.656.4.4,0,0,1-.632.18,3.92,3.92,0,0,1-1.793-2.151A4,4,0,0,1,646.111,350.733Zm6.114-6.379V352.7a.482.482,0,0,1-.959,0v-8.349c0-.251.193-.4.477-.4S652.225,344.1,652.225,344.354Z" transform="translate(-595.066 -343.948)" fill="#1a1311"/>
      <path id="패스_350" data-name="패스 350" d="M694.955,344.354c0-.251.212-.4.487-.4a.437.437,0,0,1,.475.4v4.576c0,.3-.193.429-.475.429-.3,0-.487-.138-.487-.429v-.874h-1.974a2.152,2.152,0,0,1-1.754.795,2.228,2.228,0,0,1,0-4.457,2.147,2.147,0,0,1,1.754.794h1.974ZM691.227,348a1.379,1.379,0,1,0-1.271-1.377A1.259,1.259,0,0,0,691.227,348Zm4.69,5.014c0,.251-.229.387-.5.387s-.5-.137-.5-.387v-2.069c0-.16-.019-.179-.174-.179h-4.161c-.237,0-.346-.181-.346-.45s.109-.446.346-.446h4.59c.539,0,.742.15.742.769Zm-2.542-5.83h1.581v-1.126h-1.581a3.075,3.075,0,0,1,.066.579A2.583,2.583,0,0,1,693.374,347.181Z" transform="translate(-630.334 -343.948)" fill="#1a1311"/>
      <path id="패스_351" data-name="패스 351" d="M734.078,344.713v1.226a4.011,4.011,0,0,0,1.826,3.739.49.49,0,0,1,.108.668.4.4,0,0,1-.63.157,4.2,4.2,0,0,1-1.791-2.327,4.088,4.088,0,0,1-1.782,2.459.425.425,0,0,1-.622-.141.474.474,0,0,1,.09-.677,4.141,4.141,0,0,0,1.783-3.85v-1.255c0-.259.221-.387.5-.387C733.874,344.326,734.078,344.454,734.078,344.713Zm3.683-.358v2.855h1.1c.237,0,.329.19.329.458s-.092.457-.329.457h-1.1V352.7c0,.288-.194.438-.486.438a.421.421,0,0,1-.475-.438v-8.349c0-.251.193-.4.475-.4S737.761,344.1,737.761,344.354Z" transform="translate(-664.345 -343.948)" fill="#1a1311"/>
      <path id="패스_352" data-name="패스 352" d="M775.653,351.629c-.21,0-.355-.161-.355-.446a.383.383,0,0,1,.355-.431h1.931v-.845c-1.006-.119-1.545-.626-1.545-1.412,0-.907.714-1.453,2.03-1.453,1.3,0,2.021.545,2.021,1.453,0,.8-.549,1.3-1.545,1.42v.819a11.309,11.309,0,0,0,1.937-.231.461.461,0,0,1,.092-.008c.192,0,.33.161.33.459a.35.35,0,0,1-.238.376,11.955,11.955,0,0,1-2.763.3Zm.167-5.014c-.238,0-.329-.18-.329-.428s.1-.429.329-.429h4.487c.231,0,.34.187.34.429s-.1.428-.34.428Zm1.235-1.533c-.238,0-.34-.189-.34-.438,0-.269.128-.419.34-.419h2c.219,0,.328.18.328.419,0,.256-.11.438-.328.438Zm1.014,4.148c.723,0,1.106-.279,1.106-.736s-.383-.746-1.106-.746-1.116.286-1.116.746S777.338,349.23,778.068,349.23Zm3.291-4.876c0-.251.2-.4.477-.4.293,0,.483.15.483.4v8.34c0,.3-.19.436-.483.436s-.477-.14-.477-.436Z" transform="translate(-700.081 -343.948)" fill="#1a1311"/>
      <path id="패스_353" data-name="패스 353" d="M819.4,346.068c0-.585.171-.806.767-.806h4.517c.228,0,.348.15.348.418s-.119.429-.348.429h-4.123c-.155,0-.172.02-.172.2v.537h4.168c.228,0,.339.129.339.4s-.111.406-.339.406h-4.168v.518c0,.177.018.209.172.209h4.17c.229,0,.347.15.347.417s-.118.428-.36.428H822.67v.726h3.117c.212,0,.314.209.314.427s-.1.426-.314.426h-7.25c-.211,0-.31-.2-.31-.426s.1-.427.31-.427h3.128v-.726h-1.5c-.539,0-.767-.168-.767-.805Zm2.77,5.184c1.922,0,2.889.547,2.889,1.582s-.966,1.572-2.889,1.572-2.9-.546-2.9-1.572S820.237,351.252,822.169,351.252Zm0,2.328c1.307,0,1.873-.261,1.873-.746s-.567-.755-1.873-.755-1.883.268-1.883.755S820.861,353.581,822.169,353.581Z" transform="translate(-734.783 -345.006)" fill="#1a1311"/>
      <path id="패스_354" data-name="패스 354" d="M861.865,346.365c-.237,0-.328-.177-.328-.407,0-.249.109-.407.328-.407h4.443c.229,0,.339.17.339.407s-.1.407-.339.407Zm2.276.35c1.3,0,2,.537,2,1.382s-.706,1.382-2,1.382-2.012-.549-2.012-1.382S862.826,346.714,864.141,346.714Zm-1.077-1.782c-.228,0-.32-.169-.32-.408s.1-.4.32-.4h2.1c.219,0,.328.169.328.4s-.1.408-.328.408Zm-.147,5.344c0-.239.217-.369.485-.369s.474.13.474.369v.615h3.447v-.615c0-.239.21-.369.467-.369.273,0,.485.13.485.369v2.348c0,.568-.211.746-.776.746h-3.813c-.567,0-.768-.189-.768-.756Zm1.224-1.5c.714,0,1.089-.268,1.089-.676s-.375-.678-1.089-.678-1.1.262-1.1.678S863.419,348.772,864.141,348.772Zm-.265,2.906v.668c0,.2.018.216.184.216h3.072c.166,0,.191-.016.191-.216v-.668Zm3.437-7.334c0-.249.211-.39.477-.39s.485.141.485.39v2.33h1.069c.238,0,.33.178.33.448s-.091.446-.33.446h-1.069v1.524c0,.287-.192.429-.485.429s-.477-.142-.477-.429Z" transform="translate(-769.791 -343.948)" fill="#1a1311"/>
      <path id="패스_355" data-name="패스 355" d="M908.756,348h-1.483c-.546,0-.774-.128-.774-.782v-1.474c0-.6.173-.785.767-.785h4.481c.228,0,.336.158.336.436s-.108.428-.336.428h-4.059c-.176,0-.2.03-.2.209v.887c0,.178.028.217.2.217h4.076c.238,0,.348.16.348.43s-.119.434-.348.434h-2v.809h3.11c.211,0,.312.207.312.426s-.1.438-.312.438h-7.242c-.219,0-.311-.209-.311-.438s.091-.426.311-.426h3.128Zm3.292,5.316c.219,0,.33.17.33.419s-.111.446-.33.446H907.32c-.566,0-.867-.14-.867-.737v-.955c0-.448.137-.675.621-.675h3.784c.146,0,.165-.01.165-.14v-.4c0-.128-.019-.15-.165-.15h-4.121c-.22,0-.331-.167-.331-.415s.111-.429.331-.429h4.616c.521,0,.675.249.675.726v.837c0,.518-.182.736-.675.736h-3.729c-.146,0-.165.019-.165.15v.429c0,.138.019.159.165.159Z" transform="translate(-805.18 -344.763)" fill="#1a1311"/>
      <path id="패스_356" data-name="패스 356" d="M952.294,348.266h-1.315c-.84,0-.942-.18-.942-.946v-2.36c0-.237.228-.366.485-.366.285,0,.5.128.5.366v.688h3.536v-.688c0-.237.238-.366.487-.366.292,0,.5.128.5.366v2.369c0,.848-.208.938-.943.938H953.3v.8h3.118c.211,0,.312.221.312.452s-.1.434-.312.434H949.18c-.221,0-.313-.208-.313-.434s.092-.452.313-.452h3.114Zm-2.3,3.205c0-.608.192-.808.758-.808h3.9c.649,0,.979.071.979.815v1.5c0,.628-.192.827-.768.827H950.75c-.566,0-.758-.2-.758-.827Zm1.2.049c-.165,0-.2.039-.2.206v1.008c0,.181.039.209.2.209h3.244c.156,0,.192-.027.192-.209v-1.008c0-.167-.036-.206-.192-.206Zm-.165-4.328c0,.2.026.219.191.219h3.143c.183,0,.2-.02.2-.23v-.685h-3.536Z" transform="translate(-840.382 -344.466)" fill="#1a1311"/>
      <path id="패스_357" data-name="패스 357" d="M994.489,350.733a.421.421,0,0,1-.64-.151.472.472,0,0,1,.11-.668,3.735,3.735,0,0,0,1.772-3.472V345.7h-1.552c-.24,0-.339-.216-.339-.465s.119-.449.339-.449H998.3c.219,0,.337.218.337.449,0,.249-.1.465-.337.465h-1.563v.757a3.442,3.442,0,0,0,1.837,3.315.476.476,0,0,1,.1.656.4.4,0,0,1-.63.18,3.905,3.905,0,0,1-1.793-2.151A4.008,4.008,0,0,1,994.489,350.733Zm6.116-6.379V352.7c0,.288-.191.438-.484.438a.421.421,0,0,1-.476-.438v-8.349c0-.251.193-.4.476-.4S1000.6,344.1,1000.6,344.354Z" transform="translate(-876.668 -343.948)" fill="#1a1311"/>
      <path id="패스_358" data-name="패스 358" d="M1038.6,350.435v-1.352h-1.965c-.2,0-.338-.173-.338-.458,0-.269.137-.449.338-.449h2.431a10.01,10.01,0,0,0,2.314-.25c.192-.049.365.082.4.341s-.027.455-.227.516a8.057,8.057,0,0,1-2,.279v1.4c0,.261-.2.39-.481.39a.591.591,0,0,1-.339-.09v1.314c0,.178.026.2.182.2h4.415c.231,0,.35.179.35.449s-.119.445-.35.445h-4.843c-.539,0-.76-.158-.76-.795v-1.651c0-.261.228-.4.5-.4A.608.608,0,0,1,1038.6,350.435Zm.457-2.776c-1.287,0-2.094-.648-2.094-1.731s.807-1.724,2.094-1.724,2.095.646,2.095,1.724S1040.349,347.659,1039.059,347.659Zm0-2.638c-.74,0-1.152.338-1.152.917s.412.9,1.152.9,1.153-.337,1.153-.9S1039.8,345.021,1039.059,345.021Zm4.382-.667v6.536c0,.292-.194.421-.477.421s-.482-.128-.482-.421v-.544h-1.474c-.21,0-.329-.2-.329-.458s.12-.45.329-.45h1.474v-5.083c0-.251.2-.4.482-.4S1043.44,344.1,1043.44,344.354Z" transform="translate(-911.055 -343.948)" fill="#1a1311"/>
      <path id="패스_359" data-name="패스 359" d="M1082.067,344.922v.8a2.824,2.824,0,0,0,1.389,2.734.386.386,0,0,1,.165.347.487.487,0,0,1-.411.54.321.321,0,0,1-.092-.022,2.873,2.873,0,0,1-1.527-1.638,3.106,3.106,0,0,1-1.277,1.729.793.793,0,0,1-.387.139.486.486,0,0,1-.421-.52.387.387,0,0,1,.167-.337c.8-.448,1.434-1.315,1.434-3.084v-.687c0-.258.182-.38.484-.38S1082.067,344.664,1082.067,344.922Zm.121,5.391v1.743c0,.167.026.2.181.2h4.406c.23,0,.347.178.347.448,0,.25-.117.449-.347.449h-4.624c-.795,0-.97-.141-.97-.969v-1.87c0-.256.22-.4.5-.4S1082.188,350.057,1082.188,350.313Zm2.935-5.8v5.692c0,.278-.2.407-.468.407-.3,0-.467-.158-.467-.407v-3.047h-.933c-.228,0-.348-.168-.348-.445,0-.321.12-.458.348-.458h.933v-1.742c0-.239.192-.379.467-.379S1085.123,344.275,1085.123,344.514Zm1.78-.17V350.4c0,.289-.192.417-.476.417s-.464-.128-.464-.417v-6.059c0-.241.192-.39.464-.39S1086.9,344.1,1086.9,344.344Z" transform="translate(-945.98 -343.948)" fill="#1a1311"/>
      <path id="패스_360" data-name="패스 360" d="M1125.489,345.486c0-.6.174-.826.805-.826h2.87c.231,0,.35.2.35.466s-.119.448-.35.448h-2.469c-.192,0-.226.041-.226.231v1.332h2.376c.228,0,.339.19.339.449s-.11.448-.339.448h-2.376V349.5c0,.212.027.241.217.241a10.851,10.851,0,0,0,2.917-.241c.175-.049.359.069.4.33.046.279-.053.476-.227.536a11.985,11.985,0,0,1-3.493.291c-.567-.02-.8-.24-.8-.885Zm5.751-1.155a.422.422,0,0,1,.477-.406c.283,0,.483.155.483.406v8.349a.482.482,0,0,1-.96,0v-4.815h-1.3c-.227,0-.348-.18-.348-.459s.121-.458.348-.458h1.3Z" transform="translate(-983.149 -343.925)" fill="#1a1311"/>
    </g>
  </g>
</svg>
