<svg xmlns="http://www.w3.org/2000/svg" width="69.343" height="71.535" viewBox="0 0 69.343 71.535">
  <g id="그룹_1" data-name="그룹 1" transform="translate(-211 -18)">
    <path id="패스_1" data-name="패스 1" d="M36.7,8.62,6.4,35.659v23.93c9.757,9.6,19.454,7.531,24.963,4.978A107.564,107.564,0,0,1,18.839,54.092c-4.355-4.408-5.715-10.294-3.545-15.355a11.188,11.188,0,0,1,10.262-7.013H25.6c2.682,0,6.525.946,10.537,5.083a20.443,20.443,0,0,1,1.628-1.539,26.889,26.889,0,0,1,9.009-5.444,22.114,22.114,0,0,1,12.974-.646Z" transform="translate(209.49 15.966)" fill="#f8b616"/>
    <path id="패스_2" data-name="패스 2" d="M56.465,49.741a6.4,6.4,0,0,0-5.807-4.111h-.023a9.136,9.136,0,0,0-5.822,2.59c-.069.069-.107.115-.13.138l-.015-.015a19.828,19.828,0,0,0-2.628,2.919l-1.933,2.59L38.15,51.284c-2.72-3.584-5.784-5.555-8.611-5.555h-.023a6.389,6.389,0,0,0-5.8,4.157c-.535,1.261-1.918,5.746,2.552,10.353A71.377,71.377,0,0,0,40.182,71.51,71.425,71.425,0,0,0,54,60.125c4.439-4.653,3.011-9.123,2.468-10.384" transform="translate(205.071 6.471)" fill="#ea609e"/>
    <path id="패스_3" data-name="패스 3" d="M44.6,27.745a26.445,26.445,0,0,0-8.882,5.462c-.527.46-1.062.972-1.6,1.544-3.955-4.151-7.737-5.108-10.388-5.108h-.045A11.023,11.023,0,0,0,13.56,36.679c-2.139,5.077-.8,10.983,3.5,15.405A103.826,103.826,0,0,0,29.4,62.593C23.978,65.154,14.411,67.241,4.791,57.6v-24L34.668,6.471,57.38,27.1a21.426,21.426,0,0,0-12.784.648m3.247,20.89h0a70.119,70.119,0,0,1-13.62,11.224A70.37,70.37,0,0,1,20.505,48.747C16.1,44.2,17.462,39.783,17.989,38.54a6.3,6.3,0,0,1,5.718-4.1h.023c2.795,0,5.808,1.944,8.49,5.477l1.928,2.531L36.054,39.9a19.471,19.471,0,0,1,2.591-2.87l.015.008c.023-.023.068-.068.128-.136a9.059,9.059,0,0,1,5.74-2.561h.023a6.306,6.306,0,0,1,5.725,4.053c.527,1.258,1.936,5.665-2.433,10.245M34.668,0,0,31.481V71.535H4.791V64a24.764,24.764,0,0,0,15.4,5.544,24.693,24.693,0,0,0,5.627-.663,29.154,29.154,0,0,0,8.038-3.247A67.7,67.7,0,0,0,51.308,51.949h0c4.256-4.46,5.544-10.373,3.367-15.435a11.653,11.653,0,0,0-4.3-5.205c4.038-.4,8.874.61,14.087,4.776l.09-.105V71.535h4.791V31.481Z" transform="translate(211 18)"/>
  </g>
</svg>
