<svg xmlns="http://www.w3.org/2000/svg" width="930.3" height="135.134" viewBox="0 0 930.3 135.134">
  <g id="그룹_512" data-name="그룹 512" transform="translate(-233 -1083)">
    <rect id="사각형_177" data-name="사각형 177" width="150" height="79" rx="9" transform="translate(233 1083)" fill="#757575"/>
    <rect id="사각형_219" data-name="사각형 219" width="150" height="79" rx="9" transform="translate(428 1083)" fill="#757575"/>
    <rect id="사각형_220" data-name="사각형 220" width="150" height="79" rx="9" transform="translate(623 1083)" fill="#757575"/>
    <rect id="사각형_221" data-name="사각형 221" width="150" height="79" rx="9" transform="translate(818 1083)" fill="#757575"/>
    <rect id="사각형_222" data-name="사각형 222" width="150" height="79" rx="9" transform="translate(1013 1083)" fill="#757575"/>
    <path id="패스_455" data-name="패스 455" d="M0,0H150V71.45c0,8.662-2.663,15.684-5.947,15.684H5.947C2.663,87.134,0,80.112,0,71.45Z" transform="translate(233 1131)" fill="#faf8f8"/>
    <path id="패스_988" data-name="패스 988" d="M0,0H150.075V71.45c0,8.662-2.664,15.684-5.95,15.684H5.95C2.664,87.134,0,80.112,0,71.45Z" transform="translate(428 1131)" fill="#faf8f8"/>
    <path id="패스_989" data-name="패스 989" d="M0,0H150.15V71.45c0,8.662-2.665,15.684-5.953,15.684H5.953C2.665,87.134,0,80.112,0,71.45Z" transform="translate(623 1131)" fill="#faf8f8"/>
    <path id="패스_990" data-name="패스 990" d="M0,0H150.225V71.45c0,8.662-2.667,15.684-5.956,15.684H5.956C2.667,87.134,0,80.112,0,71.45Z" transform="translate(818 1131)" fill="#faf8f8"/>
    <path id="패스_991" data-name="패스 991" d="M0,0H150.3V71.45c0,8.662-2.668,15.684-5.959,15.684H5.959C2.668,87.134,0,80.112,0,71.45Z" transform="translate(1013 1131)" fill="#faf8f8"/>
    <g id="화살표" transform="translate(395 1122.399)">
      <path id="패스_454" data-name="패스 454" d="M197.2,521.654a1.648,1.648,0,0,0,1.2.507,1.678,1.678,0,0,0,1.155-.465l14.626-14.053a1.666,1.666,0,0,0,0-2.393l-14.676-14.1a1.663,1.663,0,1,0-2.3,2.4l13.43,12.906-13.38,12.856A1.656,1.656,0,0,0,197.2,521.654Z" transform="translate(-196.681 -490.685)" fill="#bfbaba"/>
    </g>
    <g id="화살표-2" data-name="화살표" transform="translate(591.838 1122.399)">
      <path id="패스_454-2" data-name="패스 454" d="M197.2,521.654a1.648,1.648,0,0,0,1.2.507,1.678,1.678,0,0,0,1.155-.465l14.626-14.053a1.666,1.666,0,0,0,0-2.393l-14.676-14.1a1.663,1.663,0,1,0-2.3,2.4l13.43,12.906-13.38,12.856A1.656,1.656,0,0,0,197.2,521.654Z" transform="translate(-196.681 -490.685)" fill="#bfbaba"/>
    </g>
    <g id="화살표-3" data-name="화살표" transform="translate(787.476 1122.399)">
      <path id="패스_454-3" data-name="패스 454" d="M197.2,521.654a1.648,1.648,0,0,0,1.2.507,1.678,1.678,0,0,0,1.155-.465l14.626-14.053a1.666,1.666,0,0,0,0-2.393l-14.676-14.1a1.663,1.663,0,1,0-2.3,2.4l13.43,12.906-13.38,12.856A1.656,1.656,0,0,0,197.2,521.654Z" transform="translate(-196.681 -490.685)" fill="#bfbaba"/>
    </g>
    <g id="화살표-4" data-name="화살표" transform="translate(983.3 1122.399)">
      <path id="패스_454-4" data-name="패스 454" d="M197.2,521.654a1.648,1.648,0,0,0,1.2.507,1.678,1.678,0,0,0,1.155-.465l14.626-14.053a1.666,1.666,0,0,0,0-2.393l-14.676-14.1a1.663,1.663,0,1,0-2.3,2.4l13.43,12.906-13.38,12.856A1.656,1.656,0,0,0,197.2,521.654Z" transform="translate(-196.681 -490.685)" fill="#bfbaba"/>
    </g>
    <text id="신청문의" transform="translate(280 1112)" fill="#fff" font-size="15" font-family="NanumSquareR, NanumSquare"><tspan x="0" y="0">신청문의</tspan></text>
    <text id="신청서작성_및_제출" data-name="신청서작성 및 제출" transform="translate(444 1112)" fill="#fff" font-size="15" font-family="NanumSquareR, NanumSquare"><tspan x="0" y="0">신청서작성 및 제출</tspan></text>
    <text id="예약전화" transform="translate(671 1112)" fill="#fff" font-size="15" font-family="NanumSquareR, NanumSquare"><tspan x="0" y="0">예약전화</tspan></text>
    <text id="예약확인_및_승인" data-name="예약확인 및 승인" transform="translate(842 1112)" fill="#fff" font-size="15" font-family="NanumSquareR, NanumSquare"><tspan x="0" y="0">예약확인 및 승인</tspan></text>
    <text id="차량배차_및_이용" data-name="차량배차 및 이용" transform="translate(1037 1112)" fill="#fff" font-size="15" font-family="NanumSquareR, NanumSquare"><tspan x="0" y="0">차량배차 및 이용</tspan></text>
    <text id="통합돌봄지원센터_및_읍면동주민센터_통합돌봄창구" data-name="통합돌봄지원센터 및
읍면동주민센터
통합돌봄창구" transform="translate(308 1159)" fill="#555" font-size="14" font-family="NanumSquareR, NanumSquare"><tspan x="-59.08" y="0">통합돌봄지원센터 및</tspan><tspan x="-44.59" y="20">읍면동주민센터</tspan><tspan x="-38.22" y="40">통합돌봄창구</tspan></text>
    <text id="통합돌봄지원센터" transform="translate(503 1179)" fill="#555" font-size="14" font-family="NanumSquareR, NanumSquare"><tspan x="-50.96" y="0">통합돌봄지원센터</tspan></text>
    <text id="통합돌봄지원센터-2" data-name="통합돌봄지원센터" transform="translate(698 1179)" fill="#555" font-size="14" font-family="NanumSquareR, NanumSquare"><tspan x="-50.96" y="0">통합돌봄지원센터</tspan></text>
    <text id="통합돌봄지원센터-3" data-name="통합돌봄지원센터" transform="translate(893 1179)" fill="#555" font-size="14" font-family="NanumSquareR, NanumSquare"><tspan x="-50.96" y="0">통합돌봄지원센터</tspan></text>
    <text id="통합돌봄지원센터-4" data-name="통합돌봄지원센터" transform="translate(1088 1179)" fill="#555" font-size="14" font-family="NanumSquareR, NanumSquare"><tspan x="-50.96" y="0">통합돌봄지원센터</tspan></text>
  </g>
</svg>
