<svg xmlns="http://www.w3.org/2000/svg" width="831" height="307" viewBox="0 0 831 307">
  <g id="그룹_380" data-name="그룹 380" transform="translate(-230 -1138)">
    <rect id="사각형_177" data-name="사각형 177" width="227" height="79" rx="9" transform="translate(230 1138)" fill="#757575"/>
    <rect id="사각형_183" data-name="사각형 183" width="227" height="84" rx="9" transform="translate(230 1303)" fill="#757575"/>
    <rect id="사각형_185" data-name="사각형 185" width="227" height="85" rx="9" transform="translate(513 1303)" fill="#757575"/>
    <rect id="사각형_179" data-name="사각형 179" width="227" height="70" rx="9" transform="translate(513 1138)" fill="#757575"/>
    <rect id="사각형_181" data-name="사각형 181" width="227" height="79" rx="9" transform="translate(796 1138)" fill="#757575"/>
    <path id="패스_455" data-name="패스 455" d="M0,0H227V64.671c0,7.84-4.029,14.2-9,14.2H9c-4.971,0-9-6.356-9-14.2Z" transform="translate(230 1201)" fill="#faf8f8"/>
    <path id="사각형_184" data-name="사각형 184" d="M0,0H227a0,0,0,0,1,0,0V69.87a9,9,0,0,1-9,9H9a9,9,0,0,1-9-9V0A0,0,0,0,1,0,0Z" transform="translate(230 1366)" fill="#faf8f8"/>
    <path id="사각형_186" data-name="사각형 186" d="M0,0H227a0,0,0,0,1,0,0V70a9,9,0,0,1-9,9H9a9,9,0,0,1-9-9V0A0,0,0,0,1,0,0Z" transform="translate(513 1366)" fill="#faf8f8"/>
    <path id="사각형_180" data-name="사각형 180" d="M0,0H227a0,0,0,0,1,0,0V70a9,9,0,0,1-9,9H9a9,9,0,0,1-9-9V0A0,0,0,0,1,0,0Z" transform="translate(513 1201)" fill="#faf8f8"/>
    <path id="사각형_182" data-name="사각형 182" d="M0,0H227a0,0,0,0,1,0,0V70a9,9,0,0,1-9,9H9a9,9,0,0,1-9-9V0A0,0,0,0,1,0,0Z" transform="translate(796 1201)" fill="#faf8f8"/>
    <g id="화살표" transform="translate(279.319 707.715)">
      <path id="패스_454" data-name="패스 454" d="M197.2,521.654a1.648,1.648,0,0,0,1.2.507,1.678,1.678,0,0,0,1.155-.465l14.626-14.053a1.666,1.666,0,0,0,0-2.393l-14.676-14.1a1.663,1.663,0,1,0-2.3,2.4l13.43,12.906-13.38,12.856A1.656,1.656,0,0,0,197.2,521.654Z" fill="#bfbaba"/>
    </g>
    <g id="화살표-2" data-name="화살표" transform="translate(279.319 871.715)">
      <path id="패스_454-2" data-name="패스 454" d="M197.2,521.654a1.648,1.648,0,0,0,1.2.507,1.678,1.678,0,0,0,1.155-.465l14.626-14.053a1.666,1.666,0,0,0,0-2.393l-14.676-14.1a1.663,1.663,0,1,0-2.3,2.4l13.43,12.906-13.38,12.856A1.656,1.656,0,0,0,197.2,521.654Z" fill="#bfbaba"/>
    </g>
    <g id="화살표-3" data-name="화살표" transform="translate(562.319 707.715)">
      <path id="패스_454-3" data-name="패스 454" d="M197.2,521.654a1.648,1.648,0,0,0,1.2.507,1.678,1.678,0,0,0,1.155-.465l14.626-14.053a1.666,1.666,0,0,0,0-2.393l-14.676-14.1a1.663,1.663,0,1,0-2.3,2.4l13.43,12.906-13.38,12.856A1.656,1.656,0,0,0,197.2,521.654Z" fill="#bfbaba"/>
    </g>
    <g id="화살표-4" data-name="화살표" transform="translate(846.319 707.715)">
      <path id="패스_454-4" data-name="패스 454" d="M197.2,521.654a1.648,1.648,0,0,0,1.2.507,1.678,1.678,0,0,0,1.155-.465l14.626-14.053a1.666,1.666,0,0,0,0-2.393l-14.676-14.1a1.663,1.663,0,1,0-2.3,2.4l13.43,12.906-13.38,12.856A1.656,1.656,0,0,0,197.2,521.654Z" fill="#bfbaba"/>
    </g>
    <text id="신청문의" transform="translate(313 1177)" fill="#fff" font-size="17" font-family="NanumSquareR, NanumSquare"><tspan x="0" y="0">신청문의</tspan></text>
    <text id="예약확인_및_승인" data-name="예약확인 및 승인" transform="translate(285 1340)" fill="#fff" font-size="17" font-family="NanumSquareR, NanumSquare"><tspan x="0" y="0">예약확인 및 승인</tspan></text>
    <text id="차량배차_및_이용" data-name="차량배차 및 이용" transform="translate(568 1340)" fill="#fff" font-size="17" font-family="NanumSquareR, NanumSquare"><tspan x="0" y="0">차량배차 및 이용</tspan></text>
    <text id="신청서_작성_및_제출" data-name="신청서 작성 및 제출" transform="translate(559 1177)" fill="#fff" font-size="17" font-family="NanumSquareR, NanumSquare"><tspan x="0" y="0">신청서 작성 및 제출</tspan></text>
    <text id="예약전화_시내-1일전_시외_및_읍면-2일전_" data-name="예약전화 (시내-1일전,
시외 및 읍면-2일전)" transform="translate(910 1166)" fill="#fff" font-size="17" font-family="NanumSquareR, NanumSquare"><tspan x="-77.35" y="0">예약전화 (시내-1일전,</tspan><tspan x="-69.658" y="22">시외 및 읍면-2일전)</tspan></text>
    <text id="통합돌봄지원센터_및_읍면동주민센터_통합돌봄_창구" data-name="통합돌봄지원센터 및 
읍면동주민센터 통합돌봄 창구" transform="translate(344 1235)" fill="#555" font-size="14" font-family="NanumSquareR, NanumSquare"><tspan x="-60.83" y="0">통합돌봄지원센터 및 </tspan><tspan x="-86.31" y="19">읍면동주민센터 통합돌봄 창구</tspan></text>
    <text id="통합돌봄지원센터" transform="translate(627 1245)" fill="#555" font-size="15" font-family="NanumSquareR, NanumSquare"><tspan x="-54.6" y="0">통합돌봄지원센터</tspan></text>
    <text id="통합돌봄지원센터-2" data-name="통합돌봄지원센터" transform="translate(910 1245)" fill="#555" font-size="15" font-family="NanumSquareR, NanumSquare"><tspan x="-54.6" y="0">통합돌봄지원센터</tspan></text>
    <text id="통합돌봄지원센터-3" data-name="통합돌봄지원센터" transform="translate(344 1410)" fill="#555" font-size="15" font-family="NanumSquareR, NanumSquare"><tspan x="-54.6" y="0">통합돌봄지원센터</tspan></text>
    <text id="통합돌봄지원센터-4" data-name="통합돌봄지원센터" transform="translate(628 1410)" fill="#555" font-size="15" font-family="NanumSquareR, NanumSquare"><tspan x="-54.6" y="0">통합돌봄지원센터</tspan></text>
  </g>
</svg>
