<svg xmlns="http://www.w3.org/2000/svg" width="981" height="501" viewBox="0 0 981 501">
  <g id="그룹_401" data-name="그룹 401" transform="translate(-210 -913)">
    <line id="선_73" data-name="선 73" x2="252" transform="translate(700.5 1063.5)" fill="none" stroke="#e5e5e5" stroke-width="4"/>
    <line id="선_103" data-name="선 103" x2="734" transform="translate(333.5 1136.5)" fill="none" stroke="#e5e5e5" stroke-width="4"/>
    <line id="선_40" data-name="선 40" y2="185" transform="translate(700.5 951.5)" fill="none" stroke="#e5e5e5" stroke-width="4"/>
    <line id="선_104" data-name="선 104" y2="185" transform="translate(700.5 1112.5)" fill="none" stroke="#e5e5e5" stroke-width="4"/>
    <line id="선_105" data-name="선 105" y2="161" transform="translate(333.5 1136.5)" fill="none" stroke="#e5e5e5" stroke-width="4"/>
    <line id="선_106" data-name="선 106" y2="161" transform="translate(1066.5 1136.5)" fill="none" stroke="#e5e5e5" stroke-width="4"/>
    <g id="사각형_223" data-name="사각형 223" transform="translate(210 1250)" fill="#fff" stroke="#ea609e" stroke-width="3">
      <rect width="246" height="72" rx="8" stroke="none"/>
      <rect x="1.5" y="1.5" width="243" height="69" rx="6.5" fill="none"/>
    </g>
    <g id="사각형_242" data-name="사각형 242" transform="translate(210 1342)" fill="#fff" stroke="#fcd4e3" stroke-width="3">
      <rect width="246" height="72" rx="8" stroke="none"/>
      <rect x="1.5" y="1.5" width="243" height="69" rx="6.5" fill="none"/>
    </g>
    <g id="사각형_243" data-name="사각형 243" transform="translate(577 1342)" fill="#fff" stroke="#fcd4e3" stroke-width="3">
      <rect width="246" height="72" rx="8" stroke="none"/>
      <rect x="1.5" y="1.5" width="243" height="69" rx="6.5" fill="none"/>
    </g>
    <g id="사각형_244" data-name="사각형 244" transform="translate(945 1342)" fill="#fff" stroke="#fcd4e3" stroke-width="3">
      <rect width="246" height="72" rx="8" stroke="none"/>
      <rect x="1.5" y="1.5" width="243" height="69" rx="6.5" fill="none"/>
    </g>
    <rect id="사각형_226" data-name="사각형 226" width="246" height="72" rx="8" transform="translate(577 913)" fill="#ea609e"/>
    <g id="사각형_224" data-name="사각형 224" transform="translate(577 1250)" fill="#fff" stroke="#ea609e" stroke-width="3">
      <rect width="246" height="72" rx="8" stroke="none"/>
      <rect x="1.5" y="1.5" width="243" height="69" rx="6.5" fill="none"/>
    </g>
    <g id="사각형_225" data-name="사각형 225" transform="translate(944 1250)" fill="#fff" stroke="#ea609e" stroke-width="3">
      <rect width="246" height="72" rx="8" stroke="none"/>
      <rect x="1.5" y="1.5" width="243" height="69" rx="6.5" fill="none"/>
    </g>
    <g id="사각형_227" data-name="사각형 227" transform="translate(945 1028)" fill="#fff" stroke="#a5a5a5" stroke-width="3" stroke-dasharray="2">
      <rect width="246" height="72" rx="8" stroke="none"/>
      <rect x="1.5" y="1.5" width="243" height="69" rx="6.5" fill="none"/>
    </g>
    <g id="타원_13" data-name="타원 13" transform="translate(326 1244)" fill="#ea609e" stroke="#fff" stroke-width="3">
      <circle cx="7" cy="7" r="7" stroke="none"/>
      <circle cx="7" cy="7" r="5.5" fill="none"/>
    </g>
    <g id="타원_41" data-name="타원 41" transform="translate(693 1244)" fill="#ea609e" stroke="#fff" stroke-width="3">
      <circle cx="7" cy="7" r="7" stroke="none"/>
      <circle cx="7" cy="7" r="5.5" fill="none"/>
    </g>
    <g id="타원_42" data-name="타원 42" transform="translate(1060 1244)" fill="#ea609e" stroke="#fff" stroke-width="3">
      <circle cx="7" cy="7" r="7" stroke="none"/>
      <circle cx="7" cy="7" r="5.5" fill="none"/>
    </g>
  </g>
</svg>
