<svg xmlns="http://www.w3.org/2000/svg" width="980" height="409" viewBox="0 0 980 409">
  <g id="그룹_385" data-name="그룹 385" transform="translate(-210 -913)">
    <line id="선_73" data-name="선 73" x2="252" transform="translate(699.827 1063.5)" fill="none" stroke="#e5e5e5" stroke-width="4"/>
    <line id="선_103" data-name="선 103" x2="733" transform="translate(333.5 1136.5)" fill="none" stroke="#e5e5e5" stroke-width="4"/>
    <line id="선_40" data-name="선 40" y2="185" transform="translate(700 951.5)" fill="none" stroke="#e5e5e5" stroke-width="4"/>
    <line id="선_104" data-name="선 104" y2="185" transform="translate(700 1112.5)" fill="none" stroke="#e5e5e5" stroke-width="4"/>
    <line id="선_105" data-name="선 105" y2="161" transform="translate(333.5 1136.5)" fill="none" stroke="#e5e5e5" stroke-width="4"/>
    <line id="선_106" data-name="선 106" y2="161" transform="translate(1065.5 1136.5)" fill="none" stroke="#e5e5e5" stroke-width="4"/>
    <g id="사각형_223" data-name="사각형 223" transform="translate(210 1250)" fill="#fff" stroke="#ea609e" stroke-width="3">
      <rect width="246" height="72" rx="8" stroke="none"/>
      <rect x="1.5" y="1.5" width="243" height="69" rx="6.5" fill="none"/>
    </g>
    <rect id="사각형_226" data-name="사각형 226" width="246" height="72" rx="8" transform="translate(576.501 913)" fill="#ea609e"/>
    <g id="사각형_224" data-name="사각형 224" transform="translate(576.501 1250)" fill="#fff" stroke="#ea609e" stroke-width="3">
      <rect width="246" height="72" rx="8" stroke="none"/>
      <rect x="1.5" y="1.5" width="243" height="69" rx="6.5" fill="none"/>
    </g>
    <g id="사각형_225" data-name="사각형 225" transform="translate(943 1250)" fill="#fff" stroke="#ea609e" stroke-width="3">
      <rect width="246" height="72" rx="8" stroke="none"/>
      <rect x="1.5" y="1.5" width="243" height="69" rx="6.5" fill="none"/>
    </g>
    <g id="사각형_227" data-name="사각형 227" transform="translate(944 1028)" fill="#fff" stroke="#a5a5a5" stroke-width="3" stroke-dasharray="2">
      <rect width="246" height="72" rx="8" stroke="none"/>
      <rect x="1.5" y="1.5" width="243" height="69" rx="6.5" fill="none"/>
    </g>
    <g id="타원_13" data-name="타원 13" transform="translate(326 1244)" fill="#ea609e" stroke="#fff" stroke-width="3">
      <circle cx="7" cy="7" r="7" stroke="none"/>
      <circle cx="7" cy="7" r="5.5" fill="none"/>
    </g>
    <g id="타원_41" data-name="타원 41" transform="translate(692.5 1244)" fill="#ea609e" stroke="#fff" stroke-width="3">
      <circle cx="7" cy="7" r="7" stroke="none"/>
      <circle cx="7" cy="7" r="5.5" fill="none"/>
    </g>
    <g id="타원_42" data-name="타원 42" transform="translate(1059 1244)" fill="#ea609e" stroke="#fff" stroke-width="3">
      <circle cx="7" cy="7" r="7" stroke="none"/>
      <circle cx="7" cy="7" r="5.5" fill="none"/>
    </g>
  </g>
</svg>
