<svg xmlns="http://www.w3.org/2000/svg" width="17.841" height="26.05" viewBox="0 0 17.841 26.05">
  <g id="XMLID_447_" transform="translate(-253.73 -198.45)">
    <g id="XMLID_365_" transform="translate(254.38 199.403)">
      <g id="XMLID_361_" transform="translate(0 0)">
        <path id="XMLID_356_" d="M260.21,200.34v5.64a2.386,2.386,0,0,1-2.385,2.386h-1.059a2.386,2.386,0,0,1-2.386-2.386v-5.64" transform="translate(-254.38 -200.19)" fill="none" stroke="#333" stroke-linecap="round" stroke-linejoin="round" stroke-miterlimit="10" stroke-width="1.3"/>
        <line id="XMLID_357_" x2="5.827" stroke-width="1.3" transform="translate(0.004 5.79)" stroke="#333" stroke-linecap="round" stroke-linejoin="round" stroke-miterlimit="10" fill="none"/>
        <line id="XMLID_358_" y2="5.524" stroke-width="1.3" transform="translate(1.896)" stroke="#333" stroke-linecap="round" stroke-linejoin="round" stroke-miterlimit="10" fill="none"/>
        <line id="XMLID_359_" y2="5.524" stroke-width="1.3" transform="translate(3.788)" stroke="#333" stroke-linecap="round" stroke-linejoin="round" stroke-miterlimit="10" fill="none"/>
      </g>
      <line id="XMLID_360_" y2="6.736" stroke-width="1.3" transform="translate(2.919 8.176)" stroke="#333" stroke-linecap="round" stroke-linejoin="round" stroke-miterlimit="10" fill="none"/>
      <path id="XMLID_346_" d="M259.673,250.539h0a1.551,1.551,0,0,1-1.553-1.553V242.7a1.551,1.551,0,0,1,1.553-1.553h0a1.551,1.551,0,0,1,1.553,1.553v6.283A1.556,1.556,0,0,1,259.673,250.539Z" transform="translate(-256.754 -226.092)" fill="none" stroke="#333" stroke-linecap="round" stroke-linejoin="round" stroke-miterlimit="10" stroke-width="1.3"/>
    </g>
    <g id="XMLID_366_" transform="translate(264.485 199.1)">
      <line id="XMLID_364_" y2="6.437" stroke-width="1.3" transform="translate(3.218 8.779)" stroke="#333" stroke-linecap="round" stroke-linejoin="round" stroke-miterlimit="10" fill="none"/>
      <path id="XMLID_363_" d="M288.153,250.539h0a1.551,1.551,0,0,1-1.553-1.553V242.7a1.551,1.551,0,0,1,1.553-1.553h0a1.551,1.551,0,0,1,1.553,1.553v6.283A1.551,1.551,0,0,1,288.153,250.539Z" transform="translate(-284.934 -225.788)" fill="none" stroke="#333" stroke-linecap="round" stroke-linejoin="round" stroke-miterlimit="10" stroke-width="1.3"/>
      <path id="XMLID_362_" d="M288.477,203.491c0,2.426-1.439,4.391-3.218,4.391s-3.218-1.965-3.218-4.391,1.439-4.391,3.218-4.391S288.477,201.065,288.477,203.491Z" transform="translate(-282.04 -199.1)" fill="none" stroke="#333" stroke-linecap="round" stroke-linejoin="round" stroke-miterlimit="10" stroke-width="1.3"/>
    </g>
  </g>
</svg>
