<svg xmlns="http://www.w3.org/2000/svg" width="24.633" height="27.293" viewBox="0 0 24.633 27.293">
  <g id="XMLID_1672_" transform="translate(-215.21 -258.37)">
    <path id="XMLID_1491_" d="M239.093,293.885H215.96l1.875-18.915h19.384Z" transform="translate(0 -8.972)" fill="none" stroke="#484748" stroke-linecap="round" stroke-linejoin="round" stroke-miterlimit="10" stroke-width="1.5"/>
    <path id="XMLID_1497_" d="M231.09,267.877v-3.832a4.924,4.924,0,0,1,4.925-4.925h0a4.924,4.924,0,0,1,4.925,4.925v3.832" transform="translate(-8.565)" fill="none" stroke="#484748" stroke-linecap="round" stroke-linejoin="round" stroke-miterlimit="10" stroke-width="1.5"/>
    <path id="XMLID_1498_" d="M230.733,281.747a1.467,1.467,0,1,1-1.467-1.467A1.465,1.465,0,0,1,230.733,281.747Z" transform="translate(-6.702 -11.978)" fill="none" stroke="#484748" stroke-linecap="round" stroke-linejoin="round" stroke-miterlimit="10" stroke-width="1.5"/>
    <path id="XMLID_1499_" d="M252.883,281.747a1.467,1.467,0,1,1-1.467-1.467A1.465,1.465,0,0,1,252.883,281.747Z" transform="translate(-19.24 -11.978)" fill="none" stroke="#484748" stroke-linecap="round" stroke-linejoin="round" stroke-miterlimit="10" stroke-width="1.5"/>
  </g>
</svg>
