<svg xmlns="http://www.w3.org/2000/svg" width="70.905" height="69.803" viewBox="0 0 70.905 69.803">
  <g id="재능기부" transform="translate(-83.615 -376.108)">
    <path id="패스_383" data-name="패스 383" d="M112.616,421.3l3.421-3.421a2.282,2.282,0,0,0,.673-1.621,2.307,2.307,0,0,0-.055-.488L111.73,420.7A4.5,4.5,0,0,1,112.616,421.3Z" transform="translate(-8.799 -12.414)" fill="#fcf1f5"/>
    <path id="패스_384" data-name="패스 384" d="M103.657,419.7a1.671,1.671,0,0,0-2.851,1.182v11.411a1.374,1.374,0,0,1-2.748,0V420.878a4.414,4.414,0,0,1,2.528-3.992l9.309-9.309a2.289,2.289,0,0,0,0-3.243,2.358,2.358,0,0,0-3.25,0L97.22,413.76l-.055.055c-.921.824-3.311,3.456-3.311,5.654V437.62a1.351,1.351,0,0,1-.405.969L88.44,443.6l7.619,7.619,8.485-8.485a7.437,7.437,0,0,0,1.979-7.811,12.566,12.566,0,0,0-2.061-4.033,1.362,1.362,0,0,1-.316-.873v-9.13A1.69,1.69,0,0,0,103.657,419.7Z" transform="translate(-1.51 -8.631)" fill="#fcf1f5"/>
    <path id="패스_385" data-name="패스 385" d="M111.8,404.693a5.043,5.043,0,0,0-8.608-3.566l-9.4,9.4c-.556.5-4.2,3.937-4.2,7.674V435.78l-5.579,5.579a1.377,1.377,0,0,0,0,1.944l9.563,9.563a1.36,1.36,0,0,0,1.937,0l9.453-9.453c5.359-5.359,2.755-12.016.405-15.142v-8.65a4.233,4.233,0,0,0-.1-.934l3.9-3.9a5.026,5.026,0,0,0,.763-6.142l.378-.378A5.01,5.01,0,0,0,111.8,404.693Zm-3.889,6.52a2.282,2.282,0,0,1-.673,1.621l-3.421,3.421a4.5,4.5,0,0,0-.886-.6l4.926-4.926A2.308,2.308,0,0,1,107.911,411.213Zm-5.276,17.533a1.349,1.349,0,0,0,.316.872,12.566,12.566,0,0,1,2.061,4.033,7.423,7.423,0,0,1-1.979,7.811l-8.485,8.485-7.619-7.619,5.008-5.008a1.362,1.362,0,0,0,.405-.969V418.2c0-2.2,2.391-4.83,3.311-5.654a.413.413,0,0,0,.055-.055l9.426-9.426a2.358,2.358,0,0,1,3.25,0,2.289,2.289,0,0,1,0,3.243l-9.309,9.309a4.425,4.425,0,0,0-2.528,3.992v11.411a1.374,1.374,0,0,0,2.748,0V419.608a1.669,1.669,0,1,1,3.339,0Z" transform="translate(0 -7.368)" fill="#3d3736"/>
    <path id="패스_386" data-name="패스 386" d="M156.442,420.7l-4.926-4.926a2.282,2.282,0,0,0,.618,2.109l3.421,3.421A4.5,4.5,0,0,1,156.442,420.7Z" transform="translate(-21.236 -12.414)" fill="#fcf1f5"/>
    <path id="패스_387" data-name="패스 387" d="M166.505,437.61V419.459c0-2.2-2.391-4.83-3.311-5.654a.209.209,0,0,1-.055-.055l-9.426-9.426a2.358,2.358,0,0,0-3.25,0,2.289,2.289,0,0,0,0,3.243l9.3,9.3a4.425,4.425,0,0,1,2.528,3.992v11.411a1.374,1.374,0,0,1-2.748,0V420.861a1.669,1.669,0,1,0-3.339,0v9.13a1.349,1.349,0,0,1-.316.872c-.22.268-5.311,6.63-.089,11.851l8.485,8.485,7.633-7.612-5.008-5.008A1.379,1.379,0,0,1,166.505,437.61Z" transform="translate(-20.712 -8.628)" fill="#fcf1f5"/>
    <path id="패스_388" data-name="패스 388" d="M164.787,433.991l-5.579-5.579V410.831c0-3.744-3.641-7.172-4.2-7.674l-9.4-9.4a5.042,5.042,0,0,0-7.131,0,4.369,4.369,0,0,0-.44.515,8.916,8.916,0,0,0-2.047-9.845l-7.928-7.935a1.416,1.416,0,0,0-1.944,0l-8.024,8.024a1.377,1.377,0,0,0,0,1.944l4.61,4.61v14.654c0,3.222,3.1,6.156,3.593,6.6l7.88,7.88a4.45,4.45,0,1,0,6.293-6.293l-.2-.2a4.463,4.463,0,0,0-.763-5.276l-3.195-3.195a3.909,3.909,0,0,0,.069-.7v-7.186a10.535,10.535,0,0,0,.728-1.12,5.27,5.27,0,0,0-.124,1.092,5,5,0,0,0,1.477,3.566l.378.378a5.043,5.043,0,0,0,.763,6.142l3.9,3.9a4.635,4.635,0,0,0-.1.934v8.656c-2.35,3.126-4.953,9.783.405,15.142l9.453,9.453a1.36,1.36,0,0,0,1.937,0l9.563-9.563A1.367,1.367,0,0,0,164.787,433.991Zm-30.311-26.079a3.533,3.533,0,0,0,.371-.254l2.721,2.727a1.681,1.681,0,0,1,.488,1.113Zm-.831-11.027v7.653a1.178,1.178,0,1,1-2.356,0v-9.57a1.374,1.374,0,0,0-2.748,0v9.57a3.923,3.923,0,0,0,2.212,3.531l7.777,7.777a1.692,1.692,0,0,1,0,2.4,1.743,1.743,0,0,1-2.411,0l-7.9-7.908-.055-.055c-.7-.625-2.707-2.81-2.707-4.576V390.489a1.351,1.351,0,0,0-.405-.969l-4.04-4.04,6.08-6.08,6.96,6.96c4.232,4.232.089,9.426-.089,9.639A1.4,1.4,0,0,0,133.644,396.885Zm20.6,45.694-8.485-8.485c-5.221-5.221-.131-11.583.089-11.851a1.362,1.362,0,0,0,.316-.872v-9.13a1.669,1.669,0,0,1,3.339,0v11.411a1.374,1.374,0,0,0,2.748,0V412.24a4.425,4.425,0,0,0-2.528-3.992l-9.3-9.3a2.289,2.289,0,0,1,0-3.243,2.358,2.358,0,0,1,3.25,0l9.426,9.426.055.055c.921.824,3.311,3.456,3.311,5.654v18.151a1.351,1.351,0,0,0,.405.969l5.008,5.008Zm-13.3-39.222,4.926,4.926a4.494,4.494,0,0,0-.886.6l-3.421-3.421A2.3,2.3,0,0,1,140.947,403.356Z" transform="translate(-10.666)" fill="#3d3736"/>
    <path id="패스_389" data-name="패스 389" d="M142.491,422.03a3.53,3.53,0,0,1-.371.254l3.586,3.586a1.681,1.681,0,0,0-.488-1.113Z" transform="translate(-18.311 -14.373)" fill="#ea609e"/>
    <path id="패스_390" data-name="패스 390" d="M135.56,387.869l-6.96-6.96-6.08,6.08,4.04,4.04a1.363,1.363,0,0,1,.405.969v15.224c0,1.766,2.006,3.95,2.707,4.576a.413.413,0,0,1,.055.055l7.9,7.908a1.743,1.743,0,0,0,2.411,0,1.692,1.692,0,0,0,0-2.4l-7.777-7.777a3.935,3.935,0,0,1-2.212-3.531v-9.57a1.374,1.374,0,0,1,2.748,0v9.57a1.178,1.178,0,1,0,2.356,0v-7.653a1.349,1.349,0,0,1,.316-.872C135.642,397.3,139.792,392.1,135.56,387.869Z" transform="translate(-12.177 -1.503)" fill="#ea609e"/>
  </g>
</svg>
