<svg xmlns="http://www.w3.org/2000/svg" width="68.326" height="61.889" viewBox="0 0 68.326 61.889">
  <g id="물품후원" transform="translate(-210.023 -420.22)">
    <path id="패스_391" data-name="패스 391" d="M254.737,428.406a6.787,6.787,0,0,1,.887-3.355,4.185,4.185,0,0,0-6.293,5.149h5.652A6.942,6.942,0,0,1,254.737,428.406Z" transform="translate(-13.156 -1.349)" fill="#f8b616"/>
    <path id="패스_392" data-name="패스 392" d="M265.906,424.21a4.182,4.182,0,0,0-3.785,5.989h7.571a4.182,4.182,0,0,0-3.785-5.989Z" transform="translate(-17.482 -1.349)" fill="#f8b616"/>
    <path id="패스_393" data-name="패스 393" d="M276.278,474.8l-9.265-21.673c-.139.013-.271.02-.41.02a4.358,4.358,0,0,1-4.01-2.647,6.672,6.672,0,0,0-6.141-4.057H234.666a6.672,6.672,0,0,0-6.141,4.057,4.358,4.358,0,0,1-4.01,2.647c-.139,0-.278-.007-.41-.02L214.839,474.8a9.716,9.716,0,0,0,8.934,13.533h43.578a9.709,9.709,0,0,0,8.927-13.533Zm-17.841-4.341-11.363,11.363a2.15,2.15,0,0,1-1.515.629,2.127,2.127,0,0,1-1.515-.629l-11.363-11.363a9.361,9.361,0,0,1,12.885-13.573,9.356,9.356,0,0,1,12.871,13.573Z" transform="translate(-1.364 -8.868)" fill="#fcf1f5"/>
    <path id="패스_394" data-name="패스 394" d="M277.35,464.89l-9.265-21.673a4.354,4.354,0,0,0,1.158-5.01,15.388,15.388,0,0,0-14.162-9.351h-.066a6.705,6.705,0,0,0,.245-1.793,6.836,6.836,0,0,0-11.078-5.367,6.831,6.831,0,0,0-11.071,5.367,6.941,6.941,0,0,0,.245,1.793h-.066a15.378,15.378,0,0,0-14.162,9.351,4.365,4.365,0,0,0,1.158,5.01L211.02,464.89a12.364,12.364,0,0,0,11.369,17.219h43.578A12.377,12.377,0,0,0,277.35,464.89ZM265.98,479.462H222.4a9.716,9.716,0,0,1-8.934-13.533l9.265-21.673c.139.013.271.02.41.02a4.358,4.358,0,0,0,4.01-2.647,6.672,6.672,0,0,1,6.141-4.057h21.786a6.672,6.672,0,0,1,6.141,4.057,4.358,4.358,0,0,0,4.01,2.647c.139,0,.278-.007.41-.02l9.265,21.673a9.716,9.716,0,0,1-8.927,13.533Zm-44.4-40.222A12.734,12.734,0,0,1,233.3,431.5h21.786a12.734,12.734,0,0,1,11.727,7.743,1.718,1.718,0,0,1-.9,2.25,1.752,1.752,0,0,1-2.25-.9,9.315,9.315,0,0,0-8.577-5.665H233.3a9.315,9.315,0,0,0-8.577,5.665,1.749,1.749,0,0,1-2.25.9A1.716,1.716,0,0,1,221.575,439.239Zm14.188-12.183a4.187,4.187,0,0,1,6.7-3.355,6.787,6.787,0,0,0-.887,3.355,6.943,6.943,0,0,0,.245,1.793h-5.652A4.172,4.172,0,0,1,235.764,427.056Zm16.452,1.8h-7.571a4.193,4.193,0,1,1,7.981-1.793A4.217,4.217,0,0,1,252.215,428.856Z" transform="translate(0 0)" fill="#3d3736"/>
    <path id="패스_395" data-name="패스 395" d="M228.31,447.253a1.749,1.749,0,0,0,2.25-.9,9.315,9.315,0,0,1,8.577-5.665h21.786a9.315,9.315,0,0,1,8.577,5.665,1.743,1.743,0,0,0,2.25.9,1.716,1.716,0,0,0,.9-2.25,12.734,12.734,0,0,0-11.727-7.743H239.136A12.734,12.734,0,0,0,227.41,445,1.716,1.716,0,0,0,228.31,447.253Z" transform="translate(-5.834 -5.763)" fill="#fff"/>
    <path id="패스_396" data-name="패스 396" d="M244.019,474.045l11.012,11.012,11.012-11.012a6.71,6.71,0,1,0-9.49-9.49l-.582.582a1.326,1.326,0,0,1-1.873,0l-.582-.582a6.713,6.713,0,0,0-9.5,9.49Z" transform="translate(-10.836 -14.331)" fill="#ea609e"/>
    <path id="패스_397" data-name="패스 397" d="M259.931,458.59a9.336,9.336,0,0,0-6.267,2.4,9.361,9.361,0,0,0-12.885,13.573l11.363,11.363a2.141,2.141,0,0,0,3.031,0l11.363-11.363a9.357,9.357,0,0,0-6.6-15.975ZM247.4,461.237a6.646,6.646,0,0,1,4.745,1.965l.582.582a1.326,1.326,0,0,0,1.873,0l.582-.582a6.71,6.71,0,1,1,9.49,9.49L253.664,483.7l-11.012-11.012a6.71,6.71,0,0,1,4.752-11.455Z" transform="translate(-9.476 -12.978)" fill="#3d3736"/>
  </g>
</svg>
