<svg xmlns="http://www.w3.org/2000/svg" width="56" height="71.617" viewBox="0 0 56 71.617">
  <g id="정기후원" transform="translate(-201.27 -266.81)">
    <g id="그룹_229" data-name="그룹 229" transform="translate(201.27 266.81)">
      <rect id="사각형_168" data-name="사각형 168" width="50.444" height="30.486" transform="translate(2.783 38.355)" fill="#fff"/>
      <path id="패스_353" data-name="패스 353" d="M257.231,303.451c-.007-.028-.021-.055-.028-.083a1.135,1.135,0,0,0-.1-.229c-.007-.014-.014-.035-.021-.049l-7.127-12.352a1.39,1.39,0,0,0-1.2-.694h-5.9a15.593,15.593,0,1,0-27.175,0h-5.9a1.382,1.382,0,0,0-1.2.694l-7.127,12.352c-.007.014-.014.035-.021.049a1.622,1.622,0,0,0-.1.229c-.007.028-.021.056-.028.083a1.275,1.275,0,0,0-.042.326v33.261a1.392,1.392,0,0,0,1.388,1.388h53.22a1.392,1.392,0,0,0,1.388-1.388V303.777A.859.859,0,0,0,257.231,303.451Zm-2.727,32.2H204.06V305.165H254.5Zm-25.225-66.072A12.814,12.814,0,1,1,216.461,282.4,12.831,12.831,0,0,1,229.278,269.579Zm6.849,26.815H241.2a.729.729,0,1,1,0,1.457h-9.965A15.321,15.321,0,0,0,236.128,296.393Zm-8.806,1.464h-9.965a.729.729,0,1,1,0-1.457h5.073A15.681,15.681,0,0,0,227.321,297.858Zm-7.2-2.852h-2.776a2.117,2.117,0,1,0,0,4.233H241.2a2.117,2.117,0,0,0,0-4.233h-2.776a15.572,15.572,0,0,0,2.436-2.193h7.092l5.524,9.577H205.059l5.524-9.577h7.092A16.67,16.67,0,0,0,220.125,295.006Z" transform="translate(-201.27 -266.81)" fill="#3d3736"/>
      <path id="패스_354" data-name="패스 354" d="M206.75,313.857h48.418l-5.524-9.577h-7.092a15.893,15.893,0,0,1-2.436,2.193h2.776a2.117,2.117,0,1,1,0,4.233H219.04a2.117,2.117,0,1,1,0-4.233h2.776a15.573,15.573,0,0,1-2.436-2.193h-7.092Z" transform="translate(-202.947 -278.277)" fill="#ea609e"/>
      <path id="패스_355" data-name="패스 355" d="M255.154,310.169a.729.729,0,0,0-.729-.729h-5.073a15.563,15.563,0,0,1-4.892,1.464h9.965A.73.73,0,0,0,255.154,310.169Z" transform="translate(-214.488 -279.857)" fill="#fff"/>
      <path id="패스_356" data-name="패스 356" d="M223.39,310.166a.729.729,0,0,0,.729.729h9.965a15.332,15.332,0,0,1-4.892-1.464h-5.073A.739.739,0,0,0,223.39,310.166Z" transform="translate(-208.04 -279.853)" fill="#fff"/>
      <path id="패스_357" data-name="패스 357" d="M235.977,296.428a12.814,12.814,0,1,0-12.817-12.81A12.83,12.83,0,0,0,235.977,296.428Zm0-24.025a11.214,11.214,0,1,1-11.214,11.214A11.228,11.228,0,0,1,235.977,272.4Z" transform="translate(-207.969 -268.031)" fill="#f8b616"/>
      <path id="패스_358" data-name="패스 358" d="M239.882,282.3a2,2,0,0,0-1.291.486,1.251,1.251,0,0,0-.361.881v.229a2.016,2.016,0,0,0,.1.694,1.228,1.228,0,0,0,.291.472,1.654,1.654,0,0,0,.514.34,5.972,5.972,0,0,0,.749.278Z" transform="translate(-212.581 -271.551)" fill="#f8b616"/>
      <path id="패스_359" data-name="패스 359" d="M244.413,292.771v-.1a3.2,3.2,0,0,0-.049-.6,1.106,1.106,0,0,0-.236-.5,1.739,1.739,0,0,0-.541-.416,4.819,4.819,0,0,0-.958-.361v3.567a2.108,2.108,0,0,0,1.395-.576A1.577,1.577,0,0,0,244.413,292.771Z" transform="translate(-213.928 -274.152)" fill="#f8b616"/>
      <path id="패스_362" data-name="패스 362" d="M237.461,290.035a6.341,6.341,0,0,1-1.235-.569.984.984,0,0,0-.756-.132,1.1,1.1,0,0,0-.625.472,1.116,1.116,0,0,0-.18.805.93.93,0,0,0,.486.673,6.453,6.453,0,0,0,1.7.7,10.1,10.1,0,0,0,1.943.34v.812a.5.5,0,0,0,.222.465.846.846,0,0,0,.486.139.919.919,0,0,0,.486-.139.513.513,0,0,0,.215-.465v-.812a7.928,7.928,0,0,0,1.631-.264,3.716,3.716,0,0,0,1.319-.645,2.99,2.99,0,0,0,.881-1.131,4.122,4.122,0,0,0,.319-1.735v-.055a4.409,4.409,0,0,0-.18-1.3,2.472,2.472,0,0,0-.645-1.041,4.287,4.287,0,0,0-1.27-.833,12.65,12.65,0,0,0-2.054-.708v-3.754a5.069,5.069,0,0,1,1.11.187,6.462,6.462,0,0,1,.978.416.807.807,0,0,0,.7.083,1.083,1.083,0,0,0,.534-.5,1.059,1.059,0,0,0,.111-.777.905.905,0,0,0-.493-.6,7.038,7.038,0,0,0-2.942-.777v-.569a.513.513,0,0,0-.215-.465.883.883,0,0,0-.972,0,.518.518,0,0,0-.222.465v.59a5.9,5.9,0,0,0-1.908.437,3.733,3.733,0,0,0-1.221.826,2.875,2.875,0,0,0-.652,1.055,3.429,3.429,0,0,0-.2,1.117v.243a3.564,3.564,0,0,0,.368,1.7,3.319,3.319,0,0,0,.951,1.1,4.7,4.7,0,0,0,1.284.666c.465.16.93.291,1.381.409v3.886A7.638,7.638,0,0,1,237.461,290.035Zm2.727-3.241a4.826,4.826,0,0,1,.958.361,1.741,1.741,0,0,1,.541.416,1.107,1.107,0,0,1,.236.5,3.922,3.922,0,0,1,.049.6v.1a1.546,1.546,0,0,1-.389,1.013,2.044,2.044,0,0,1-1.395.576Zm-2.151-2.8a1.787,1.787,0,0,1-.514-.34,1.228,1.228,0,0,1-.291-.472,2.168,2.168,0,0,1-.1-.694v-.229a1.251,1.251,0,0,1,.361-.881,2.017,2.017,0,0,1,1.291-.486v3.373A6.053,6.053,0,0,1,238.037,284Z" transform="translate(-211.486 -270.146)" fill="#3d3736"/>
    </g>
  </g>
</svg>
