<svg xmlns="http://www.w3.org/2000/svg" width="57.09" height="61.589" viewBox="0 0 57.09 61.589">
  <g id="자원봉사" transform="translate(-213.17 -385.07)">
    <path id="패스_377" data-name="패스 377" d="M237.882,437.6l5.2-4.654a1.2,1.2,0,0,1,1.593,0l5.2,4.654L269.22,426.4l-10.579-9.469-13.21,13.211a2.206,2.206,0,0,1-1.545.638,2.167,2.167,0,0,1-1.539-.638L229.129,416.92l-10.579,9.463Z" transform="translate(-2.17 -12.846)" fill="#fcf1f5"/>
    <path id="패스_378" data-name="패스 378" d="M235.444,447.213l-18.294-10.6v26.976Z" transform="translate(-1.605 -20.787)" fill="#fff"/>
    <path id="패스_379" data-name="패스 379" d="M274.19,447.219l18.294,16.367V436.61Z" transform="translate(-24.611 -20.787)" fill="#fff"/>
    <path id="패스_380" data-name="패스 380" d="M270.26,445.466V413.752a1.177,1.177,0,0,0-.036-.286.47.47,0,0,0-.03-.084,1.009,1.009,0,0,0-.078-.185c-.018-.03-.03-.06-.048-.084a1.527,1.527,0,0,0-.119-.155c-.024-.024-.042-.048-.066-.072a.059.059,0,0,1-.024-.03l-11.814-10.573a10.854,10.854,0,0,0-16.3-14.2h-.066a10.853,10.853,0,0,0-16.3,14.2l-11.814,10.573a.06.06,0,0,0-.024.03.634.634,0,0,0-.06.072,1.526,1.526,0,0,0-.119.155.6.6,0,0,0-.048.084,1.714,1.714,0,0,0-.078.185c-.012.03-.018.054-.03.084a1.142,1.142,0,0,0-.036.286v31.714c0,.012.006.03.006.042v.042a.657.657,0,0,0,.012.107c.006.03.006.054.012.078s.006.024.006.042.024.06.03.09c.006.012,0,.018.006.03s.006.006.006.012.012.03.018.042a1.055,1.055,0,0,0,.143.239c.012.012.018.024.03.036a.715.715,0,0,0,.066.072.162.162,0,0,0,.048.042.875.875,0,0,0,.113.1h.006c.006.006.012.006.012.012l.048.03a.764.764,0,0,0,.119.066c.024.012.048.024.078.036s.042.018.06.024.018.006.03.006.03.006.042.012l.072.018a1.317,1.317,0,0,0,.221.024h54.71a.894.894,0,0,0,.221-.024l.072-.018c.012-.006.03-.006.042-.012a.258.258,0,0,0,.03-.006.621.621,0,0,0,.06-.024l.078-.036a1.187,1.187,0,0,0,.119-.066.332.332,0,0,0,.048-.03c.006-.006.012-.006.012-.012h.006a.87.87,0,0,0,.113-.1.342.342,0,0,0,.048-.042c.024-.024.042-.048.066-.072s.018-.024.03-.036a1.207,1.207,0,0,0,.143-.239c.006-.012.012-.03.018-.042s.006-.006.006-.012,0-.018.006-.03a.523.523,0,0,0,.03-.09.088.088,0,0,0,.006-.042.349.349,0,0,0,.012-.078.659.659,0,0,0,.012-.107v-.042A.052.052,0,0,0,270.26,445.466Zm-36.093-58a8.412,8.412,0,0,1,5.991,2.482l.7.7a1.183,1.183,0,0,0,.841.352h0a1.173,1.173,0,0,0,.841-.352l.7-.7a8.472,8.472,0,1,1,11.981,11.981l-13.515,13.533-13.533-13.533a8.473,8.473,0,0,1,5.991-14.464Zm-7.214,16.618L240.17,417.3a2.167,2.167,0,0,0,1.539.638,2.206,2.206,0,0,0,1.545-.638l13.21-13.21,10.579,9.469-19.338,11.206-5.2-4.654a1.2,1.2,0,0,0-1.593,0l-5.2,4.654-19.338-11.206Zm6.886,22.346-18.294,16.367v-26.97Zm15.74.006,18.294-10.6V442.8Zm-7.87-3.843,24.231,21.683H217.478Z" fill="#3d3736"/>
    <path id="패스_381" data-name="패스 381" d="M267.54,469.633h1.313L244.621,447.95,220.39,469.633h47.15Z" transform="translate(-2.912 -25.361)" fill="#fff"/>
    <path id="패스_382" data-name="패스 382" d="M236.654,403.544l13.533,13.533,13.533-13.533a8.472,8.472,0,1,0-11.981-11.981l-.7.7a1.183,1.183,0,0,1-.841.352h0a1.173,1.173,0,0,1-.841-.352l-.7-.7a8.473,8.473,0,0,0-14.464,5.991A8.322,8.322,0,0,0,236.654,403.544Z" transform="translate(-8.478 -1.617)" fill="#ea609e"/>
  </g>
</svg>
