<svg xmlns="http://www.w3.org/2000/svg" width="879" height="718" viewBox="0 0 879 718">
  <g id="그룹_511" data-name="그룹 511" transform="translate(-261 -813)">
    <g id="그룹_502" data-name="그룹 502" transform="translate(590 813)">
      <rect id="사각형_359" data-name="사각형 359" width="221" height="40" fill="#757575"/>
      <rect id="사각형_360" data-name="사각형 360" width="221" height="70" transform="translate(0 40)" fill="#f8f8f8"/>
      <text id="제주시" transform="translate(87 25)" fill="#fff" font-size="17" font-family="NanumSquareR, NanumSquare"><tspan x="0" y="0">제주시</tspan></text>
      <text id="운영기관_지도_감독_운영비_교부" data-name="운영기관 지도 감독
운영비 교부" transform="translate(110 68)" fill="#555" font-size="17" font-family="NanumSquareR, NanumSquare"><tspan x="-66.13" y="0">운영기관 지도 감독</tspan><tspan x="-40.8" y="24">운영비 교부</tspan></text>
    </g>
    <g id="그룹_503" data-name="그룹 503" transform="translate(590 967)">
      <rect id="사각형_359-2" data-name="사각형 359" width="221" height="40" fill="#757575"/>
      <rect id="사각형_360-2" data-name="사각형 360" width="221" height="70" transform="translate(0 40)" fill="#f8f8f8"/>
      <text id="주민센터" transform="translate(79 25)" fill="#fff" font-size="17" font-family="NanumSquareR, NanumSquare"><tspan x="0" y="0">주민센터</tspan></text>
      <text id="대상자_연계_서비스_신청_접수" data-name="대상자 연계
서비스 신청 접수" transform="translate(110 68)" fill="#555" font-size="17" font-family="NanumSquareR, NanumSquare"><tspan x="-40.8" y="0">대상자 연계</tspan><tspan x="-58.395" y="24">서비스 신청 접수</tspan></text>
    </g>
    <g id="그룹_505" data-name="그룹 505" transform="translate(261 967)">
      <rect id="사각형_359-3" data-name="사각형 359" width="221" height="40" fill="#757575"/>
      <rect id="사각형_360-3" data-name="사각형 360" width="221" height="74" transform="translate(0 40)" fill="#f8f8f8"/>
      <text id="공공서비스_기관" data-name="공공서비스 기관" transform="translate(54 25)" fill="#fff" font-size="17" font-family="NanumSquareR, NanumSquare"><tspan x="0" y="0">공공서비스 기관</tspan></text>
      <text id="_·_발달장애인지원센터_·_국민연금관리공단" data-name="· 발달장애인지원센터
· 국민연금관리공단" transform="translate(20 70)" fill="#555" font-size="17" font-family="NanumSquareR, NanumSquare"><tspan x="0" y="0">· 발달장애인지원센터</tspan><tspan x="0" y="26">· 국민연금관리공단</tspan></text>
    </g>
    <g id="그룹_509" data-name="그룹 509" transform="translate(0 64)">
      <rect id="사각형_359-4" data-name="사각형 359" width="221" height="40" transform="translate(919 903)" fill="#757575"/>
      <rect id="사각형_360-4" data-name="사각형 360" width="221" height="74" transform="translate(919 943)" fill="#f8f8f8"/>
      <text id="주택공급_기관" data-name="주택공급 기관" transform="translate(981 928)" fill="#fff" font-size="17" font-family="NanumSquareR, NanumSquare"><tspan x="0" y="0">주택공급 기관</tspan></text>
      <text id="_·_LH한국토지주택공사_·_제주개발공사" data-name="· LH한국토지주택공사
· 제주개발공사" transform="translate(939 973)" fill="#555" font-size="17" font-family="NanumSquareR, NanumSquare"><tspan x="0" y="0">· LH한국토지주택공사</tspan><tspan x="0" y="26">· 제주개발공사</tspan></text>
    </g>
    <g id="그룹_506" data-name="그룹 506" transform="translate(261 1121)">
      <rect id="사각형_359-5" data-name="사각형 359" width="221" height="40" fill="#757575"/>
      <rect id="사각형_360-5" data-name="사각형 360" width="221" height="260" transform="translate(0 40)" fill="#f8f8f8"/>
      <text id="지역사회_서비스기관" data-name="지역사회 서비스기관" transform="translate(39 25)" fill="#fff" font-size="17" font-family="NanumSquareR, NanumSquare"><tspan x="0" y="0">지역사회 서비스기관</tspan></text>
      <text id="_·_주거복지센터_·_장애인_복지관_·_종합사회복지관_·_장애인자립생활센터_·_장애인직업재활센터_·_정신건강복지센터_·_보건소_·_푸드뱅크마켓_·_비영리복지재단" data-name="· 주거복지센터
· 장애인 복지관
· 종합사회복지관
· 장애인자립생활센터
· 장애인직업재활센터
· 정신건강복지센터
· 보건소
· 푸드뱅크마켓
· 비영리복지재단" transform="translate(20 70)" fill="#555" font-size="17" font-family="NanumSquareR, NanumSquare"><tspan x="0" y="0">· 주거복지센터</tspan><tspan x="0" y="26">· 장애인 복지관</tspan><tspan x="0" y="52">· 종합사회복지관</tspan><tspan x="0" y="78">· 장애인자립생활센터</tspan><tspan x="0" y="104">· 장애인직업재활센터</tspan><tspan x="0" y="130">· 정신건강복지센터</tspan><tspan x="0" y="156">· 보건소</tspan><tspan x="0" y="182">· 푸드뱅크마켓</tspan><tspan x="0" y="208">· 비영리복지재단</tspan></text>
    </g>
    <g id="그룹_510" data-name="그룹 510" transform="translate(0 79)">
      <g id="그룹_508" data-name="그룹 508" transform="translate(919 1042)">
        <rect id="사각형_359-6" data-name="사각형 359" width="221" height="40" fill="#757575"/>
        <path id="패스_1192" data-name="패스 1192" d="M0,0H221V154H0Z" transform="translate(0 40)" fill="#f8f8f8"/>
        <text id="권익옹호_기관" data-name="권익옹호 기관" transform="translate(62 25)" fill="#fff" font-size="17" font-family="NanumSquareR, NanumSquare"><tspan x="0" y="0">권익옹호 기관</tspan></text>
        <text id="_·_한국자폐인사랑협회_발달장애인_신탁서비스_" data-name="· 한국자폐인사랑협회
   (발달장애인 신탁서비스)" transform="translate(20 70)" fill="#555" font-size="17" font-family="NanumSquareR, NanumSquare"><tspan x="0" y="0">· 한국자폐인사랑협회</tspan><tspan x="0" y="24" xml:space="preserve">   (발달장애인 신탁서비스)</tspan></text>
      </g>
      <text id="_·_공공후견지원사업_기관_·_장애인권익옹호기관_·_장애인부모회" data-name="· 공공후견지원사업 기관
· 장애인권익옹호기관
· 장애인부모회" transform="translate(936 1164)" fill="#555" font-size="17" font-family="NanumSquareR, NanumSquare"><tspan x="0" y="0">· 공공후견지원사업 기관</tspan><tspan x="0" y="26">· 장애인권익옹호기관</tspan><tspan x="0" y="52">· 장애인부모회</tspan></text>
    </g>
    <g id="그룹_504" data-name="그룹 504" transform="translate(590 1121)">
      <rect id="사각형_359-7" data-name="사각형 359" width="221" height="58" fill="#ea609e"/>
      <rect id="사각형_360-6" data-name="사각형 360" width="221" height="199" transform="translate(0 58)" fill="#fcf1f5"/>
      <text id="지역사회통합_돌봄지원센터" data-name="지역사회통합
돌봄지원센터" transform="translate(64 25)" fill="#fff" font-size="17" font-family="NanumSquareR, NanumSquare"><tspan x="0" y="0">지역사회통합</tspan><tspan x="0" y="20">돌봄지원센터</tspan></text>
      <text id="서비스_이용자_모집·홍보_초기면접_지원주택_운영_개인별주거지원계획_수립_지역사회기관_의뢰·연계_통합사례회의_진행" data-name="서비스 이용자 모집·홍보
초기면접
지원주택 운영
개인별주거지원계획 수립
지역사회기관 의뢰·연계
통합사례회의 진행" transform="translate(23 98)" fill="#555" font-size="17" font-family="NanumSquareR, NanumSquare"><tspan x="0" y="0">서비스 이용자 모집·홍보</tspan><tspan x="0" y="26">초기면접</tspan><tspan x="0" y="52">지원주택 운영</tspan><tspan x="0" y="78">개인별주거지원계획 수립</tspan><tspan x="0" y="104">지역사회기관 의뢰·연계</tspan><tspan x="0" y="130">통합사례회의 진행</tspan></text>
    </g>
    <g id="사각형_361" data-name="사각형 361" transform="translate(261 1472)" fill="#fff" stroke="#f8b616" stroke-width="2" stroke-dasharray="2">
      <rect width="879" height="59" rx="29.5" stroke="none"/>
      <rect x="1" y="1" width="877" height="57" rx="28.5" fill="none"/>
    </g>
    <text id="지역사회_내_독립거주_정책대상자" data-name="지역사회 내 독립거주 정책대상자" transform="translate(572 1507)" fill="#333" font-size="19" font-family="NanumSquareR, NanumSquare"><tspan x="0" y="0">지역사회 내 독립거주 정책대상자</tspan></text>
    <g id="화살표" transform="translate(353 609.686)">
      <rect id="사각형_362" data-name="사각형 362" width="84.071" height="6.13" transform="translate(139.13 375.525)" fill="#ddd"/>
      <path id="패스_1196" data-name="패스 1196" d="M247.385,378.757l-5.692,3.284L236,385.334V372.18l5.692,3.293Z" transform="translate(-13.675)" fill="#ddd"/>
      <path id="패스_1197" data-name="패스 1197" d="M133,378.757l5.692-3.284,5.692-3.293v13.154l-5.692-3.293Z" fill="#ddd"/>
    </g>
    <g id="화살표-2" data-name="화살표" transform="translate(1079.112 791.088) rotate(90)">
      <rect id="사각형_362-2" data-name="사각형 362" width="27.071" height="6.13" transform="translate(139.13 375.525)" fill="#ddd"/>
      <path id="패스_1196-2" data-name="패스 1196" d="M247.385,378.757l-5.692,3.284L236,385.334V372.18l5.692,3.293Z" transform="translate(-71.675)" fill="#ddd"/>
      <path id="패스_1197-2" data-name="패스 1197" d="M133,378.757l5.692-3.284,5.692-3.293v13.154l-5.692-3.293Z" fill="#ddd"/>
    </g>
    <g id="화살표-3" data-name="화살표" transform="translate(1079.112 945.088) rotate(90)">
      <rect id="사각형_362-3" data-name="사각형 362" width="27.071" height="6.13" transform="translate(139.13 375.525)" fill="#ddd"/>
      <path id="패스_1196-3" data-name="패스 1196" d="M247.385,378.757l-5.692,3.284L236,385.334V372.18l5.692,3.293Z" transform="translate(-71.675)" fill="#ddd"/>
      <path id="패스_1197-3" data-name="패스 1197" d="M133,378.757l5.692-3.284,5.692-3.293v13.154l-5.692-3.293Z" fill="#ddd"/>
    </g>
    <g id="화살표-4" data-name="화살표" transform="translate(750.112 1293.088) rotate(90)">
      <rect id="사각형_362-4" data-name="사각형 362" width="27.071" height="6.13" transform="translate(139.13 375.525)" fill="#ddd"/>
      <path id="패스_1196-4" data-name="패스 1196" d="M247.385,378.757l-5.692,3.284L236,385.334V372.18l5.692,3.293Z" transform="translate(-71.675)" fill="#ddd"/>
      <path id="패스_1197-4" data-name="패스 1197" d="M133,378.757l5.692-3.284,5.692-3.293v13.154l-5.692-3.293Z" fill="#ddd"/>
    </g>
    <g id="화살표-5" data-name="화살표" transform="translate(1079.112 1293.088) rotate(90)">
      <rect id="사각형_362-5" data-name="사각형 362" width="27.071" height="6.13" transform="translate(139.13 375.525)" fill="#ddd"/>
      <path id="패스_1196-5" data-name="패스 1196" d="M247.385,378.757l-5.692,3.284L236,385.334V372.18l5.692,3.293Z" transform="translate(-71.675)" fill="#ddd"/>
      <path id="패스_1197-5" data-name="패스 1197" d="M133,378.757l5.692-3.284,5.692-3.293v13.154l-5.692-3.293Z" fill="#ddd"/>
    </g>
    <g id="화살표-6" data-name="화살표" transform="translate(1408.112 1293.088) rotate(90)">
      <rect id="사각형_362-6" data-name="사각형 362" width="27.071" height="6.13" transform="translate(139.13 375.525)" fill="#ddd"/>
      <path id="패스_1196-6" data-name="패스 1196" d="M247.385,378.757l-5.692,3.284L236,385.334V372.18l5.692,3.293Z" transform="translate(-71.675)" fill="#ddd"/>
      <path id="패스_1197-6" data-name="패스 1197" d="M133,378.757l5.692-3.284,5.692-3.293v13.154l-5.692-3.293Z" fill="#ddd"/>
    </g>
    <g id="화살표-7" data-name="화살표" transform="translate(353 867.686)">
      <rect id="사각형_362-7" data-name="사각형 362" width="84.071" height="6.13" transform="translate(139.13 375.525)" fill="#ddd"/>
      <path id="패스_1196-7" data-name="패스 1196" d="M247.385,378.757l-5.692,3.284L236,385.334V372.18l5.692,3.293Z" transform="translate(-13.675)" fill="#ddd"/>
      <path id="패스_1197-7" data-name="패스 1197" d="M133,378.757l5.692-3.284,5.692-3.293v13.154l-5.692-3.293Z" fill="#ddd"/>
    </g>
    <g id="화살표-8" data-name="화살표" transform="translate(682 867.686)">
      <rect id="사각형_362-8" data-name="사각형 362" width="84.071" height="6.13" transform="translate(139.13 375.525)" fill="#ddd"/>
      <path id="패스_1196-8" data-name="패스 1196" d="M247.385,378.757l-5.692,3.284L236,385.334V372.18l5.692,3.293Z" transform="translate(-13.675)" fill="#ddd"/>
      <path id="패스_1197-8" data-name="패스 1197" d="M133,378.757l5.692-3.284,5.692-3.293v13.154l-5.692-3.293Z" fill="#ddd"/>
    </g>
    <g id="화살표-9" data-name="화살표" transform="translate(566.943 679.753) rotate(30)">
      <rect id="사각형_362-9" data-name="사각형 362" width="84.071" height="6.13" transform="translate(139.13 375.525)" fill="#ddd"/>
      <path id="패스_1196-9" data-name="패스 1196" d="M247.385,378.757l-5.692,3.284L236,385.334V372.18l5.692,3.293Z" transform="translate(-13.675)" fill="#ddd"/>
      <path id="패스_1197-9" data-name="패스 1197" d="M133,378.757l5.692-3.284,5.692-3.293v13.154l-5.692-3.293Z" fill="#ddd"/>
    </g>
    <g id="화살표-10" data-name="화살표" transform="translate(682 609.686)">
      <rect id="사각형_362-10" data-name="사각형 362" width="84.071" height="6.13" transform="translate(139.13 375.525)" fill="#ddd"/>
      <path id="패스_1196-10" data-name="패스 1196" d="M247.385,378.757l-5.692,3.284L236,385.334V372.18l5.692,3.293Z" transform="translate(-13.675)" fill="#ddd"/>
      <path id="패스_1197-10" data-name="패스 1197" d="M133,378.757l5.692-3.284,5.692-3.293v13.154l-5.692-3.293Z" fill="#ddd"/>
    </g>
  </g>
</svg>
