<svg xmlns="http://www.w3.org/2000/svg" width="931.35" height="140.867" viewBox="0 0 931.35 140.867">
  <g id="그룹_383" data-name="그룹 383" transform="translate(-233 -1137)">
    <rect id="사각형_177" data-name="사각형 177" width="189" height="79" rx="9" transform="translate(233 1137)" fill="#757575"/>
    <rect id="사각형_216" data-name="사각형 216" width="189" height="79" rx="9" transform="translate(481 1137)" fill="#757575"/>
    <rect id="사각형_217" data-name="사각형 217" width="189" height="79" rx="9" transform="translate(726 1137)" fill="#757575"/>
    <rect id="사각형_218" data-name="사각형 218" width="189" height="79" rx="9" transform="translate(975 1137)" fill="#757575"/>
    <path id="패스_455" data-name="패스 455" d="M0,0H189.35V64.671c0,7.84-3.361,14.2-7.507,14.2H7.507C3.361,78.867,0,72.511,0,64.671Z" transform="translate(233 1197)" fill="#faf8f8"/>
    <path id="패스_984" data-name="패스 984" d="M0,0H189.35V64.671c0,7.84-3.361,14.2-7.507,14.2H7.507C3.361,78.867,0,72.511,0,64.671Z" transform="translate(481 1198)" fill="#faf8f8"/>
    <path id="패스_985" data-name="패스 985" d="M0,0H189.35V64.671c0,7.84-3.361,14.2-7.507,14.2H7.507C3.361,78.867,0,72.511,0,64.671Z" transform="translate(726 1199)" fill="#faf8f8"/>
    <path id="패스_986" data-name="패스 986" d="M0,0H189.35V64.671c0,7.84-3.361,14.2-7.507,14.2H7.507C3.361,78.867,0,72.511,0,64.671Z" transform="translate(975 1198)" fill="#faf8f8"/>
    <g id="화살표" transform="translate(249.319 703.715)">
      <path id="패스_454" data-name="패스 454" d="M197.2,521.654a1.648,1.648,0,0,0,1.2.507,1.678,1.678,0,0,0,1.155-.465l14.626-14.053a1.666,1.666,0,0,0,0-2.393l-14.676-14.1a1.663,1.663,0,1,0-2.3,2.4l13.43,12.906-13.38,12.856A1.656,1.656,0,0,0,197.2,521.654Z" fill="#bfbaba"/>
    </g>
    <g id="화살표-2" data-name="화살표" transform="translate(494.319 703.715)">
      <path id="패스_454-2" data-name="패스 454" d="M197.2,521.654a1.648,1.648,0,0,0,1.2.507,1.678,1.678,0,0,0,1.155-.465l14.626-14.053a1.666,1.666,0,0,0,0-2.393l-14.676-14.1a1.663,1.663,0,1,0-2.3,2.4l13.43,12.906-13.38,12.856A1.656,1.656,0,0,0,197.2,521.654Z" fill="#bfbaba"/>
    </g>
    <g id="화살표-3" data-name="화살표" transform="translate(739.319 703.715)">
      <path id="패스_454-3" data-name="패스 454" d="M197.2,521.654a1.648,1.648,0,0,0,1.2.507,1.678,1.678,0,0,0,1.155-.465l14.626-14.053a1.666,1.666,0,0,0,0-2.393l-14.676-14.1a1.663,1.663,0,1,0-2.3,2.4l13.43,12.906-13.38,12.856A1.656,1.656,0,0,0,197.2,521.654Z" fill="#bfbaba"/>
    </g>
    <text id="신청문의" transform="translate(297 1174)" fill="#fff" font-size="17" font-family="NanumSquareR, NanumSquare"><tspan x="0" y="0">신청문의</tspan></text>
    <text id="신청서_작성_및_제출" data-name="신청서 작성 및 제출" transform="translate(508 1174)" fill="#fff" font-size="17" font-family="NanumSquareR, NanumSquare"><tspan x="0" y="0">신청서 작성 및 제출</tspan></text>
    <text id="대상자_선정_및_승인" data-name="대상자 선정 및 승인" transform="translate(752 1174)" fill="#fff" font-size="17" font-family="NanumSquareR, NanumSquare"><tspan x="0" y="0">대상자 선정 및 승인</tspan></text>
    <text id="서비스_지원" data-name="서비스 지원" transform="translate(1029 1174)" fill="#fff" font-size="17" font-family="NanumSquareR, NanumSquare"><tspan x="0" y="0">서비스 지원</tspan></text>
    <text id="통합돌봄지원센터_및_읍면동주민센터_통합돌봄창구" data-name="통합돌봄지원센터 및
읍면동주민센터
통합돌봄창구" transform="translate(328 1222)" fill="#555" font-size="14" font-family="NanumSquareR, NanumSquare"><tspan x="-59.08" y="0">통합돌봄지원센터 및</tspan><tspan x="-44.59" y="19">읍면동주민센터</tspan><tspan x="-38.22" y="38">통합돌봄창구</tspan></text>
    <text id="통합돌봄지원센터_및_읍면동주민센터_통합돌봄창구-2" data-name="통합돌봄지원센터 및
읍면동주민센터
통합돌봄창구" transform="translate(576 1223)" fill="#555" font-size="14" font-family="NanumSquareR, NanumSquare"><tspan x="-59.08" y="0">통합돌봄지원센터 및</tspan><tspan x="-44.59" y="19">읍면동주민센터</tspan><tspan x="-38.22" y="38">통합돌봄창구</tspan></text>
    <text id="통합돌봄지원센터" transform="translate(821 1243)" fill="#555" font-size="14" font-family="NanumSquareR, NanumSquare"><tspan x="-50.96" y="0">통합돌봄지원센터</tspan></text>
    <text id="통합돌봄지원센터-2" data-name="통합돌봄지원센터" transform="translate(1070 1241)" fill="#555" font-size="14" font-family="NanumSquareR, NanumSquare"><tspan x="-50.96" y="0">통합돌봄지원센터</tspan></text>
  </g>
</svg>
