<svg xmlns="http://www.w3.org/2000/svg" width="70.131" height="66.907" viewBox="0 0 70.131 66.907">
  <g id="평등" transform="translate(-207.2 -313.25)">
    <path id="패스_486" data-name="패스 486" d="M222.817,330.55l-8.337,19.193h16.682Z" transform="translate(-1.822 -4.329)" fill="none"/>
    <path id="패스_487" data-name="패스 487" d="M232.253,395.22h-4.888a1.6,1.6,0,1,0,0,3.209h39.091a1.6,1.6,0,1,0,0-3.209h-34.2Z" transform="translate(-4.645 -20.514)" fill="none"/>
    <path id="패스_488" data-name="패스 488" d="M279.565,330.55l-8.345,19.193H287.9Z" transform="translate(-16.022 -4.329)" fill="none"/>
    <path id="패스_489" data-name="패스 489" d="M232.28,389.544a1.606,1.606,0,0,0,1.6,1.6H263.2a1.6,1.6,0,1,0,0-3.209H233.884A1.606,1.606,0,0,0,232.28,389.544Z" transform="translate(-6.277 -18.692)" fill="none"/>
    <path id="패스_490" data-name="패스 490" d="M254.988,325.592a3.468,3.468,0,0,0,0-5.421,1.124,1.124,0,0,1-.42-.877V318a1.747,1.747,0,0,0-3.494,0v1.3a1.124,1.124,0,0,1-.42.877,3.468,3.468,0,0,0,0,5.421,1.135,1.135,0,0,1,.42.877V367.75h3.5V326.469A1.116,1.116,0,0,1,254.988,325.592Z" transform="translate(-10.548 -0.751)" fill="none"/>
    <path id="패스_491" data-name="패스 491" d="M212.658,356.15H207.2a13.8,13.8,0,1,0,27.59,0H212.658Z" transform="translate(0 -10.736)" fill="#ea609e"/>
    <path id="패스_492" data-name="패스 492" d="M256.2,345.414l8.337-19.193,8.337,19.193h2.452l-9.514-21.9a1.124,1.124,0,0,0-.255-2.219H248.922a5.674,5.674,0,0,0-1.657-3.254v-.795a4,4,0,0,0-7.992,0v.795a5.674,5.674,0,0,0-1.657,3.254H220.979a1.124,1.124,0,0,0-.255,2.219l-9.514,21.9h2.452L222,326.22l8.337,19.193H232.8l-9.5-21.87h14.44a5.594,5.594,0,0,0,1.544,2.677v40.771H228.619a3.857,3.857,0,0,0-3.854,3.854,3.812,3.812,0,0,0,.36,1.6h-1.395a3.854,3.854,0,1,0,0,7.707h39.091a3.854,3.854,0,1,0,0-7.707h-1.395a3.836,3.836,0,0,0-3.494-5.458H247.272V326.22a5.754,5.754,0,0,0,1.544-2.677h14.44l-9.5,21.87Zm8.225,30.9a1.606,1.606,0,0,1-1.6,1.6H223.731a1.6,1.6,0,1,1,0-3.209h39.091A1.6,1.6,0,0,1,264.427,376.318Zm-4.888-5.466a1.606,1.606,0,0,1-1.6,1.6H228.619a1.6,1.6,0,0,1,0-3.209h29.315A1.606,1.606,0,0,1,259.538,370.853ZM241.522,367V325.718a1.136,1.136,0,0,0-.42-.877,3.468,3.468,0,0,1,0-5.421,1.124,1.124,0,0,0,.42-.877v-1.3a1.747,1.747,0,0,1,3.494,0v1.3a1.124,1.124,0,0,0,.42.877,3.468,3.468,0,0,1,0,5.421,1.135,1.135,0,0,0-.42.877V367Z" transform="translate(-1.004 0)" fill="#646665"/>
    <path id="패스_493" data-name="패스 493" d="M269.4,356.15H263.94a13.8,13.8,0,1,0,27.59,0H269.4Z" transform="translate(-14.2 -10.736)" fill="#ea609e"/>
  </g>
</svg>
