<svg xmlns="http://www.w3.org/2000/svg" width="69.567" height="64.825" viewBox="0 0 69.567 64.825">
  <g id="협동" transform="translate(-236.88 -266.14)">
    <path id="패스_502" data-name="패스 502" d="M254.759,327.721a4.232,4.232,0,1,0-4.129-4.23A4.19,4.19,0,0,0,254.759,327.721Z" transform="translate(-3.841 -14.838)" fill="none"/>
    <path id="패스_503" data-name="패스 503" d="M257.738,337.94H245.782a5.91,5.91,0,0,0-5.9,5.9v5.016h23.761v-5.016A5.915,5.915,0,0,0,257.738,337.94Z" transform="translate(-0.838 -20.055)" fill="none"/>
    <path id="패스_504" data-name="패스 504" d="M312.329,327.721a4.232,4.232,0,1,0-4.129-4.23A4.19,4.19,0,0,0,312.329,327.721Z" transform="translate(-19.921 -14.838)" fill="none"/>
    <path id="패스_505" data-name="패스 505" d="M315.3,337.94H303.342a5.91,5.91,0,0,0-5.9,5.9v5.016H321.2v-5.016A5.905,5.905,0,0,0,315.3,337.94Z" transform="translate(-16.916 -20.055)" fill="none"/>
    <path id="패스_506" data-name="패스 506" d="M292.421,293.732a5.91,5.91,0,0,0-5.9-5.9H274.562a5.905,5.905,0,0,0-5.9,5.9v5.016h23.761Z" transform="translate(-8.877 -6.059)" fill="none"/>
    <path id="패스_507" data-name="패스 507" d="M283.547,277.6a4.231,4.231,0,1,0-4.137-4.23A4.19,4.19,0,0,0,283.547,277.6Z" transform="translate(-11.88 -0.838)" fill="none"/>
    <path id="패스_508" data-name="패스 508" d="M269.679,327.358a1.08,1.08,0,0,0,.382,2.09,1,1,0,0,0,.382-.072l6.118-2.313a4.942,4.942,0,0,1-.75-2.032Z" transform="translate(-8.966 -16.449)" fill="#646665"/>
    <path id="패스_509" data-name="패스 509" d="M296.909,329.391a1,1,0,0,0,.382.072,1.08,1.08,0,0,0,.382-2.09l-6.133-2.313a4.747,4.747,0,0,1-.749,2.032Z" transform="translate(-15.058 -16.458)" fill="#646665"/>
    <path id="패스_510" data-name="패스 510" d="M285.812,315.382v-4.641a1.081,1.081,0,0,0-2.162,0v4.641a4.826,4.826,0,0,1,1.081-.122A4.921,4.921,0,0,1,285.812,315.382Z" transform="translate(-13.064 -12.156)" fill="#646665"/>
    <path id="패스_511" data-name="패스 511" d="M282.709,278.925a6.393,6.393,0,1,0-6.3-6.392A6.353,6.353,0,0,0,282.709,278.925Zm0-10.616a4.231,4.231,0,1,1-4.137,4.23A4.19,4.19,0,0,1,282.709,268.309Z" transform="translate(-11.042)" fill="#646665"/>
    <path id="패스_512" data-name="패스 512" d="M266.741,300.072h25.923a1.08,1.08,0,0,0,1.081-1.081v-6.1a8.074,8.074,0,0,0-8.064-8.064H273.724a8.074,8.074,0,0,0-8.064,8.064v6.1A1.08,1.08,0,0,0,266.741,300.072Zm1.081-7.178a5.91,5.91,0,0,1,5.9-5.9H285.68a5.905,5.905,0,0,1,5.9,5.9v5.016H267.822Z" transform="translate(-8.039 -5.221)" fill="#646665"/>
    <path id="패스_513" data-name="패스 513" d="M253.922,329.045a6.393,6.393,0,1,0-6.292-6.392A6.353,6.353,0,0,0,253.922,329.045Zm0-10.616a4.232,4.232,0,1,1-4.129,4.23A4.19,4.19,0,0,1,253.922,318.429Z" transform="translate(-3.003 -14)" fill="#646665"/>
    <path id="패스_514" data-name="패스 514" d="M256.9,334.94H244.944A8.074,8.074,0,0,0,236.88,343v6.1a1.08,1.08,0,0,0,1.081,1.081h25.923a1.08,1.08,0,0,0,1.081-1.081V343A8.078,8.078,0,0,0,256.9,334.94Zm5.9,13.088H239.042v-5.016a5.91,5.91,0,0,1,5.9-5.9H256.9a5.91,5.91,0,0,1,5.9,5.9Z" transform="translate(0 -19.217)" fill="#646665"/>
    <path id="패스_515" data-name="패스 515" d="M311.492,329.045a6.393,6.393,0,1,0-6.292-6.392A6.353,6.353,0,0,0,311.492,329.045Zm0-10.616a4.232,4.232,0,1,1-4.129,4.23A4.19,4.19,0,0,1,311.492,318.429Z" transform="translate(-19.083 -14)" fill="#646665"/>
    <path id="패스_516" data-name="패스 516" d="M314.46,334.94H302.5A8.074,8.074,0,0,0,294.44,343v6.1a1.08,1.08,0,0,0,1.081,1.081h25.923a1.08,1.08,0,0,0,1.081-1.081V343A8.069,8.069,0,0,0,314.46,334.94Zm5.91,13.088H296.609v-5.016a5.91,5.91,0,0,1,5.9-5.9h11.956a5.91,5.91,0,0,1,5.9,5.9Z" transform="translate(-16.078 -19.217)" fill="#646665"/>
    <path id="패스_517" data-name="패스 517" d="M288.076,322.912a4.582,4.582,0,0,0,.043-.627,4.865,4.865,0,0,0-9.729,0,6.113,6.113,0,0,0,.043.627,4.747,4.747,0,0,0,.75,2.032,4.862,4.862,0,0,0,8.144,0A4.746,4.746,0,0,0,288.076,322.912Z" transform="translate(-11.595 -14.324)" fill="#ea609e"/>
  </g>
</svg>
