<svg xmlns="http://www.w3.org/2000/svg" width="83.767" height="66.274" viewBox="0 0 83.767 66.274">
  <g id="성장" transform="translate(-162.45 -274.91)">
    <rect id="사각형_197" data-name="사각형 197" width="9.258" height="38.04" transform="translate(189.834 300.542)" fill="none"/>
    <rect id="사각형_198" data-name="사각형 198" width="9.258" height="44.981" transform="translate(229.367 293.6)" fill="none"/>
    <rect id="사각형_199" data-name="사각형 199" width="9.258" height="34.569" transform="translate(209.6 304.012)" fill="none"/>
    <rect id="사각형_200" data-name="사각형 200" width="9.258" height="21.554" transform="translate(170.068 317.028)" fill="none"/>
    <path id="패스_494" data-name="패스 494" d="M205.66,291.95l8.365,1.484c0-.1-.017-.182-.017-.269a5.9,5.9,0,0,1,.46-2.291l-8.382-1.484c.009.1.017.2.017.3A5.748,5.748,0,0,1,205.66,291.95Z" transform="translate(-5.717 -1.916)" fill="#646665"/>
    <path id="패스_495" data-name="패스 495" d="M182.375,303.9l10.837-9.111a5.9,5.9,0,0,1-1.64-2.022L180.7,301.907A6.1,6.1,0,0,1,182.375,303.9Z" transform="translate(-2.415 -2.363)" fill="#646665"/>
    <path id="패스_496" data-name="패스 496" d="M238.061,285.818a5.906,5.906,0,0,1-1.215-2.308l-9.536,5.024a5.9,5.9,0,0,1,1.215,2.308Z" transform="translate(-8.581 -1.138)" fill="#646665"/>
    <path id="패스_497" data-name="패스 497" d="M175.656,313.763a5.926,5.926,0,1,0-5.926-5.926A5.929,5.929,0,0,0,175.656,313.763Z" transform="translate(-0.963 -3.572)" fill="#ea609e"/>
    <path id="패스_498" data-name="패스 498" d="M194.776,293.487a5.935,5.935,0,0,0,9.605-4.651c0-.1-.009-.208-.017-.3a5.926,5.926,0,0,0-11.844.3,6,6,0,0,0,2.256,4.651Z" transform="translate(-3.978 -1.058)" fill="#ea609e"/>
    <path id="패스_499" data-name="패스 499" d="M215.3,293.1a5.925,5.925,0,0,0,11.844-.269,6.031,6.031,0,0,0-.208-1.544,5.966,5.966,0,0,0-1.215-2.308,5.926,5.926,0,0,0-10.438,3.844C215.289,292.93,215.3,293.017,215.3,293.1Z" transform="translate(-6.99 -1.586)" fill="#ea609e"/>
    <path id="패스_500" data-name="패스 500" d="M244,286.763a5.926,5.926,0,1,0-5.926-5.926,6.031,6.031,0,0,0,.208,1.544A5.915,5.915,0,0,0,244,286.763Z" transform="translate(-10.005)" fill="#ea609e"/>
    <path id="패스_501" data-name="패스 501" d="M244.924,341.034h-3.705V294.752a1.3,1.3,0,0,0-1.3-1.3H228.056a1.3,1.3,0,0,0-1.3,1.3v46.283h-5.3v-35.87a1.3,1.3,0,0,0-1.3-1.3H208.29a1.3,1.3,0,0,0-1.3,1.3v35.87h-5.3V301.693a1.3,1.3,0,0,0-1.3-1.3H188.524a1.3,1.3,0,0,0-1.3,1.3v39.341h-5.3V318.179a1.3,1.3,0,0,0-1.3-1.3H168.758a1.3,1.3,0,0,0-1.3,1.3v22.855h-3.705a1.3,1.3,0,1,0,0,2.6h81.164a1.3,1.3,0,0,0,.009-2.6Zm-15.558-44.981h9.258v44.981h-9.258ZM209.6,306.465h9.258v34.569H209.6Zm-19.766-3.471h9.258v38.04h-9.258Zm-19.766,16.486h9.258v21.553h-9.258Z" transform="translate(0 -2.453)" fill="#646665"/>
  </g>
</svg>
