<svg xmlns="http://www.w3.org/2000/svg" width="90" height="71.497" viewBox="0 0 90 71.497">
  <g id="환경" transform="translate(-117.55 -166.96)">
    <g id="그룹_160" data-name="그룹 160" transform="translate(126.035 166.96)">
      <g id="그룹_159" data-name="그룹 159" transform="translate(0)">
        <g id="그룹_158" data-name="그룹 158">
          <g id="그룹_157" data-name="그룹 157">
            <path id="패스_337" data-name="패스 337" d="M199.5,221.248V198.189h13.03l-15.484-10.368V166.96h-8.657v15.063l-12.376-8.289L139.5,198.189h13.03v35.949h30.593" transform="translate(-139.5 -166.96)" fill="#ea609e"/>
          </g>
        </g>
      </g>
    </g>
    <g id="그룹_165" data-name="그룹 165" transform="translate(118.55 210.84)">
      <g id="그룹_162" data-name="그룹 162" transform="translate(43.993 0)">
        <g id="그룹_161" data-name="그룹 161">
          <path id="패스_338" data-name="패스 338" d="M277.133,292.4l-4.673-2.094a6.042,6.042,0,0,0-2.465-.529h-1.526a8.235,8.235,0,0,0-6.309,2.944l-5.938,7.078a6.221,6.221,0,0,0-1.24,5.609l.568,2.115-2.622,2.419h-5.963a5.518,5.518,0,0,0-5.116,3.444h0a2.187,2.187,0,0,0,2.026,3.008h12.887l20.368-11.9V292.4Z" transform="translate(-241.686 -289.78)" fill="#fff" stroke="#646665" stroke-linejoin="round" stroke-miterlimit="10" stroke-width="2"/>
          <line id="선_32" data-name="선 32" y1="6.913" x2="6.91" transform="translate(13.871 10.833)" fill="#fff" stroke="#646665" stroke-linejoin="round" stroke-miterlimit="10" stroke-width="2"/>
        </g>
        <path id="패스_339" data-name="패스 339" d="M349.46,300.568v9.239H340.9V292.94h8.56v3.051" transform="translate(-305.453 -291.811)" fill="#fff" stroke="#646665" stroke-linejoin="round" stroke-miterlimit="10" stroke-width="2"/>
      </g>
      <g id="그룹_164" data-name="그룹 164" transform="translate(0 0.107)">
        <g id="그룹_163" data-name="그룹 163" transform="translate(8.525)">
          <path id="패스_340" data-name="패스 340" d="M142.41,292.692l4.652-2.086a5.989,5.989,0,0,1,2.454-.525h1.518a8.2,8.2,0,0,1,6.284,2.93l5.913,7.049a6.181,6.181,0,0,1,1.233,5.584l-.568,2.108,2.612,2.412h5.938a5.5,5.5,0,0,1,5.1,3.43h0a2.177,2.177,0,0,1-2.015,3H162.7L142.41,304.739Z" transform="translate(-142.41 -290.08)" fill="#fff" stroke="#646665" stroke-linejoin="round" stroke-miterlimit="10" stroke-width="2"/>
          <line id="선_33" data-name="선 33" x1="6.885" y1="6.885" transform="translate(14.605 10.79)" fill="#fff" stroke="#646665" stroke-linejoin="round" stroke-miterlimit="10" stroke-width="2"/>
        </g>
        <path id="패스_341" data-name="패스 341" d="M118.55,305.306v4.723h8.525v-16.8H118.55v7.406" transform="translate(-118.55 -292.105)" fill="#fff" stroke="#646665" stroke-linejoin="round" stroke-miterlimit="10" stroke-width="2"/>
      </g>
    </g>
  </g>
</svg>
